<?xml version="1.0" encoding="utf-8"?>
<!-- Generator: Adobe Illustrator 17.1.0, SVG Export Plug-In . SVG Version: 6.00 Build 0)  -->
<!DOCTYPE svg PUBLIC "-//W3C//DTD SVG 1.1//EN" "http://www.w3.org/Graphics/SVG/1.1/DTD/svg11.dtd">
<svg version="1.1" id="Layer_1" xmlns="http://www.w3.org/2000/svg" xmlns:xlink="http://www.w3.org/1999/xlink" x="0px" y="0px"
	 viewBox="0 0 59.4 59.4" enable-background="new 0 0 59.4 59.4" xml:space="preserve">
<g>
	<g>
		<g>
			<path fill="#D0B183" d="M29.7,3C15,3,3,15,3,29.7c0,14.7,12,26.7,26.7,26.7c14.7,0,26.7-12,26.7-26.7C56.4,15,44.4,3,29.7,3z
				 M17.9,9.4c-2,0-3.9,0.5-5.6,1.4c1.7-1.5,3.6-2.9,5.6-3.9V9.4z M17.9,10.3V34c-6.4-0.1-11.6-5.4-11.6-11.8
				C6.3,15.7,11.5,10.5,17.9,10.3z M18.9,6.4c0.4-0.2,0.9-0.4,1.3-0.6v47.8c-0.4-0.2-0.9-0.4-1.3-0.6V6.4z M21.1,5.4
				C21.5,5.3,22,5.1,22.4,5v49.4c-0.4-0.1-0.9-0.3-1.3-0.4V5.4z M23.4,4.7c0.4-0.1,0.9-0.2,1.3-0.3v50.5c-0.4-0.1-0.9-0.2-1.3-0.3
				V4.7z M25.7,4.3c0.4-0.1,0.9-0.1,1.3-0.2v51.2c-0.4,0-0.9-0.1-1.3-0.2V4.3z M27.9,4c0.4,0,0.9,0,1.3-0.1v51.5
				c-0.4,0-0.9,0-1.3-0.1V4z M30.2,4c0.4,0,0.9,0,1.3,0.1v51.3c-0.4,0-0.9,0-1.3,0.1V4z M32.5,4.1c0.4,0,0.9,0.1,1.3,0.2v50.8
				c-0.4,0.1-0.9,0.1-1.3,0.2V4.1z M34.7,4.4c0.4,0.1,0.9,0.2,1.3,0.3v49.9c-0.4,0.1-0.9,0.2-1.3,0.3V4.4z M37,5
				c0.4,0.1,0.9,0.3,1.3,0.4v48.5c-0.4,0.2-0.9,0.3-1.3,0.4V5z M39.3,5.8c0.4,0.2,0.9,0.4,1.3,0.6V53c-0.4,0.2-0.9,0.4-1.3,0.6V5.8z
				 M41.5,35c3.8-0.1,7.2-1.8,9.5-4.5c1.3,1.9,2.1,4.2,2.1,6.7c0,6.4-5.2,11.7-11.6,11.8V35z M41.5,34v-8.7c3.6,0.1,6.8,1.8,8.9,4.3
				C48.3,32.3,45.1,33.9,41.5,34z M41.5,24.4v-14c6.4,0.1,11.6,5.4,11.6,11.8c0,2.5-0.8,4.8-2.1,6.7C48.7,26.2,45.3,24.5,41.5,24.4z
				 M41.5,9.4V6.8c2.1,1.1,4,2.4,5.6,4C45.5,9.9,43.6,9.4,41.5,9.4z M41.5,50c2,0,3.9-0.6,5.6-1.4c-1.7,1.6-3.6,2.9-5.6,4V50z
				 M51.7,29.7c1.5-2.1,2.4-4.7,2.4-7.5c0-0.3,0-0.5,0-0.8c0.9,2.6,1.4,5.4,1.4,8.3c0,2.9-0.5,5.7-1.4,8.3c0-0.3,0-0.5,0-0.8
				C54.1,34.4,53.2,31.8,51.7,29.7z M4,29.7c0-2.9,0.5-5.6,1.4-8.2c0,0.2,0,0.5,0,0.7c0,7,5.6,12.7,12.6,12.8v17.5
				C9.6,48.2,4,39.6,4,29.7z"/>
			<path fill="#D0B183" d="M29.7,0.6c-16,0-29.1,13.1-29.1,29.1c0,16,13.1,29.1,29.1,29.1c16,0,29.1-13.1,29.1-29.1
				C58.8,13.6,45.8,0.6,29.7,0.6z M29.7,57.8c-15.5,0-28.1-12.6-28.1-28.1S14.2,1.6,29.7,1.6c15.5,0,28.1,12.6,28.1,28.1
				S45.2,57.8,29.7,57.8z"/>
		</g>
	</g>
</g>
</svg>
