<?xml version="1.0" encoding="utf-8"?>
<!-- Generator: Adobe Illustrator 17.1.0, SVG Export Plug-In . SVG Version: 6.00 Build 0)  -->
<!DOCTYPE svg PUBLIC "-//W3C//DTD SVG 1.1//EN" "http://www.w3.org/Graphics/SVG/1.1/DTD/svg11.dtd">
<svg version="1.1" id="Layer_1" xmlns="http://www.w3.org/2000/svg" xmlns:xlink="http://www.w3.org/1999/xlink" x="0px" y="0px"
	 viewBox="0 0 178.4 10.8" enable-background="new 0 0 178.4 10.8" xml:space="preserve">
<g>
	<path fill="#BC8E48" d="M1.7,6.4v3.9H0.3V0.7h1.6c0.8,0,1.4,0.1,1.8,0.2C4.1,1,4.5,1.2,4.8,1.5c0.5,0.5,0.8,1.2,0.8,2
		c0,0.9-0.3,1.6-0.9,2.1S3.4,6.4,2.4,6.4H1.7z M1.7,5h0.5c1.3,0,2-0.5,2-1.5c0-1-0.7-1.5-2-1.5H1.7V5z"/>
	<path fill="#BC8E48" d="M13.6,7.9H9.5l-1.1,2.3H6.9l4.7-10.1l4.5,10.1h-1.6L13.6,7.9z M13,6.6l-1.4-3.2l-1.5,3.2H13z"/>
	<path fill="#BC8E48" d="M20.4,0.7v8.1h2.8v1.3H19V0.7H20.4z"/>
	<path fill="#BC8E48" d="M25.4,5.4c0-1.3,0.5-2.5,1.5-3.4c1-1,2.1-1.4,3.5-1.4c1.4,0,2.5,0.5,3.5,1.5c1,1,1.5,2.1,1.5,3.5
		c0,1.4-0.5,2.5-1.5,3.5c-1,1-2.2,1.4-3.5,1.4c-1.2,0-2.3-0.4-3.3-1.3C25.9,8.2,25.4,6.9,25.4,5.4z M26.8,5.4c0,1,0.4,1.9,1.1,2.6
		c0.7,0.7,1.5,1,2.4,1c1,0,1.8-0.3,2.5-1c0.7-0.7,1-1.5,1-2.5c0-1-0.3-1.9-1-2.5c-0.7-0.7-1.5-1-2.5-1c-1,0-1.8,0.3-2.5,1
		C27.1,3.6,26.8,4.4,26.8,5.4z"/>
	<path fill="#BC8E48" d="M38.4,10.2l2-10.2l3.3,7.4L47,0l1.8,10.2h-1.5l-0.9-5.7l-2.8,6.2l-2.7-6.2l-1,5.7H38.4z"/>
	<path fill="#BC8E48" d="M53.9,0.7v9.5h-1.4V0.7H53.9z"/>
	<path fill="#BC8E48" d="M57.8,10.2V0.1l6.9,7.2V0.7h1.4v10.1l-6.9-7.2v6.6H57.8z"/>
	<path fill="#BC8E48" d="M69.7,5.4c0-1.3,0.5-2.5,1.5-3.4c1-1,2.1-1.4,3.5-1.4C76,0.5,77.2,1,78.2,2c1,1,1.5,2.1,1.5,3.5
		c0,1.4-0.5,2.5-1.5,3.5c-1,1-2.2,1.4-3.5,1.4c-1.2,0-2.3-0.4-3.3-1.3C70.2,8.2,69.7,6.9,69.7,5.4z M71.1,5.4c0,1,0.4,1.9,1.1,2.6
		c0.7,0.7,1.5,1,2.4,1c1,0,1.8-0.3,2.5-1c0.7-0.7,1-1.5,1-2.5c0-1-0.3-1.9-1-2.5c-0.7-0.7-1.5-1-2.5-1c-1,0-1.8,0.3-2.5,1
		C71.5,3.6,71.1,4.4,71.1,5.4z"/>
	<path fill="#BC8E48" d="M88.6,10.2V0.7H90c0.6,0,1.1,0,1.5,0.1c0.4,0.1,0.7,0.3,1,0.5c0.3,0.2,0.5,0.5,0.6,0.9
		c0.2,0.4,0.2,0.7,0.2,1.1c0,0.7-0.3,1.3-0.8,1.7c0.5,0.2,0.9,0.5,1.2,0.9c0.3,0.4,0.4,0.9,0.4,1.5c0,0.7-0.3,1.4-0.8,1.9
		c-0.3,0.3-0.7,0.5-1.1,0.7c-0.4,0.1-1,0.2-1.6,0.2H88.6z M90,4.8h0.4c0.5,0,0.9-0.1,1.2-0.4s0.4-0.6,0.4-1c0-0.4-0.1-0.8-0.4-1
		C91.4,2.1,91,2,90.5,2H90V4.8z M90,8.9h0.9c0.6,0,1.1-0.1,1.4-0.4c0.3-0.3,0.5-0.6,0.5-1c0-0.4-0.2-0.8-0.5-1C92,6.1,91.5,6,90.7,6
		H90V8.9z"/>
	<path fill="#BC8E48" d="M99.1,0.7v8.1h2.8v1.3h-4.2V0.7H99.1z"/>
	<path fill="#BC8E48" d="M111,7.9h-4.1l-1.1,2.3h-1.5L109,0.1l4.5,10.1H112L111,7.9z M110.4,6.6L109,3.3l-1.5,3.2H110.4z"/>
	<path fill="#BC8E48" d="M123,1.2v1.7c-0.8-0.7-1.7-1-2.6-1c-1,0-1.8,0.4-2.5,1.1c-0.7,0.7-1,1.5-1,2.6c0,1,0.3,1.8,1,2.5
		s1.5,1,2.5,1c0.5,0,0.9-0.1,1.3-0.2c0.2-0.1,0.4-0.2,0.6-0.3c0.2-0.1,0.4-0.3,0.7-0.5v1.7c-0.8,0.5-1.7,0.7-2.6,0.7
		c-1.4,0-2.5-0.5-3.5-1.4c-1-1-1.4-2.1-1.4-3.5c0-1.2,0.4-2.3,1.2-3.2c1-1.2,2.3-1.7,3.8-1.7C121.3,0.5,122.2,0.8,123,1.2z"/>
	<path fill="#BC8E48" d="M128.1,4.5l3.7-3.8h1.9L129.4,5l4.3,5.2h-1.9L128.4,6l-0.3,0.3v3.9h-1.4V0.7h1.4V4.5z"/>
	<path fill="#BC8E48" d="M137.1,0.7l2.5,6.3l2.6-6.8l2.5,6.8l2.6-6.3h1.6l-4.2,10.1l-2.4-6.7l-2.5,6.7l-4-10.1H137.1z"/>
	<path fill="#BC8E48" d="M153.1,0.7v9.5h-1.4V0.7H153.1z"/>
	<path fill="#BC8E48" d="M157,10.2V0.1l6.9,7.2V0.7h1.4v10.1l-6.9-7.2v6.6H157z"/>
	<path fill="#BC8E48" d="M174.2,5.3h3.9v0.3c0,0.7-0.1,1.3-0.3,1.9c-0.2,0.5-0.4,1-0.8,1.4c-0.9,1-2,1.5-3.4,1.5
		c-1.3,0-2.5-0.5-3.4-1.4c-0.9-1-1.4-2.1-1.4-3.5c0-1.4,0.5-2.5,1.4-3.5c1-1,2.1-1.4,3.5-1.4c0.7,0,1.4,0.2,2.1,0.5
		c0.6,0.3,1.2,0.8,1.8,1.5l-1,1c-0.8-1-1.7-1.6-2.8-1.6c-1,0-1.8,0.3-2.5,1c-0.7,0.7-1,1.5-1,2.6c0,1.1,0.4,1.9,1.1,2.6
		c0.7,0.6,1.5,1,2.3,1c0.7,0,1.3-0.2,1.9-0.7c0.6-0.5,0.9-1.1,0.9-1.7h-2.4V5.3z"/>
</g>
</svg>
