<?xml version="1.0" standalone="no"?>
<!DOCTYPE svg PUBLIC "-//W3C//DTD SVG 1.1//EN" "http://www.w3.org/Graphics/SVG/1.1/DTD/svg11.dtd" >
<svg xmlns="http://www.w3.org/2000/svg">
<metadata>
Created by FontPrep 20130207 at Mon Feb 24 11:59:49 2014
 By Administrator
Copyright (c) 1985, 1987, 1990, 2002 Adobe Systems Incorporated.  All Rights Reserved.
</metadata>
<defs>
<font id="99b389bf93d4b5ed3c2200accf9b79f2" horiz-adv-x='1024' >
  <font-face 
    font-family="MeliorLTStd"
    font-weight="400"
    font-stretch="normal"
    units-per-em="2048"
    panose-1="2 4 5 3 5 5 6 4 8 4"
    ascent="1526"
    descent="-522"
    x-height="952"
    cap-height="1417"
    bbox="-276 -516 2048 1898"
    underline-thickness="102"
    underline-position="-153"
    unicode-range="U+0020-FB02"
  />
<missing-glyph horiz-adv-x="1024" 
d="M102 1239v-1044l349 522zM164 102h696l-348 523zM573 717l349 -522v1044zM512 809l348 522h-696zM0 0v1434h1024v-1434h-1024z" />
    <glyph glyph-name="fi" unicode="fi" horiz-adv-x="1251" 
d="M907 1145q-53 0 -84 38t-31 96t31 96t84 38t84 -38t31 -96t-31 -96t-84 -38zM916 0q-176 0 -267 -4v65q123 0 155 28q31 28 27 114v547q0 92 -23 108q-24 16 -92 16h-327v-671q0 -94 31 -118t166 -24v-65q-187 0 -281 4q-176 0 -266 -4v65q125 0 157 29t25 113v671h-176
v78h176v252q0 146 77 234t224 88q102 0 162 -39t72 -135v-38q0 -10 -2 -14t-5 -11t-9 -7t-12 -4q-7 -4 -17 0h-74q-41 -7 -41 36v32q7 44 -20 81q-28 35 -83 35t-79 -37t-25 -165v-308h610v-749q0 -92 29 -117t154 -25v-65q-90 4 -266 4z" />
    <glyph glyph-name="fl" unicode="fl" horiz-adv-x="1251" 
d="M764 1320q0 -16 -2 -20t-5 -11t-8 -7t-13 -4t-17 0h-74q-26 0 -33 15q-6 15 -6 38l2 12v29q0 49 -33 71q-33 21 -75 21t-69 -41q-28 -41 -31 -75t-3 -88v-308h248v-78h-248v-671q0 -94 31 -118t166 -24v-65q-185 0 -281 4q-176 0 -266 -4v65q123 6 155 34t27 108v671
h-176v78h176v252q0 142 80 232t221 90q72 0 125 -25l361 25v-1323q0 -92 28 -117t154 -25v-65q-90 4 -266 4t-266 -4v65q118 2 152 31t30 111v1114q0 83 -22 109t-103 30q33 -39 37 -80t4 -56z" />
    <glyph glyph-name=".notdef" horiz-adv-x="1024" 
d="M102 1239v-1044l349 522zM164 102h696l-348 523zM573 717l349 -522v1044zM512 809l348 522h-696zM0 0v1434h1024v-1434h-1024z" />
    <glyph glyph-name=".null" horiz-adv-x="0" 
 />
    <glyph glyph-name="nonmarkingreturn" 
 />
    <glyph glyph-name="space" unicode=" " horiz-adv-x="569" 
 />
    <glyph glyph-name="exclam" unicode="!" 
d="M342 -20q-53 0 -84 38t-31 96t31 96t84 38t84 -38t31 -96t-31 -96t-84 -38zM342 1444q125 0 111 -178l-66 -742q-4 -78 -45 -135q-41 57 -45 135l-66 742q-14 178 111 178z" />
    <glyph glyph-name="quotedbl" unicode="&#x22;" horiz-adv-x="759" 
d="M586 930h-41l-68 401q-6 33 23 62q30 29 66 29t65 -30q29 -28 22 -61zM215 930h-41l-68 401q-6 33 23 62t66 29t65 -30q28 -28 23 -61z" />
    <glyph glyph-name="numbersign" unicode="#" horiz-adv-x="1138" 
d="M739 795h-272l-43 -263h274zM1022 532v-108h-223l-64 -424h-119l64 424h-274l-68 -424h-119l68 424h-219v108h237l43 263h-225v108h242l63 397h119l-64 -397h273l61 397h119l-62 -397h199v-108h-215l-41 -263h205z" />
    <glyph glyph-name="dollar" unicode="$" horiz-adv-x="1138" 
d="M633 582v-527q102 12 168 83t65 175q0 189 -233 269zM319 1040q0 -152 156 -219l86 -30v483q-109 -8 -175 -66t-67 -168zM633 1444v-96q178 -6 352 -72v-313h-106q-2 14 -6 58q-10 147 -64 199t-176 54v-508l63 -23q166 -59 254 -138t88 -247t-105 -256t-300 -116v-201
h-72v195h-47q-233 0 -414 81v349h127q2 -16 4 -72q3 -56 7 -89q4 -32 23 -80q57 -144 300 -122v559q-203 70 -272 117q-135 92 -135 263t115 263q116 92 292 99v96h72z" />
    <glyph glyph-name="percent" unicode="%" horiz-adv-x="2048" 
d="M631 -147h-101l799 1673h101zM516 735q188 -1 188 311t-188 312t-188 -312t188 -311zM516 680q-162 0 -255 94t-93 272t93 273q93 94 255 94t255 -94t93 -272q0 -179 -93 -273t-255 -94zM1456 35q188 0 189 311q-1 311 -189 311t-188 -311t188 -311zM1456 -20
q-162 0 -255 94t-93 272t93 272t255 94t255 -94t93 -272t-93 -272t-255 -94z" />
    <glyph glyph-name="ampersand" unicode="&#x26;" horiz-adv-x="1366" 
d="M258 328q0 -106 72 -182t176 -76q145 0 250 125l18 22l-352 401q-164 -111 -164 -290zM412 -20q-129 0 -233 88q-103 88 -91 231q10 109 96 209t195 162q-152 186 -152 327t87 223q88 82 220 80q132 0 212 -61t81 -174q0 -113 -51 -176q-38 -51 -73 -79q-34 -28 -46 -38
t-50 -37t-48 -35l309 -340q85 135 113 242q8 35 -33 47t-139 19v59q41 -2 123 -2h245q81 0 121 2v-59q-129 -13 -159 -36t-41 -38q-10 -16 -25 -41l-153 -254l167 -176q66 -49 211 -53v-74l-161 4l-164 -4l-150 168q-90 -98 -186 -141t-225 -43zM375 1071q0 -156 137 -317
q98 70 140 129t42 151t-41 147q-41 54 -117 54t-118 -45q-43 -45 -43 -119z" />
    <glyph glyph-name="quotesingle" unicode="'" horiz-adv-x="425" 
d="M233 930h-40l-68 401q-6 33 22 62q29 29 66 29t66 -30q29 -28 22 -61z" />
    <glyph glyph-name="parenleft" unicode="(" 
d="M162 681v111q0 159 18 282q18 124 47 181q29 58 62 109q57 88 178 133q59 23 131 29v-58q-117 -47 -175 -145t-72 -192q-25 -159 -25 -302v-407q0 -145 7 -192q7 -48 16 -114t23 -100q14 -35 41 -100q26 -65 105 -128q37 -30 80 -46v-57q-314 27 -400 381q-14 60 -27 176
q-12 117 -9 187q2 71 1 127t-1 125z" />
    <glyph glyph-name="parenright" unicode=")" 
d="M526 696v-139q2 -51 0 -106t-3 -111q-4 -198 -44 -320q-41 -122 -87 -178q-46 -55 -87 -85q-82 -60 -215 -72v57q75 28 143 106q27 31 48 82q20 51 34 86t24 101q9 66 16 113t7 132v244q0 338 -10 436q-37 317 -235 414q-13 6 -27 12v58q138 -12 233 -82q90 -71 133 -179
q43 -109 52 -199q10 -92 15 -154t4 -122t-1 -94z" />
    <glyph glyph-name="asterisk" unicode="*" horiz-adv-x="1138" 
d="M862 1253l72 -133l-316 -80l242 -219l-123 -100l-170 283l-170 -283l-123 100l242 219l-315 80l71 133l260 -155l-45 315h160l-45 -315z" />
    <glyph glyph-name="plus" unicode="+" horiz-adv-x="1241" 
d="M555 584v448h131v-448h451v-131h-451v-455h-131v455h-451v131h451z" />
    <glyph glyph-name="comma" unicode="," horiz-adv-x="569" 
d="M316 250q54 0 87 -55t33 -111q0 -128 -60 -210t-181 -148l-33 55q68 25 123 89t51 130q-59 -10 -102 22q-42 32 -42 94t35 98t89 36z" />
    <glyph glyph-name="hyphen" unicode="-" 
d="M592 432h-502v152h502v-152z" />
    <glyph glyph-name="period" unicode="." horiz-adv-x="569" 
d="M274 -20q-53 0 -84 38q-30 38 -30 96q0 60 30 98q31 38 84 38t84 -38t31 -97t-31 -97t-84 -38z" />
    <glyph glyph-name="slash" unicode="/" horiz-adv-x="796" 
d="M78 -20l516 1546h127l-518 -1546h-125z" />
    <glyph glyph-name="zero" unicode="0" horiz-adv-x="1138" 
d="M313 531q0 -130 13 -212q45 -272 241 -272q125 0 184 99t65 219q3 61 7 120t2 101t-2 55v45q0 270 -22 334q-22 66 -50 116q-55 99 -184 99q-225 0 -251 -370q-8 -112 -5 -158q2 -46 2 -176zM109 642q0 122 7 205t34 176t74 148q48 55 134 93t198 36q224 -1 322 -95
q98 -95 124 -237t26 -330q0 -336 -75 -466q-75 -129 -205 -169q-78 -23 -191 -23t-199 36t-134 94q-48 56 -74 149q-27 93 -34 177t-7 206z" />
    <glyph glyph-name="one" unicode="1" horiz-adv-x="1138" 
d="M270 -4v70q181 0 224 20q32 16 32 119v954q-184 -145 -250 -178t-110 -43v113q184 57 379 229h166v-1075q0 -96 16 -105q16 -10 34 -22t189 -12v-70q-226 0 -332 4q-106 -4 -348 -4z" />
    <glyph glyph-name="two" unicode="2" horiz-adv-x="1138" 
d="M721 160q96 0 115 17q20 17 30 30t27 145h72v-352h-828v152l193 192q158 158 196 205t73 92q36 45 50 72t39 69t43 97q18 56 18 140q1 84 -51 149t-153 65q-137 0 -175 -81q-25 -54 -33 -97q-7 -43 -8 -48t-1 -34t-12 -42t-42 -13h-71q-43 -2 -35 128t120 192t242 62
t213 -26q84 -26 145 -95q60 -71 60 -180q0 -159 -177 -354q-98 -108 -288 -274l-223 -211h461z" />
    <glyph glyph-name="three" unicode="3" horiz-adv-x="1138" 
d="M737 964q0 132 -42 195t-148 72q-199 18 -213 -207l-6 -33q4 -23 -10 -35t-39 -6h-62q-53 0 -45 45q0 305 379 305q166 0 272 -78t107 -239q0 -109 -58 -185t-163 -104v-4q125 -26 191 -114t65 -218q0 -211 -124 -295q-125 -83 -321 -83t-284 80t-93 206q0 27 2 41
q3 15 17 29t43 14h49q46 0 53 -20q8 -20 10 -78q2 -59 12 -85q9 -27 26 -57q37 -66 167 -65q131 0 188 84q56 84 56 231q0 146 -53 216t-195 69q-55 0 -123 -10v90q57 -8 88 -8q147 10 201 63q53 52 53 184z" />
    <glyph glyph-name="four" unicode="4" horiz-adv-x="1138" 
d="M406 -4v65q162 -2 200 22t35 122v168h-584v98q311 426 566 809h186v-774h211l-21 -133h-190v-168q0 -98 33 -121t178 -23v-65q-201 0 -295 4q-98 -4 -319 -4zM641 506v659l-442 -659h442z" />
    <glyph glyph-name="five" unicode="5" horiz-adv-x="1138" 
d="M297 1120v-385q96 102 276 103q393 0 394 -435q0 -209 -114 -317t-314 -106q-199 0 -297 66t-107 214q0 27 2 41q3 15 17 29t43 14h49q46 0 53 -20q8 -20 8 -64q2 -117 54 -166t171 -49q129 10 184 120q54 110 50 238q0 344 -258 345q-156 0 -219 -148l-84 8q0 146 6 287
q0 162 -16 385h714q21 -11 -39 -131l-28 -29h-545z" />
    <glyph glyph-name="six" unicode="6" horiz-adv-x="1138" 
d="M582 748q-150 0 -208 -83t-58 -235t20 -216t48 -96q62 -71 200 -73q236 -1 236 351t-238 352zM415 1167q-42 -38 -77 -152q-21 -76 -21 -284v-20q76 61 142 88t155 26q406 0 406 -407q0 -219 -123 -329t-344 -109q-267 0 -355 164q-32 58 -56 132t-27 187q-2 112 -2 216
q0 353 130 499q113 124 341 122q342 0 354 -278q0 -14 -18 -24t-43 -5h-62q-23 5 -33 21t-4 37q-2 5 -8 33q-19 88 -59 113q-52 32 -141 32q-88 0 -155 -62z" />
    <glyph glyph-name="seven" unicode="7" horiz-adv-x="1138" 
d="M1018 1280v-109q-162 -225 -295 -485t-313 -686h-201q199 382 309 558q109 175 201 315t155 245h-460q-94 0 -119 -22q-37 -33 -37 -183h-68v367h828z" />
    <glyph glyph-name="eight" unicode="8" horiz-adv-x="1138" 
d="M563 -20q-207 0 -327 93t-121 292q0 283 278 346q-225 86 -225 293q0 150 115 224t281 72q166 0 280 -74q115 -74 114 -222q0 -207 -225 -293q279 -63 279 -346q0 -199 -121 -292t-328 -93zM559 1235q-203 0 -203 -238q-6 -117 46 -185t161 -67q109 2 161 70t46 182
q0 238 -211 238zM563 666h-6q-244 0 -244 -322q0 -297 244 -297q250 0 250 297q0 322 -244 322z" />
    <glyph glyph-name="nine" unicode="9" horiz-adv-x="1138" 
d="M317 868q0 -342 240 -342q169 0 222 110q44 91 44 252t-55 251t-201 90q-176 0 -224 -159q-26 -87 -26 -202zM439 70q42 -26 127 -25q85 0 139 47t70 94q15 48 23 76q20 66 21 299l-6 4q-71 -65 -143 -91t-174 -25q-184 0 -281 110q-96 111 -96 313t123 316
q123 113 344 112q160 0 273 -76q80 -56 127 -197q30 -87 34 -204t2 -229t-12 -200q-24 -216 -125 -307q-120 -109 -359 -107q-129 0 -227 64t-94 165q-2 35 12 55t37 21h57q37 -6 45 -37q6 -12 14 -53t17 -70q10 -29 52 -55z" />
    <glyph glyph-name="colon" unicode=":" horiz-adv-x="569" 
d="M299 952q53 0 84 -38t31 -97t-31 -97t-84 -38t-84 38t-31 97t31 97t84 38zM299 250q53 0 84 -38t31 -97t-31 -97t-84 -38t-84 38t-31 96q0 60 31 98t84 38z" />
    <glyph glyph-name="semicolon" unicode=";" horiz-adv-x="569" 
d="M299 682q-53 0 -84 38t-31 97t31 97t84 38t84 -38t31 -97t-31 -97t-84 -38zM184 116q0 62 35 98t89 36t87 -55t33 -111q0 -127 -60 -210q-61 -82 -182 -148l-32 55q68 25 122 89t52 130q-59 -10 -102 22q-42 32 -42 94z" />
    <glyph glyph-name="less" unicode="&#x3c;" horiz-adv-x="1241" 
d="M1143 111v-127l-1043 479v110l1043 480v-127l-877 -408z" />
    <glyph glyph-name="equal" unicode="=" horiz-adv-x="1241" 
d="M1137 383v-129h-1033v129h1033zM1137 782v-129h-1033v129h1033z" />
    <glyph glyph-name="greater" unicode="&#x3e;" horiz-adv-x="1241" 
d="M98 111l877 407l-877 408v127l1043 -480v-110l-1043 -479v127z" />
    <glyph glyph-name="question" unicode="?" horiz-adv-x="909" 
d="M432 -20q-53 0 -84 38t-31 96q0 60 31 98t84 38t84 -38t31 -97t-31 -97t-84 -38zM431 391q-34 0 -42 90l-41 434q152 -11 218 47t67 207q0 89 -46 151t-134 62q-113 -6 -153 -68t-46 -192q-2 -22 -68 -22t-74 11q-7 11 -8 38q0 147 104 221t255 74q152 0 253 -72
t101 -215q3 -115 -69 -194t-211 -91l-62 -397q-10 -84 -44 -84z" />
    <glyph glyph-name="at" unicode="@" horiz-adv-x="1529" 
d="M1067 354q100 0 209 151q108 151 108 351t-155 342q-157 143 -421 143t-450 -178t-186 -454q0 -275 192 -451t476 -176q160 0 294 77t224 212h125q-95 -179 -273 -285t-381 -106q-321 0 -545 202t-224 515q0 311 215 529q216 218 538 218q272 0 476 -163t204 -421
q0 -223 -155 -394t-322 -171q-72 0 -112 50t-44 122q-45 -57 -73 -86q-73 -76 -185 -76q-110 0 -188 85t-78 212q0 172 134 318t308 145q76 0 122 -42t58 -114h5l34 135h181l-158 -573q-33 -117 47 -117zM518 544q0 -76 30 -130t104 -54q75 0 143 98t97 211q30 112 30 178
q0 67 -27 115t-82 48q-84 0 -155 -89q-72 -89 -106 -195t-34 -182z" />
    <glyph glyph-name="A" unicode="A" horiz-adv-x="1593" 
d="M965 682l-213 547l-226 -547h439zM979 70h19q98 0 140 40q19 17 19 43t-33 109l-133 342h-491l-127 -354q-32 -106 -4 -143t155 -37v-74l-241 4l-242 -4v74q12 2 55 4t65 21q23 19 35 35t103 214l440 1069h135l431 -1124q47 -125 100 -177t137 -46v-70l-280 4l-283 -4v74
z" />
    <glyph glyph-name="B" unicode="B" horiz-adv-x="1366" 
d="M883 748q327 -34 327 -332q0 -146 -38 -227t-136 -132t-377 -61l-309 4l-289 -4v70q99 0 155 16q33 9 40 65q2 16 2 58v1003q0 113 -42 123q-57 15 -155 17v69l289 -4l359 4q291 0 375 -86q89 -86 88 -245q-2 -158 -72 -234t-217 -100v-4zM442 782h279q129 0 187 70
t58 224t-65 209q-66 54 -242 54q-37 0 -217 -10v-547zM442 705v-621l111 -6q193 0 295 28q156 39 156 293q0 176 -74 241t-250 65h-238z" />
    <glyph glyph-name="C" unicode="C" horiz-adv-x="1366" 
d="M1280 424v-363q-61 -33 -257 -57t-288 -24q-360 0 -512 182t-151 555q0 373 169 550t537 177q229 0 502 -80v-330h-111l-6 60q-20 166 -103 220t-282 54q-494 0 -493 -616q0 -406 138 -564q54 -61 146 -100t215 -39q123 1 192 17q128 31 163 176q14 61 24 182h117z" />
    <glyph glyph-name="D" unicode="D" horiz-adv-x="1478" 
d="M35 66q98 0 154 16q33 9 40 65q2 16 2 58v1003q0 113 -42 123q-56 15 -154 17v69l289 -4l446 4q289 4 420 -106q186 -154 186 -578q0 -197 -26 -325q-57 -274 -288 -359q-122 -45 -310 -53l-428 4l-289 -4v70zM623 80q319 0 431 126t112 455t-48 447q-47 119 -132 167
q-114 64 -273 64q-158 0 -297 -16v-1235q106 -8 207 -8z" />
    <glyph glyph-name="E" unicode="E" horiz-adv-x="1251" 
d="M31 0v70q98 0 154 16q42 11 42 123v999q0 113 -42 123q-56 15 -154 17v69h1112v-360h-109q-10 212 -46 240q-13 11 -47 25t-73 16q-39 1 -110 1h-346v-565h159q143 0 180 33q36 33 35 178h91v-491h-91q-4 31 -8 85q-7 95 -53 110t-154 16h-159v-617h366q156 2 195 55
t61 275h109v-418h-1112z" />
    <glyph glyph-name="F" unicode="F" horiz-adv-x="1251" 
d="M61 66q99 0 155 16q33 9 40 65q2 16 2 58v999q0 112 -42 123q-59 16 -155 16v70h1113v-360h-109q-10 210 -46 240q-13 11 -47 25t-73 16q-39 1 -111 1h-346v-565h160q143 0 179 33t36 178h90v-492h-90q-4 31 -7 71t-5 56q-7 55 -44 67q-53 17 -159 17h-160v-495
q0 -111 42 -123q57 -16 155 -16v-70l-289 4l-289 -4v70z" />
    <glyph glyph-name="G" unicode="G" horiz-adv-x="1478" 
d="M1294 342v-190q0 -55 9 -82q-276 -90 -562 -90q-358 0 -512 178q-153 178 -153 546t169 550q169 181 548 190q227 0 501 -80v-330h-120q-16 210 -90 272t-291 62q-299 8 -409 -204q-97 -188 -96 -477q0 -289 104 -461t409 -173q172 0 309 80v209q0 57 -3 79t-30 40
t-69 20t-144 2v70q234 0 340 -4q188 0 250 4v-68q-112 -5 -136 -31t-24 -112z" />
    <glyph glyph-name="H" unicode="H" horiz-adv-x="1593" 
d="M965 66q127 0 161 22t35 117v500h-731v-500q0 -96 35 -118t162 -21v-70l-289 4l-289 -4v70q127 0 162 22t35 117v1003q0 96 -35 118t-162 22v69l289 -4l289 4v-69q-123 0 -160 -22t-37 -118v-420h731v420q0 96 -37 118t-159 22v69l288 -4l289 4v-69q-127 0 -162 -22
t-34 -118v-1003q0 -96 34 -118t162 -21v-70l-289 4l-288 -4v70z" />
    <glyph glyph-name="I" unicode="I" 
d="M53 66q127 0 162 22t35 117v1003q0 96 -35 118t-162 22v69l289 -4l289 4v-69q-123 0 -160 -22t-37 -118v-1003q0 -96 35 -118t162 -21v-70l-289 4l-289 -4v70z" />
    <glyph glyph-name="J" unicode="J" 
d="M649 1348q-123 0 -159 -22t-37 -118v-983q0 -575 -480 -639v43q139 41 202 135q64 94 78 209q15 115 15 248v987q0 96 -35 118t-161 22v69l288 -4l289 4v-69z" />
    <glyph glyph-name="K" unicode="K" horiz-adv-x="1478" 
d="M643 1348q-123 0 -160 -22t-37 -118v-458q4 0 609 579q20 39 -23 47v41q123 0 187 -4l184 4v-59q-127 -10 -183 -39t-163 -125l-428 -397q51 -53 255 -271t278 -291t96 -97t56 -43q64 -36 138 -29v-70l-170 4l-170 -4l-25 33q-256 311 -641 673v-497q0 -96 35 -118
t162 -21v-70l-289 4l-288 -4v70q128 0 162 22t34 117v1003q0 96 -35 118t-161 22v69l288 -4l289 4v-69z" />
    <glyph glyph-name="L" unicode="L" horiz-adv-x="1251" 
d="M643 1348q-168 0 -187 -51q-9 -24 -10 -89v-1124h363q156 2 195 55t61 277h109v-416h-1108v66q98 0 154 16q33 9 40 65q2 16 2 58v1003q0 113 -42 123q-56 15 -154 17v69l288 -4l289 4v-69z" />
    <glyph glyph-name="M" unicode="M" horiz-adv-x="1933" 
d="M1307 66q127 0 161 22t35 117v983h-4l-555 -1186q-8 -16 -23 -17t-24 15l-555 1165h-4v-960q0 -94 35 -117t153 -22v-70l-239 4l-240 -4v70q119 0 154 22t35 117v1003q0 94 -36 117t-153 23v69l182 -4l183 4l557 -1141l547 1141l184 -4l184 4v-69q-123 0 -160 -22
t-36 -118v-1003q0 -96 34 -118t162 -21v-70l-289 4l-288 -4v70z" />
    <glyph glyph-name="N" unicode="N" horiz-adv-x="1593" 
d="M43 66q119 0 154 22q34 23 34 117v1003q0 94 -35 117q-36 23 -153 23v69l176 -4l174 4l877 -1171v962q0 94 -35 117t-154 23v69l234 -4l233 4v-69q-116 0 -146 -23t-30 -117v-1208h-133l-905 1196v-991q0 -94 35 -117t153 -22v-70l-239 4l-240 -4v70z" />
    <glyph glyph-name="O" unicode="O" horiz-adv-x="1593" 
d="M791 1372q-119 0 -209 -37t-142 -95q-140 -155 -141 -527q0 -143 19 -251q72 -411 472 -411q294 0 402 205q90 173 90 442q0 128 -11 216t-44 178t-85 148t-142 95t-209 37zM791 -20q-391 0 -546 168t-155 564t154 564t547 168t547 -168t153 -563q0 -201 -31 -333
q-66 -279 -325 -360q-135 -40 -344 -40z" />
    <glyph glyph-name="P" unicode="P" horiz-adv-x="1251" 
d="M420 1343v-643h100q283 0 359 79q75 79 73 243q0 112 -17 176t-63 96t-100 41q-53 8 -151 8h-201zM1157 1059q0 -278 -153 -361q-80 -43 -168 -56t-228 -13h-188v-424q0 -112 42 -123q59 -16 154 -16v-70l-288 4l-289 -4v70q96 0 155 16q31 9 39 65q2 16 3 58v1003
q0 113 -42 123q-56 15 -155 17v69l289 -4l424 4q207 4 306 -75t99 -283z" />
    <glyph glyph-name="Q" unicode="Q" horiz-adv-x="1593" 
d="M780 1444q188 0 304 -29q272 -68 359 -331q48 -148 49 -357q3 -546 -309 -690q-81 -37 -173 -41v-4q34 -16 158 -91q310 -188 384 -190q25 0 113 25l27 -43l-234 -115q-127 48 -357 194t-360 195q-68 24 -172 -64q-51 -44 -53 -46l-24 -25l-46 41q39 39 123 121
q-266 31 -371 215q-106 183 -108 429q-2 245 31 386t116 239q154 181 543 181zM297 762q0 -129 10 -223q29 -273 156 -385q78 -70 196 -93q74 37 115 37t123 -37q179 20 263 141q84 120 103 256t19 308q-12 252 -106 429q-95 177 -363 177q-272 10 -394 -159t-122 -451z" />
    <glyph glyph-name="R" unicode="R" horiz-adv-x="1366" 
d="M524 774q266 0 348 71t81 227q-1 155 -68 213q-68 58 -232 58l-231 -6v-559q22 -4 102 -4zM422 709v-504q0 -112 42 -123q59 -16 154 -16v-70l-288 4l-289 -4v70q96 0 155 16q29 8 40 65q2 16 2 58v1003q0 113 -42 123q-56 15 -155 17v69l289 -4l387 4q285 0 364 -78
t79 -246q-1 -167 -94 -251t-269 -105q47 -78 196 -299t220 -308q13 -15 53 -38t92 -26v-70l-148 4l-149 -4q-420 674 -490 698q-43 15 -149 15z" />
    <glyph glyph-name="S" unicode="S" horiz-adv-x="1251" 
d="M1130 401q0 -239 -175 -336q-153 -85 -393 -85q-239 0 -435 88v370h137q2 -29 6 -105t17 -125q12 -48 32 -70q19 -22 55 -46q66 -43 219 -43t253 72t100 215q0 76 -36 140q-13 26 -45 52t-49 39q-17 14 -79 41t-120 45q-210 67 -322 149q-111 82 -111 263t134 280t339 99
t416 -78v-336h-115q-13 149 -24 191q-12 43 -32 63t-49 42q-55 40 -191 40t-218 -61t-82 -191q0 -163 166 -233l236 -84q176 -63 271 -149t95 -247z" />
    <glyph glyph-name="T" unicode="T" horiz-adv-x="1366" 
d="M381 -4v70q133 0 170 22t37 117v1130h-88q-209 2 -255 -35t-77 -247h-102v360h1228v-360h-102q-33 213 -77 249t-257 33h-86v-1130q0 -96 37 -118t170 -21v-70q-201 0 -299 4q-98 -4 -299 -4z" />
    <glyph glyph-name="U" unicode="U" horiz-adv-x="1593" 
d="M627 1348q-95 0 -155 -17q-33 -9 -40 -65q-2 -17 -2 -58v-747q-4 -207 90 -307t312 -100t326 102t108 336v716q0 70 -10 94t-55 34q-44 10 -157 12v69l254 -4l254 4v-69q-164 0 -178 -54q-6 -23 -6 -86v-714q0 -287 -150 -401t-460 -113q-512 0 -512 458v770q0 63 -6 86
q-14 52 -181 54v69q90 -4 279 -4l289 4v-69z" />
    <glyph glyph-name="V" unicode="V" horiz-adv-x="1478" 
d="M33 1352v65l286 -4l287 4v-65q-12 -2 -41 -4q-53 -4 -91 -14t-39 -47q-1 -36 20 -99l352 -983l344 983q31 120 -38 142q-29 9 -69 15q-39 5 -45 7v65l224 -4l223 4v-65q-90 -20 -118 -47t-56 -117l-461 -1188h-137l-445 1188q-43 112 -75 138t-121 26z" />
    <glyph glyph-name="W" unicode="W" horiz-adv-x="2048" 
d="M561 1352q-5 0 -27 -3t-30 -4q-84 -10 -84 -73q0 -33 14 -84l228 -979h4l321 1204h195l303 -1200h4l244 975q30 119 -38 142q-29 9 -69 15q-39 5 -45 7v65l213 -4l213 4v-65q-88 -4 -108 -27q-19 -23 -23 -39t-10 -47t-13 -51l-342 -1188h-159l-324 1249h-4l-338 -1249
h-160l-317 1188q-33 108 -65 136t-113 28v65l266 -4l264 4v-65z" />
    <glyph glyph-name="X" unicode="X" horiz-adv-x="1478" 
d="M664 1352h-27q-83 0 -101 -8t-34 -17q-16 -8 -16 -21t1 -32q14 -39 62 -100l219 -322l260 397q23 33 12 58q-18 45 -155 45v65l252 -4l252 4v-65q-70 -5 -95 -15t-39 -15t-32 -20q-19 -16 -27 -22t-28 -30l-25 -30q-6 -6 -30 -39q-24 -32 -32 -42l-264 -351l416 -589
q39 -55 57 -75q44 -50 150 -58v-70l-283 4l-283 -4v70q95 11 126 24q32 13 32 35q-2 45 -63 133l-273 383l-299 -461q-29 -39 -16 -63q14 -35 160 -51v-70l-254 4l-256 -4v70q88 8 127 25t80 73l415 549l-284 409q-12 16 -42 60q-80 118 -121 138q-65 30 -134 32v65l297 -4
l295 4v-65z" />
    <glyph glyph-name="Y" unicode="Y" horiz-adv-x="1478" 
d="M440 -4v70q135 0 172 22t37 117v323q0 63 -8 90t-43 80l-195 310q-25 38 -65 102q-103 168 -155 198q-66 36 -140 44v65l303 -4l301 4v-65q-137 0 -161 -41q-9 -13 -10 -27t-2 -19t4 -17t15 -26q9 -13 11 -16l309 -510l281 492q39 57 36 94q0 70 -145 70v65l221 -4l221 4
v-65q-107 -11 -160 -79q-30 -38 -61 -91q-31 -52 -43 -72l-286 -455q-43 -68 -43 -135v-315q0 -96 36 -118t172 -21v-70q-201 0 -301 4q-98 -4 -301 -4z" />
    <glyph glyph-name="Z" unicode="Z" horiz-adv-x="1366" 
d="M911 86q107 0 140 18t50 40q17 21 27 89q9 67 13 117t6 66h129v-416h-1210v41l929 1288h-479q-91 0 -123 -9q-31 -9 -46 -14q-54 -18 -68 -130q-3 -16 -9 -58t-10 -67h-108v362h1089v-41l-938 -1286h608z" />
    <glyph glyph-name="bracketleft" unicode="[" 
d="M213 -256v1782h369v-68h-222v-1646h222v-68h-369z" />
    <glyph glyph-name="backslash" unicode="\" horiz-adv-x="1241" 
d="M166 1526h147l772 -1546h-147z" />
    <glyph glyph-name="bracketright" unicode="]" 
d="M324 -188v1646h-222v68h369v-1782h-369v68h222z" />
    <glyph glyph-name="asciicircum" unicode="^" horiz-adv-x="1241" 
d="M248 582h-144l449 831h135l447 -831h-144l-370 667z" />
    <glyph glyph-name="underscore" unicode="_" horiz-adv-x="1024" 
d="M1024 -295h-1024v78h1024v-78z" />
    <glyph glyph-name="grave" unicode="`" 
d="M498 1073h-95l-321 213q-49 27 -53 67t22 56q16 31 54 33t83 -45z" />
    <glyph glyph-name="a" unicode="a" horiz-adv-x="1024" 
d="M664 750q0 154 -191 153q-121 0 -154 -45t-32 -153q0 -53 -88 -54q-78 2 -64 105q27 217 363 217q184 0 259 -72t74 -250v-446q0 -94 26 -116t136 -28v-65q-46 4 -162 4l-159 -4v82q-106 -96 -264 -96t-240 64t-82 228q0 163 118 217t273 54l187 -2v207zM664 475h-113
q-136 1 -193 -25t-76 -70t-20 -116q0 -207 176 -207q131 0 178 49t48 173v196z" />
    <glyph glyph-name="b" unicode="b" horiz-adv-x="1138" 
d="M334 584v-174q0 -226 61 -294q61 -67 195 -69q270 0 270 410q0 224 -39 310t-111 115q-46 17 -108 17q-268 0 -268 -315zM338 1526v-668q113 115 293 115q227 0 319 -115t92 -352q0 -526 -393 -526q-209 0 -307 67l-172 -67v1335q0 96 -28 119t-154 26v66h350z" />
    <glyph glyph-name="c" unicode="c" horiz-adv-x="1024" 
d="M918 299v-240q-158 -79 -394 -79t-334 119q-96 120 -96 377t104 377t353 120q100 0 208 -22t159 -72v-217h-107q-2 12 -5 51q-9 119 -67 156q-58 38 -158 38q-198 0 -257 -131q-68 -154 -43 -428q10 -142 76 -222q66 -81 223 -81q81 0 111 12q30 13 46 19t28 24
q11 18 22 34t18 84q8 67 10 81h103z" />
    <glyph glyph-name="d" unicode="d" horiz-adv-x="1251" 
d="M534 -20q-196 0 -303 121q-106 122 -106 335q0 537 428 537q176 0 295 -113v455q0 96 -28 119t-154 26v66h350v-1319q0 -94 28 -120t154 -26v-65l-182 4l-168 -4v121q-118 -137 -314 -137zM844 379v139q0 237 -65 309t-201 72t-191 -79q-29 -40 -46 -78q-34 -76 -34 -310
q0 -138 54 -254q28 -57 83 -92t129 -35q147 0 209 86t62 242z" />
    <glyph glyph-name="e" unicode="e" horiz-adv-x="1024" 
d="M281 473q0 -174 15 -225q14 -52 34 -90q57 -110 213 -109q97 0 138 32q24 17 40 31q34 31 56 137q7 34 9 42q0 33 66 33t68 -35q-45 -309 -406 -309q-250 0 -339 160q-77 138 -79 390q0 211 116 327t325 116q424 0 399 -500h-655zM281 543h469q20 365 -234 364
q-243 1 -235 -364z" />
    <glyph glyph-name="f" unicode="f" 
d="M795 1314q1 -12 -5 -22t-11 -10t-12 -4t-17 0h-74q-33 -6 -39 20t2 45v15q0 69 -44 95q-19 11 -51 9q-63 -4 -91 -47q-25 -33 -25 -72v-391h248v-78h-248v-671q0 -94 31 -118t166 -24v-65q-187 0 -281 4q-176 0 -266 -4v65q54 -1 70 3t35 6t23 5t18 7q13 4 16 11
q2 7 9 17t7 24l4 69v671h-176v78h176v252q0 146 77 234t224 88q101 0 161 -39t73 -135v-38z" />
    <glyph glyph-name="g" unicode="g" horiz-adv-x="1024" 
d="M41 -246q0 84 38 140t120 106q-88 164 -2 385q-109 102 -109 257t109 243t257 88t259 -35l217 25l24 -5l4 -88l-172 7q84 -102 84 -240q0 -172 -120 -254t-301 -82q-150 12 -201 49q-33 -94 -7 -157t107 -62l254 12q174 0 268 -59t95 -223q0 -117 -76 -205
q-145 -168 -402 -168q-156 0 -283 46q-73 26 -118 81t-45 139zM478 371q218 0 218 267t-218 267t-218 -267t218 -267zM484 -444q98 0 184 43t132 123t-1 190q-23 37 -64 55q-41 19 -75 21t-85 0h-317q-98 -158 -74 -258q29 -92 115 -133q87 -41 185 -41z" />
    <glyph glyph-name="h" unicode="h" horiz-adv-x="1251" 
d="M225 1315q0 92 -29 119q-30 27 -153 26v66h352v-692h4q92 129 332 139q181 0 237 -82t56 -270v-414q0 -94 29 -120t153 -26v-65q-90 4 -266 4t-266 -4v65q58 -1 72 3t34 6t24 5t18 8q13 5 15 12q1 7 8 17t7 24l4 71v362q0 127 -12 179t-34 76q-52 58 -179 58
q-127 1 -182 -77t-56 -225v-373q0 -94 29 -120t153 -26v-65q-90 4 -266 4t-266 -4v65q58 -1 72 3q15 4 35 6t24 5t17 8t15 12q1 7 8 17t7 24l4 71v1108z" />
    <glyph glyph-name="i" unicode="i" 
d="M332 1174q-53 0 -84 38t-31 96q0 60 31 98t84 38t84 -38q30 -38 30 -97t-30 -98q-31 -37 -84 -37zM424 952v-747q0 -92 29 -118t153 -26v-65q-176 4 -266 4t-266 -4v65q126 0 154 26t28 118v538q0 95 -27 115t-155 31v63h350z" />
    <glyph glyph-name="j" unicode="j" horiz-adv-x="569" 
d="M291 1174q-53 0 -84 38t-31 96q0 60 31 98t84 38t84 -38t31 -97t-31 -97t-84 -38zM231 743q0 96 -27 118q-28 22 -155 26v65h350v-936q0 -250 -83 -376t-314 -152v35q112 33 155 94q26 37 39 66q29 65 35 366v694z" />
    <glyph glyph-name="k" unicode="k" horiz-adv-x="1138" 
d="M312 0q-176 0 -267 -4v65q125 2 154 29t28 115v1112q0 96 -27 118q-28 22 -155 25v66h350v-975q220 189 273 291q41 76 34 110h342v-55q-104 0 -179 -28t-229 -187q-60 -61 -93 -94l278 -301q137 -147 191 -185t123 -39v-67l-150 4l-149 -4q-272 342 -441 487v-278
q0 -92 29 -118t154 -26v-65q-90 4 -266 4z" />
    <glyph glyph-name="l" unicode="l" 
d="M258 203v1116q0 92 -29 117t-153 24v66h350v-1321q0 -92 29 -118t153 -26v-65q-176 4 -266 4t-266 -4v65q126 0 154 25t28 117z" />
    <glyph glyph-name="m" unicode="m" horiz-adv-x="1820" 
d="M307 0q-176 0 -262 -4v65q119 0 150 29t28 117v541q1 96 -27 118t-151 27v59h336v-114q133 135 326 135q93 0 157 -30t113 -124q119 154 330 154q161 0 225 -70t63 -227v-469q0 -94 28 -120t149 -26v-65q-82 4 -260 4t-250 -4v65q108 2 138 30t27 116v426q1 121 -37 185
t-163 65q-125 0 -179 -72t-55 -213v-391q0 -90 27 -118t135 -28v-65q-69 4 -245 4t-248 -4v65q110 2 138 31t25 115v403q0 177 -44 227t-146 48q-147 -6 -195 -79t-49 -222v-377q0 -90 27 -118t139 -28v-65q-74 4 -250 4z" />
    <glyph glyph-name="n" unicode="n" horiz-adv-x="1251" 
d="M229 745q0 98 -27 120q-28 22 -155 26v61h340v-114q98 80 164 108t180 27q181 0 237 -82t56 -270v-414q0 -92 28 -119t150 -27v-65q-86 4 -263 4t-259 -4v65q121 8 141 23q35 25 35 123v362q0 205 -50 259t-177 54q-127 1 -179 -75t-53 -227v-373q0 -92 28 -119t146 -27
v-65q-82 4 -258 4t-266 -4v65q58 -1 72 3q15 4 35 6t24 5t18 8t14 12q1 7 8 17t7 24l4 71v538z" />
    <glyph glyph-name="o" unicode="o" horiz-adv-x="1138" 
d="M289 477q0 -78 3 -127q9 -143 70 -222t206 -79t214 86q68 86 68 341t-67 341t-214 86q-146 0 -215 -88q-53 -68 -62 -211q-3 -49 -3 -127zM569 973q240 0 353 -121q112 -121 112 -372t-105 -375q-105 -123 -359 -123t-360 124t-106 374q0 251 112 372t353 121z" />
    <glyph glyph-name="p" unicode="p" horiz-adv-x="1251" 
d="M242 -307v1050q0 92 -29 118t-152 26v65h340v-123q94 143 322 144q401 0 401 -481q0 -254 -106 -383t-352 -129q-131 0 -256 104v-391q0 -98 36 -121t175 -23v-65q-199 0 -293 4q-175 0 -267 -4v65q123 8 144 19q37 27 37 125zM410 649v-364q0 -106 67 -168
q68 -61 156 -61t138 14q77 24 123 108t46 311q0 298 -129 373q-57 33 -161 33q-104 -1 -172 -67t-68 -179z" />
    <glyph glyph-name="q" unicode="q" horiz-adv-x="1138" 
d="M524 895q-70 0 -120 -30q-50 -29 -76 -69q-45 -69 -57 -219q-3 -48 -3 -123q0 -285 115 -363q53 -36 135 -36q152 1 208 71t60 224v316q-8 229 -262 229zM82 459q0 514 426 514q84 -1 114 -11t40 -13t28 -11t28 -11t31 -13q22 -10 31 -15l174 74v-1280q0 -92 29 -118
t154 -26v-65q-90 4 -266 4q-177 0 -267 -4v65q54 -1 70 3t36 6t24 5q6 3 18 8t14 12t9 17t7 23l4 70v399q-112 -112 -314 -112t-296 135t-94 344z" />
    <glyph glyph-name="r" unicode="r" horiz-adv-x="796" 
d="M693 692q-85 0 -85 66l-2 33q-6 86 -86 86q-139 0 -139 -246v-424q0 -98 31 -122t170 -24v-65q-191 0 -285 4q-176 0 -266 -4v65q123 2 153 27t29 119v538q0 98 -28 120t-154 26v61h340v-100q88 121 207 121q84 0 134 -44t50 -128l-2 -41q0 -21 -8 -37t-14 -18
q-6 -1 -15 -7t-30 -6z" />
    <glyph glyph-name="s" unicode="s" horiz-adv-x="909" 
d="M102 309h107q2 -18 5 -62q3 -45 5 -65t14 -52q32 -85 180 -85q95 0 166 47t71 137t-78 129q-70 39 -158 59q-88 21 -125 35q-110 43 -144 111q-20 43 -20 103q0 162 102 234t261 73q159 0 268 -51v-246h-109q-2 14 -5 52t-4 48t-6 37t-12 34q-8 7 -20 22q-28 34 -137 32
t-148 -44t-39 -136q0 -39 33 -77t75 -52t101 -30t95 -25q101 -28 160 -86q59 -57 60 -159q2 -201 -151 -261q-127 -51 -286 -51t-261 57v272z" />
    <glyph glyph-name="t" unicode="t" 
d="M598 874h-231v-589q0 -168 62 -207t171 2l35 16l24 -57q-119 -59 -241 -59q-169 0 -203 133q-16 63 -16 182v579h-160v78h160v277l168 71v-348h231v-78z" />
    <glyph glyph-name="u" unicode="u" horiz-adv-x="1251" 
d="M221 238v510q-1 92 -29 118t-153 25v61h350v-606q0 -72 5 -114q4 -42 24 -85q37 -81 174 -81q136 0 195 65t59 285v332q0 90 -28 116t-144 27v61h340v-747q0 -92 28 -118t154 -26v-65q-122 0 -184 4l-166 -4v119q-45 -59 -141 -97t-177 -38q-150 0 -228 57t-79 201z" />
    <glyph glyph-name="v" unicode="v" horiz-adv-x="1138" 
d="M29 895v61q41 -2 122 -2h243q81 0 122 2v-61q-95 -1 -122 -17t-29 -31t6 -44l241 -672l226 645q40 90 -36 111q-35 8 -85 8v61q33 -2 112 -2h159q79 0 110 2v-61q-84 -4 -116 -41t-81 -156l-272 -698h-144l-260 709q-8 18 -33 86t-47 75l-28 14t-88 11z" />
    <glyph glyph-name="w" unicode="w" horiz-adv-x="1705" 
d="M1274 956q33 -2 116 -2h165q82 0 114 2v-63q-92 -12 -121 -42t-63 -130l-250 -721h-148l-227 770l-264 -770h-152l-157 524q-80 264 -106 307t-87 54q-10 0 -61 6v65q41 -2 122 -2h242q82 0 121 2v-63q-84 -4 -110 -16q-26 -11 -26 -53q-1 -42 44 -210l145 -462l271 800
h143l234 -809l188 631q22 76 -16 96q-23 12 -66 16t-51 7v63z" />
    <glyph glyph-name="x" unicode="x" horiz-adv-x="1138" 
d="M39 956q33 -2 117 -2h167q83 0 117 2v-65q-18 0 -30 -13t0 -28l194 -250l92 127q58 78 80 117t-37 47v65q29 -2 82 -2h164q55 0 82 2v-65q-141 2 -227 -109l-195 -243l264 -346q37 -49 55 -69q49 -54 138 -63v-65l-187 4l-186 -4v61q76 4 8 78l-192 262l-213 -270
q-45 -53 16 -66v-65l-164 4l-164 -4v65q18 2 78 8t71 16q11 9 29 20t30 27q13 16 36 40l236 289l-203 264q-28 35 -55 70q-53 68 -103 82t-100 14v65z" />
    <glyph glyph-name="y" unicode="y" horiz-adv-x="1138" 
d="M82 895h-49v61q41 -2 122 -2h242q82 0 121 2v-61q-41 0 -74 -9q-34 -9 -46 -24t-1 -59l242 -668l225 641q28 64 0 89q-8 7 -14 13t-20 8q-14 3 -21 5q-16 4 -41 4h-45v61q31 -2 109 -2h157q78 0 109 2v-61q-70 -6 -99 -44t-71 -151l-273 -694q-115 -344 -206 -430
q-35 -32 -91 -60t-118 -28q-145 0 -166 117q-4 18 3 41t19 30q31 25 63 16q32 -10 50 -28q59 -61 96 -68q70 -15 120 53t80 144q30 77 49 137t24 70h-66l-260 709q-51 136 -67 147q-5 4 -17 15t-22 13t-27 6q-17 5 -37 5z" />
    <glyph glyph-name="z" unicode="z" horiz-adv-x="1024" 
d="M946 952v-61l-647 -813h410q65 0 95 47t38 174h104v-299h-870v63l637 811h-373q-29 0 -53 -17t-33 -90q-10 -74 -10 -103h-107v288h809z" />
    <glyph glyph-name="braceleft" unicode="{" 
d="M422 346v-344q0 -111 39 -173t131 -81v-4q-178 -4 -248 60t-70 253v334q0 111 -29 162q-30 51 -126 78q92 29 124 82t31 155v369q0 174 75 231t243 58v-4q-96 -23 -133 -82t-37 -174v-365q0 -121 -33 -181t-133 -87v-4q102 -27 134 -91t32 -192z" />
    <glyph glyph-name="bar" unicode="|" horiz-adv-x="1241" 
d="M553 -20v1546h135v-1546h-135z" />
    <glyph glyph-name="braceright" unicode="}" 
d="M260 901v365q0 115 -37 174t-133 82v4q168 0 243 -58t75 -231v-369q0 -102 32 -155t123 -82q-96 -27 -126 -78t-29 -162v-334q0 -188 -70 -253t-248 -60v4q92 18 131 80t39 174v344q0 128 32 192t134 91v4q-100 27 -133 87t-33 181z" />
    <glyph glyph-name="asciitilde" unicode="~" horiz-adv-x="1241" 
d="M848 389q-56 -1 -232 71t-219 72q-83 0 -133 -60t-88 -128l-72 82q61 110 127 174t151 64t251 -73q167 -73 225 -73t115 53t92 123l72 -82q-119 -223 -289 -223z" />
    <glyph glyph-name="uni00A0" unicode="&#xa0;" horiz-adv-x="569" 
 />
    <glyph glyph-name="exclamdown" unicode="&#xa1;" 
d="M344 682q-53 0 -84 38t-31 97t31 97t84 38t84 -38t31 -97t-31 -97t-84 -38zM344 -512q-125 0 -111 178l66 746q4 78 45 135q41 -57 45 -135l66 -746q14 -178 -111 -178z" />
    <glyph glyph-name="cent" unicode="&#xa2;" horiz-adv-x="1138" 
d="M152 500q0 233 104 353t352 120q70 0 131 -10l58 186h71l-61 -197q119 -25 168 -73v-217h-107l-8 83q-6 35 -10 51q-12 48 -68 78l-254 -815q46 -14 96 -14t83 3t68 19q36 15 47 33q10 18 18 28t13 38q5 27 7 38t6 46t6 49h103v-240q-140 -80 -377 -79q-53 0 -92 6
l-72 -226h-72l74 238q-160 35 -222 152t-62 350zM606 907q-68 0 -132 -33q-106 -55 -131 -229q-9 -66 -9 -191t26 -222t105 -146l254 811q-45 10 -113 10z" />
    <glyph glyph-name="sterling" unicode="&#xa3;" horiz-adv-x="1138" 
d="M469 707h362v-78h-368q-23 -169 -65 -271t-148 -208q111 12 166 12l436 -21q42 1 64 9q55 21 67 155h64v-280q-102 -41 -197 -41q-96 0 -310 50t-333 50q-33 -33 -83 -67t-81 -31q-47 4 -51 53q0 33 22 55q27 37 164 45q106 143 107 490h-234v78h240q8 123 18 199t49 179
q39 102 107 166q121 117 264 117t227 -64t84 -194q8 -72 -59 -72h-33q-57 0 -65 25q-2 6 -9 78q0 158 -145 157q-168 0 -216 -215q-24 -105 -31 -167t-11 -171l-2 -25v-13z" />
    <glyph glyph-name="currency" unicode="&#xa4;" horiz-adv-x="1138" 
d="M572 1044q-142 0 -243 -99t-101 -245t100 -243q102 -99 244 -99t242 102t99 241q0 140 -99 242q-100 101 -242 101zM570 1210q175 0 300 -100l109 109l104 -107l-110 -106q106 -124 106 -302t-102 -301l108 -108l-102 -105l-109 109q-129 -106 -304 -106t-306 106
l-108 -109l-105 105l109 108q-98 133 -98 307t100 291l-111 111l105 107l110 -113q129 104 304 104z" />
    <glyph glyph-name="yen" unicode="&#xa5;" horiz-adv-x="1138" 
d="M330 -4v67q66 -1 98 3t49 23t19 37t2 69v223h-330v78h330q0 68 -6 94t-35 74h-289v77h250l-117 220q-18 33 -75 140t-104 146q-48 38 -110 41v68l242 -4l242 4v-68q-124 -8 -136 -49t48 -143q12 -25 18 -39l203 -393l227 469q88 156 -88 155v68l178 -4l178 4v-68
q-76 0 -110 -38t-64 -110q-32 -72 -39 -81l-172 -318h238v-77h-277l-20 -39q-33 -45 -33 -129h330v-78h-330v-223q0 -53 1 -67q0 -14 16 -37t50 -25t99 -3v-67q-164 0 -242 4q-78 -4 -241 -4z" />
    <glyph glyph-name="brokenbar" unicode="&#xa6;" horiz-adv-x="1241" 
d="M553 1526h135v-617h-135v617zM553 -20v616h135v-616h-135z" />
    <glyph glyph-name="section" unicode="&#xa7;" horiz-adv-x="1138" 
d="M578 1382q-90 0 -152 -62t-61 -163t79 -171t277 -177q73 -41 103 -59t80 -60q91 -77 91 -201q0 -160 -157 -249q82 -80 75 -207q0 -162 -100 -253t-269 -90q-169 2 -258 74t-77 238q0 23 37 31q38 8 72 -5t32 -42q-10 -100 38 -169t152 -69t170 59q64 59 64 147t-32 140
t-99 103l-184 108q-265 132 -307 231q-18 42 -19 91q0 186 174 264q-86 90 -86 207q-6 154 87 249t282 97q131 0 224 -66t95 -209q0 -25 -35 -35q-36 -10 -70 -4q-34 8 -34 31q-14 221 -192 221zM889 435q0 80 -105 148q-16 11 -63 39t-51 29l-195 111q-100 70 -127 84
q-98 -49 -98 -152q0 -50 28 -82t80 -63l304 -178l137 -92q5 6 27 26q22 19 27 27t17 24q19 25 19 79z" />
    <glyph glyph-name="dieresis" unicode="&#xa8;" 
d="M550 1393q44 0 77 -34t33 -77t-34 -76q-32 -32 -75 -32t-77 32t-34 77q0 44 33 77t77 33zM133 1174q-45 0 -77 32t-32 77q0 44 32 77t77 33t77 -33t32 -77q0 -45 -32 -77t-77 -32z" />
    <glyph glyph-name="copyright" unicode="&#xa9;" horiz-adv-x="1529" 
d="M1067 844h-66q-12 88 -62 143t-136 55q-119 0 -181 -91t-62 -233t70 -242q71 -99 193 -99q59 1 115 27t84 75l16 29l54 -23q-37 -92 -129 -140t-199 -48q-172 0 -277 114q-104 115 -104 293t112 294t291 116q140 0 281 -57v-213zM765 1331q-249 0 -426 -183t-177 -438
q0 -254 177 -436t426 -182t427 181t178 437t-178 439q-178 182 -427 182zM764 -20q-297 0 -506 214t-209 517t209 518t507 215t508 -215t210 -518t-211 -517t-508 -214z" />
    <glyph glyph-name="ordfeminine" unicode="&#xaa;" horiz-adv-x="614" 
d="M389 1157v123q0 92 -125 92q-55 6 -95 -24t-26 -95q0 -31 -57 -30q-49 0 -43 59q18 131 238 131q115 0 165 -40t52 -150v-269q0 -53 17 -69t87 -17v-39h-209v50q-71 -57 -173 -59t-158 44q-56 45 -50 127q0 88 53 120q29 17 53 29t68 14q44 3 69 4q24 1 73 0t61 -1z
M12 729h590v-78h-590v78zM389 1116h-74q-188 20 -188 -127q0 -123 115 -123q74 4 114 33t33 98v119z" />
    <glyph glyph-name="guillemotleft" unicode="&#xab;" horiz-adv-x="1138" 
d="M948 98h-80l-313 383v56l313 385h80v-13l-252 -401l252 -397v-13zM588 98h-80l-313 383v56l313 385h80v-13l-252 -401l252 -397v-13z" />
    <glyph glyph-name="logicalnot" unicode="&#xac;" horiz-adv-x="1241" 
d="M1006 229v422h-902v131h1033v-553h-131z" />
    <glyph glyph-name="uni00AD" unicode="&#xad;" 
d="M592 432h-502v152h502v-152z" />
    <glyph glyph-name="registered" unicode="&#xae;" horiz-adv-x="1529" 
d="M670 1022v-277h39q98 0 152 37t54 126t-44 130t-123 37h-43q-35 0 -35 -53zM758 338h-322v43q79 0 84 16q6 16 6 39v586q0 39 -9 48t-48 11h-31v43h314q172 0 240 -41t67 -138q1 -97 -57 -152t-144 -68v-4q62 -12 104 -79t61 -115t25 -57t15 -28q28 -54 88 -61v-43h-141
q-4 2 -12 3t-10 2q-31 10 -42 30q-31 41 -82 159q-50 118 -70 140q-20 21 -94 20h-30v-248q0 -26 6 -38t9 -17q3 -6 25 -6l48 -2v-43zM767 1331q-249 0 -427 -181t-178 -437q0 -257 178 -439t428 -182t426 182t176 438t-177 438q-177 181 -426 181zM767 -20q-298 0 -508 215
t-210 518t211 517t508 214t506 -214t209 -517t-209 -518t-507 -215z" />
    <glyph glyph-name="macron" unicode="&#xaf;" 
d="M55 1155v121h574v-121h-574z" />
    <glyph glyph-name="degree" unicode="&#xb0;" horiz-adv-x="819" 
d="M409 768q93 0 159 66t67 158q0 93 -67 160q-68 67 -160 67t-159 -67t-66 -160q1 -92 67 -158t159 -66zM717 992q0 -126 -90 -216t-217 -90t-217 90q-89 90 -91 216t89 217t219 91t217 -91q90 -91 90 -217z" />
    <glyph glyph-name="plusminus" unicode="&#xb1;" horiz-adv-x="1241" 
d="M1137 0h-1033v131h1033v-131zM555 713v319h131v-319h451v-131h-451v-322h-131v322h-451v131h451z" />
    <glyph glyph-name="twosuperior" unicode="&#xb2;" 
d="M610 520h-538v111l112 110q154 143 206 220t52 149q0 127 -106 127q-56 0 -76 -11q-20 -12 -30 -16t-15 -19l-8 -20q-12 -23 -12 -37v-25q0 -38 -33 -38h-47q-31 -2 -25 77t79 116q73 36 177 36t178 -43t74 -137q0 -62 -45 -129t-100 -115q-56 -48 -102 -86t-54 -47
l-133 -116h254q90 0 101 7t19 9q7 2 11 17q4 14 6 20t4 30t4 31h47v-221z" />
    <glyph glyph-name="threesuperior" unicode="&#xb3;" 
d="M121 1090q-33 0 -29 28q0 182 246 182q108 0 178 -47t70 -143q0 -66 -38 -112t-108 -62v-4q82 -14 125 -66t43 -131q0 -227 -303 -227q-115 0 -172 47t-59 125q0 51 41 51h30q29 0 35 -11q6 -12 6 -28t1 -34q4 -68 53 -88q25 -9 63 -9q92 0 124 42t32 132t-27 128
t-117 38q-9 0 -77 -12v65q37 -4 57 -4q92 6 120 35q27 29 27 110t-22 115t-90 39t-98 -23t-33 -91l-4 -21q1 -12 -9 -19t-24 -5h-41z" />
    <glyph glyph-name="acute" unicode="&#xb4;" 
d="M279 1073h-95l310 324q45 47 83 45t54 -33q27 -16 23 -56t-54 -67z" />
    <glyph glyph-name="mu" unicode="&#xb5;" horiz-adv-x="1251" 
d="M317 -449q-96 0 -96 179v1018q-1 92 -29 118t-153 25v61h350v-606q0 -72 5 -114q4 -42 24 -85q37 -81 174 -81q136 0 195 65t59 285v332q0 90 -28 116t-144 27v61h340v-747q0 -92 28 -118t154 -26v-65q-122 0 -184 4l-166 -4v119q-45 -59 -141 -97q-95 -38 -169 -38
t-155 16l33 -266q18 -94 -16 -136t-81 -43z" />
    <glyph glyph-name="paragraph" unicode="&#xb6;" horiz-adv-x="1286" 
d="M379 1085v-141q1 -124 41 -194t153 -62v655q-117 3 -155 -61t-39 -197zM883 1343h-181v-1566h181v1566zM1012 1343v-1566h131v-78h-727v78h157v852l-73 -6q-182 0 -290 103t-108 307t110 292t411 88h518v-70h-129z" />
    <glyph glyph-name="periodcentered" unicode="&#xb7;" horiz-adv-x="569" 
d="M285 391q-51 0 -90 38t-39 90t39 90t90 38t89 -38t38 -89t-38 -90t-89 -39z" />
    <glyph glyph-name="cedilla" unicode="&#xb8;" horiz-adv-x="1024" 
d="M391 -182l76 182h70l-41 -115q100 21 162 -17t68 -119t-85 -131q-90 -50 -166 -40q-90 0 -176 33l33 61q82 -20 124 -22t78 22t38 73q2 47 -46 65q-47 18 -120 -5z" />
    <glyph glyph-name="onesuperior" unicode="&#xb9;" 
d="M451 1300v-645q-1 -59 21 -71t134 -13v-41q-108 2 -234 2t-227 -2v41q119 1 143 13t23 71v574q-156 -115 -233 -133v67q121 35 246 137h127z" />
    <glyph glyph-name="ordmasculine" unicode="&#xba;" horiz-adv-x="684" 
d="M39 729h606v-78h-606v78zM342 1372q-51 0 -86 -15q-85 -36 -94 -166q-2 -30 -2 -75q0 -151 41 -203t139 -52q97 -1 141 52q43 55 43 204q0 150 -42 202q-42 53 -140 53zM342 1413q156 0 230 -73t73 -221q0 -148 -70 -223q-69 -75 -233 -75t-234 75q-70 76 -69 224
q-1 148 73 220t230 73z" />
    <glyph glyph-name="guillemotright" unicode="&#xbb;" horiz-adv-x="1138" 
d="M180 918h80l313 -381v-58l-313 -385h-80v12l252 402l-252 397v13zM541 918h80l313 -381v-58l-313 -385h-80v12l252 402l-252 397v13z" />
    <glyph glyph-name="onequarter" unicode="&#xbc;" horiz-adv-x="1708" 
d="M444 1300v-645q0 -59 22 -71t134 -13v-41q-108 2 -234 2t-227 -2v41q119 1 143 13t23 71v574q-155 -115 -233 -133v67q121 35 245 137h127zM569 0h-104l795 1300h102zM993 211v70q186 238 367 485h139v-465h137l-12 -90h-125v-90q0 -59 22 -73t115 -13v-39q-94 2 -210 2
t-207 -2v39q106 -2 132 12t21 74v90h-379zM1372 301v371l-268 -371h268z" />
    <glyph glyph-name="onehalf" unicode="&#xbd;" horiz-adv-x="1708" 
d="M1634 0h-538v111l112 110q154 143 206 220t52 149q0 139 -105 139t-128 -67q-14 -42 -14 -52v-21q-1 -24 -9 -31t-24 -7h-47q-31 -2 -25 77q6 80 79 116t177 36t178 -43t74 -137q0 -64 -45 -131q-45 -66 -100 -113q-56 -48 -102 -86t-54 -47l-133 -117h328q16 0 27 8
t19 9q7 2 11 17q4 14 6 20t4 30t4 31h47v-221zM444 1300v-645q0 -59 22 -71t134 -13v-41q-108 2 -234 2t-227 -2v41q119 1 143 13t23 71v574q-155 -115 -233 -133v67q121 35 245 137h127zM569 0h-104l795 1300h102z" />
    <glyph glyph-name="threequarters" unicode="&#xbe;" horiz-adv-x="1708" 
d="M453 1095q0 81 -22 115q-23 34 -91 39t-98 -23t-33 -91l-4 -21q2 -12 -8 -19t-25 -5h-41q-33 0 -29 28q0 182 246 182q108 0 178 -47t70 -143q0 -66 -38 -112t-107 -62v-4q83 -14 125 -66t42 -131q0 -227 -303 -227q-115 0 -172 47t-59 125q0 51 41 51h31q28 0 34 -11
q6 -12 6 -28t2 -34q4 -68 52 -88q25 -9 63 -9q92 0 124 42t32 132t-27 128t-116 38q-10 0 -78 -12v65q37 -4 57 -4q92 6 120 35t28 110zM555 0h-104l794 1300h103zM983 211v70q186 238 367 485h139v-465h137l-12 -90h-125v-90q0 -59 21 -73q22 -13 116 -13v-39q-94 2 -210 2
t-208 -2v39q106 -2 132 12t22 74v90h-379zM1362 301v371l-268 -371h268z" />
    <glyph glyph-name="questiondown" unicode="&#xbf;" horiz-adv-x="909" 
d="M481 952q53 0 84 -38t31 -97t-31 -97t-84 -38t-84 38t-30 97q0 59 30 97q31 38 84 38zM653 -203q0 33 33 33h96q31 0 27 -45q0 -149 -103 -223q-104 -74 -254 -74t-254 73t-104 206t77 205t206 85l59 398q18 84 45 84q33 0 43 -93l39 -432q-147 -4 -192 -28
q-90 -45 -90 -224q0 -96 48 -154t144 -59q170 0 178 228z" />
    <glyph glyph-name="Agrave" unicode="&#xc0;" horiz-adv-x="1593" 
d="M954 1513h-94l-321 213q-49 27 -54 67q-4 40 23 56q16 31 54 33t83 -45zM965 682l-213 547l-226 -547h439zM979 70h19q98 0 140 40q19 17 19 43t-33 109l-133 342h-491l-127 -354q-32 -106 -4 -143t155 -37v-74l-241 4l-242 -4v74q12 2 55 4t65 21q23 19 35 35t103 214
l440 1069h135l431 -1124q47 -125 100 -177t137 -46v-70l-280 4l-283 -4v74z" />
    <glyph glyph-name="Aacute" unicode="&#xc1;" horiz-adv-x="1593" 
d="M735 1513h-94l309 324q45 47 83 45t54 -33q27 -16 23 -56t-53 -67zM965 682l-213 547l-226 -547h439zM979 70h19q98 0 140 40q19 17 19 43t-33 109l-133 342h-491l-127 -354q-32 -106 -4 -143t155 -37v-74l-241 4l-242 -4v74q12 2 55 4t65 21q23 19 35 35t103 214
l440 1069h135l431 -1124q47 -125 100 -177t137 -46v-70l-280 4l-283 -4v74z" />
    <glyph glyph-name="Acircumflex" unicode="&#xc2;" horiz-adv-x="1593" 
d="M868 1860l254 -347h-88l-235 211l-238 -211h-88l254 347h141zM965 682l-213 547l-226 -547h439zM979 70h19q98 0 140 40q19 17 19 43t-33 109l-133 342h-491l-127 -354q-32 -106 -4 -143t155 -37v-74l-241 4l-242 -4v74q12 2 55 4t65 21q23 19 35 35t103 214l440 1069
h135l431 -1124q47 -125 100 -177t137 -46v-70l-280 4l-283 -4v74z" />
    <glyph glyph-name="Atilde" unicode="&#xc3;" horiz-adv-x="1593" 
d="M663 1790q77 0 175 -50t136 -48t68 34t37 70h70q-55 -229 -229 -229q-57 0 -163 48q-105 48 -137 48q-32 -1 -65 -25t-39 -73h-67q16 93 76 159t138 66zM965 682l-213 547l-226 -547h439zM979 70h19q98 0 140 40q19 17 19 43t-33 109l-133 342h-491l-127 -354
q-32 -106 -4 -143t155 -37v-74l-241 4l-242 -4v74q12 2 55 4t65 21q23 19 35 35t103 214l440 1069h135l431 -1124q47 -125 100 -177t137 -46v-70l-280 4l-283 -4v74z" />
    <glyph glyph-name="Adieresis" unicode="&#xc4;" horiz-adv-x="1593" 
d="M1007 1833q45 0 77 -34t32 -77q0 -44 -33 -76t-75 -32t-77 33q-34 33 -34 77t33 76q33 33 77 33zM590 1614q-45 0 -77 33t-32 77t32 76q32 33 77 33t77 -33q31 -33 31 -77q0 -45 -32 -77t-76 -32zM965 682l-213 547l-226 -547h439zM979 70h19q98 0 140 40q19 17 19 43
t-33 109l-133 342h-491l-127 -354q-32 -106 -4 -143t155 -37v-74l-241 4l-242 -4v74q12 2 55 4t65 21q23 19 35 35t103 214l440 1069h135l431 -1124q47 -125 100 -177t137 -46v-70l-280 4l-283 -4v74z" />
    <glyph glyph-name="Aring" unicode="&#xc5;" horiz-adv-x="1593" 
d="M674 1693q0 -50 37 -87t86 -37t86 37t37 87t-37 86t-86 36t-86 -36t-37 -86zM796 1898q86 0 148 -60q60 -60 60 -145t-60 -147t-147 -61q-86 0 -147 61q-60 60 -60 146t60 146t146 60zM965 682l-213 547l-226 -547h439zM979 70h19q98 0 140 40q19 17 19 43t-33 109
l-133 342h-491l-127 -354q-32 -106 -4 -143t155 -37v-74l-241 4l-242 -4v74q12 2 55 4t65 21q23 19 35 35t103 214l440 1069h135l431 -1124q47 -125 100 -177t137 -46v-70l-280 4l-283 -4v74z" />
    <glyph glyph-name="AE" unicode="&#xc6;" horiz-adv-x="2048" 
d="M1024 563h-481l-201 -368q-23 -47 -12 -72q25 -57 172 -57v-70l-248 4l-250 -4v70q104 14 160 71q55 57 151 221q16 27 25 41l578 949h-183v65h1204v-358h-108q-4 53 -5 72t-5 60t-17 72q-12 31 -19 35t-25 18t-34 13l-101 10h-417v-559h160q143 0 179 32t36 175h90v-491
h-90q0 80 -6 118t-33 62q-26 24 -62 26t-114 0h-160v-614h367q157 2 195 55t61 277h108v-420l-823 4l-289 -4v70q121 6 152 24q49 29 45 115v358zM1024 641v700h-16l-418 -700h434z" />
    <glyph glyph-name="Ccedilla" unicode="&#xc7;" horiz-adv-x="1366" 
d="M1280 424v-363q-61 -33 -257 -57t-288 -24h-33l-34 -95q100 21 162 -17t66 -119t-84 -131q-89 -50 -165 -40q-90 0 -176 33l33 61q72 -18 120 -20t83 22t37 71t-46 65q-47 18 -120 -5l-15 13l70 166q-303 24 -432 206t-129 541t169 536t537 177q229 0 502 -80v-330h-111
l-6 60q-18 166 -101 220t-284 54q-494 0 -493 -616q0 -406 138 -564q54 -61 146 -100t215 -39q123 1 192 17q128 31 163 176q14 61 24 182h117z" />
    <glyph glyph-name="Egrave" unicode="&#xc8;" horiz-adv-x="1251" 
d="M782 1513h-94l-321 213q-49 27 -54 67q-4 40 23 56q16 31 54 33t83 -45zM31 0v70q98 0 154 16q42 11 42 123v999q0 113 -42 123q-56 15 -154 17v69h1112v-360h-109q-10 212 -46 240q-13 11 -47 25t-73 16q-39 1 -110 1h-346v-565h159q143 0 180 33q36 33 35 178h91v-491
h-91q-4 31 -8 85q-7 95 -53 110t-154 16h-159v-617h366q156 2 195 55t61 275h109v-418h-1112z" />
    <glyph glyph-name="Eacute" unicode="&#xc9;" horiz-adv-x="1251" 
d="M563 1513h-94l309 324q45 47 83 45t54 -33q27 -16 23 -56t-53 -67zM31 0v70q98 0 154 16q42 11 42 123v999q0 113 -42 123q-56 15 -154 17v69h1112v-360h-109q-10 212 -46 240q-13 11 -47 25t-73 16q-39 1 -110 1h-346v-565h159q143 0 180 33q36 33 35 178h91v-491h-91
q-4 31 -8 85q-7 95 -53 110t-154 16h-159v-617h366q156 2 195 55t61 275h109v-418h-1112z" />
    <glyph glyph-name="Ecircumflex" unicode="&#xca;" horiz-adv-x="1251" 
d="M696 1860l254 -347h-88l-235 211l-238 -211h-88l254 347h141zM31 0v70q98 0 154 16q42 11 42 123v999q0 113 -42 123q-56 15 -154 17v69h1112v-360h-109q-10 212 -46 240q-13 11 -47 25t-73 16q-39 1 -110 1h-346v-565h159q143 0 180 33q36 33 35 178h91v-491h-91
q-4 31 -8 85q-7 95 -53 110t-154 16h-159v-617h366q156 2 195 55t61 275h109v-418h-1112z" />
    <glyph glyph-name="Edieresis" unicode="&#xcb;" horiz-adv-x="1251" 
d="M835 1833q45 0 77 -34t32 -77q0 -44 -33 -76t-75 -32t-77 33q-34 33 -34 77t33 76q33 33 77 33zM418 1614q-45 0 -77 33t-32 77t32 76q32 33 77 33t77 -33q31 -33 31 -77q0 -45 -32 -77t-76 -32zM31 0v70q98 0 154 16q42 11 42 123v999q0 113 -42 123q-56 15 -154 17v69
h1112v-360h-109q-10 212 -46 240q-13 11 -47 25t-73 16q-39 1 -110 1h-346v-565h159q143 0 180 33q36 33 35 178h91v-491h-91q-4 31 -8 85q-7 95 -53 110t-154 16h-159v-617h366q156 2 195 55t61 275h109v-418h-1112z" />
    <glyph glyph-name="Igrave" unicode="&#xcc;" 
d="M498 1513h-95l-321 213q-49 27 -53 67t22 56q16 31 54 33t83 -45zM53 66q127 0 162 22t35 117v1003q0 96 -35 118t-162 22v69l289 -4l289 4v-69q-123 0 -160 -22t-37 -118v-1003q0 -96 35 -118t162 -21v-70l-289 4l-289 -4v70z" />
    <glyph glyph-name="Iacute" unicode="&#xcd;" 
d="M279 1513h-95l310 324q45 47 83 45t54 -33q27 -16 23 -56t-54 -67zM53 66q127 0 162 22t35 117v1003q0 96 -35 118t-162 22v69l289 -4l289 4v-69q-123 0 -160 -22t-37 -118v-1003q0 -96 35 -118t162 -21v-70l-289 4l-289 -4v70z" />
    <glyph glyph-name="Icircumflex" unicode="&#xce;" 
d="M412 1860l254 -347h-88l-236 211l-238 -211h-88l254 347h142zM53 66q127 0 162 22t35 117v1003q0 96 -35 118t-162 22v69l289 -4l289 4v-69q-123 0 -160 -22t-37 -118v-1003q0 -96 35 -118t162 -21v-70l-289 4l-289 -4v70z" />
    <glyph glyph-name="Idieresis" unicode="&#xcf;" 
d="M550 1833q44 0 77 -34t33 -77q0 -44 -34 -76q-32 -32 -75 -32t-77 33t-34 77t33 76q33 33 77 33zM133 1614q-45 0 -77 33t-32 77t32 76q32 33 77 33t77 -33t32 -77q0 -45 -32 -77t-77 -32zM53 66q127 0 162 22t35 117v1003q0 96 -35 118t-162 22v69l289 -4l289 4v-69
q-123 0 -160 -22t-37 -118v-1003q0 -96 35 -118t162 -21v-70l-289 4l-289 -4v70z" />
    <glyph glyph-name="Eth" unicode="&#xd0;" horiz-adv-x="1478" 
d="M35 66q98 0 154 16q33 9 40 65q2 16 2 58v500h-202v83h202v420q0 113 -42 123q-56 15 -154 17v69l289 -4l446 4q289 4 420 -106q186 -154 186 -578q0 -197 -26 -325q-57 -274 -288 -359q-122 -45 -310 -53l-428 4l-289 -4v70zM416 788h289v-83h-289v-617q106 -8 207 -8
q319 0 431 126t112 455t-48 447q-47 119 -132 167q-114 64 -273 64q-158 0 -297 -16v-535z" />
    <glyph glyph-name="Ntilde" unicode="&#xd1;" horiz-adv-x="1593" 
d="M663 1790q77 0 175 -50t136 -48t68 34t37 70h70q-55 -229 -229 -229q-57 0 -163 48q-105 48 -137 48q-32 -1 -65 -25t-39 -73h-67q16 93 76 159t138 66zM43 66q119 0 154 22q34 23 34 117v1003q0 94 -35 117q-36 23 -153 23v69l176 -4l174 4l877 -1171v962q0 94 -35 117
t-154 23v69l234 -4l233 4v-69q-116 0 -146 -23t-30 -117v-1208h-133l-905 1196v-991q0 -94 35 -117t153 -22v-70l-239 4l-240 -4v70z" />
    <glyph glyph-name="Ograve" unicode="&#xd2;" horiz-adv-x="1593" 
d="M954 1513h-94l-321 213q-49 27 -54 67q-4 40 23 56q16 31 54 33t83 -45zM791 1372q-119 0 -209 -37t-142 -95q-140 -155 -141 -527q0 -143 19 -251q72 -411 472 -411q294 0 402 205q90 173 90 442q0 128 -11 216t-44 178t-85 148t-142 95t-209 37zM791 -20
q-391 0 -546 168t-155 564t154 564t547 168t547 -168t153 -563q0 -201 -31 -333q-66 -279 -325 -360q-135 -40 -344 -40z" />
    <glyph glyph-name="Oacute" unicode="&#xd3;" horiz-adv-x="1593" 
d="M735 1513h-94l309 324q45 47 83 45t54 -33q27 -16 23 -56t-53 -67zM791 1372q-119 0 -209 -37t-142 -95q-140 -155 -141 -527q0 -143 19 -251q72 -411 472 -411q294 0 402 205q90 173 90 442q0 128 -11 216t-44 178t-85 148t-142 95t-209 37zM791 -20q-391 0 -546 168
t-155 564t154 564t547 168t547 -168t153 -563q0 -201 -31 -333q-66 -279 -325 -360q-135 -40 -344 -40z" />
    <glyph glyph-name="Ocircumflex" unicode="&#xd4;" horiz-adv-x="1593" 
d="M868 1860l254 -347h-88l-235 211l-238 -211h-88l254 347h141zM791 1372q-119 0 -209 -37t-142 -95q-140 -155 -141 -527q0 -143 19 -251q72 -411 472 -411q294 0 402 205q90 173 90 442q0 128 -11 216t-44 178t-85 148t-142 95t-209 37zM791 -20q-391 0 -546 168
t-155 564t154 564t547 168t547 -168t153 -563q0 -201 -31 -333q-66 -279 -325 -360q-135 -40 -344 -40z" />
    <glyph glyph-name="Otilde" unicode="&#xd5;" horiz-adv-x="1593" 
d="M663 1790q77 0 175 -50t136 -48t68 34t37 70h70q-55 -229 -229 -229q-57 0 -163 48q-105 48 -137 48q-32 -1 -65 -25t-39 -73h-67q16 93 76 159t138 66zM791 1372q-119 0 -209 -37t-142 -95q-140 -155 -141 -527q0 -143 19 -251q72 -411 472 -411q294 0 402 205
q90 173 90 442q0 128 -11 216t-44 178t-85 148t-142 95t-209 37zM791 -20q-391 0 -546 168t-155 564t154 564t547 168t547 -168t153 -563q0 -201 -31 -333q-66 -279 -325 -360q-135 -40 -344 -40z" />
    <glyph glyph-name="Odieresis" unicode="&#xd6;" horiz-adv-x="1593" 
d="M1007 1833q45 0 77 -34t32 -77q0 -44 -33 -76t-75 -32t-77 33q-34 33 -34 77t33 76q33 33 77 33zM590 1614q-45 0 -77 33t-32 77t32 76q32 33 77 33t77 -33q31 -33 31 -77q0 -45 -32 -77t-76 -32zM791 1372q-119 0 -209 -37t-142 -95q-140 -155 -141 -527q0 -143 19 -251
q72 -411 472 -411q294 0 402 205q90 173 90 442q0 128 -11 216t-44 178t-85 148t-142 95t-209 37zM791 -20q-391 0 -546 168t-155 564t154 564t547 168t547 -168t153 -563q0 -201 -31 -333q-66 -279 -325 -360q-135 -40 -344 -40z" />
    <glyph glyph-name="multiply" unicode="&#xd7;" horiz-adv-x="1241" 
d="M526 518l-360 361l92 92l363 -361l360 363l92 -92l-360 -363l364 -364l-94 -93l-362 365l-365 -363l-92 93z" />
    <glyph glyph-name="Oslash" unicode="&#xd8;" horiz-adv-x="1593" 
d="M1491 706q0 -194 -31 -326q-66 -279 -325 -360q-135 -40 -317 -40t-297 20q-116 20 -206 88l-176 -209l-55 55l174 205q-100 103 -134 245t-34 329q0 395 154 563t547 168q109 0 173 -4t155 -30q90 -26 151 -77l162 191l61 -45l-166 -197q98 -104 131 -244
q33 -138 33 -332zM791 51q293 0 401 205q51 98 71 206q19 108 19 251q0 276 -76 428l-786 -930q121 -160 371 -160zM791 1374q-294 0 -402 -205q-51 -97 -71 -205t-19 -251q0 -282 78 -432l788 929q-117 164 -374 164z" />
    <glyph glyph-name="Ugrave" unicode="&#xd9;" horiz-adv-x="1593" 
d="M954 1513h-94l-321 213q-49 27 -54 67q-4 40 23 56q16 31 54 33t83 -45zM627 1348q-95 0 -155 -17q-33 -9 -40 -65q-2 -17 -2 -58v-747q-4 -207 90 -307t312 -100t326 102t108 336v716q0 70 -10 94t-55 34q-44 10 -157 12v69l254 -4l254 4v-69q-164 0 -178 -54
q-6 -23 -6 -86v-714q0 -287 -150 -401t-460 -113q-512 0 -512 458v770q0 63 -6 86q-14 52 -181 54v69q90 -4 279 -4l289 4v-69z" />
    <glyph glyph-name="Uacute" unicode="&#xda;" horiz-adv-x="1593" 
d="M776 1513h-94l309 324q45 47 83 45t54 -33q27 -16 23 -56t-53 -67zM627 1348q-95 0 -155 -17q-33 -9 -40 -65q-2 -17 -2 -58v-747q-4 -207 90 -307t312 -100t326 102t108 336v716q0 70 -10 94t-55 34q-44 10 -157 12v69l254 -4l254 4v-69q-164 0 -178 -54q-6 -23 -6 -86
v-714q0 -287 -150 -401t-460 -113q-512 0 -512 458v770q0 63 -6 86q-14 52 -181 54v69q90 -4 279 -4l289 4v-69z" />
    <glyph glyph-name="Ucircumflex" unicode="&#xdb;" horiz-adv-x="1593" 
d="M868 1860l254 -347h-88l-235 211l-238 -211h-88l254 347h141zM627 1348q-95 0 -155 -17q-33 -9 -40 -65q-2 -17 -2 -58v-747q-4 -207 90 -307t312 -100t326 102t108 336v716q0 70 -10 94t-55 34q-44 10 -157 12v69l254 -4l254 4v-69q-164 0 -178 -54q-6 -23 -6 -86v-714
q0 -287 -150 -401t-460 -113q-512 0 -512 458v770q0 63 -6 86q-14 52 -181 54v69q90 -4 279 -4l289 4v-69z" />
    <glyph glyph-name="Udieresis" unicode="&#xdc;" horiz-adv-x="1593" 
d="M1007 1833q45 0 77 -34t32 -77q0 -44 -33 -76t-75 -32t-77 33q-34 33 -34 77t33 76q33 33 77 33zM590 1614q-45 0 -77 33t-32 77t32 76q32 33 77 33t77 -33q31 -33 31 -77q0 -45 -32 -77t-76 -32zM627 1348q-95 0 -155 -17q-33 -9 -40 -65q-2 -17 -2 -58v-747
q-4 -207 90 -307t312 -100t326 102t108 336v716q0 70 -10 94t-55 34q-44 10 -157 12v69l254 -4l254 4v-69q-164 0 -178 -54q-6 -23 -6 -86v-714q0 -287 -150 -401t-460 -113q-512 0 -512 458v770q0 63 -6 86q-14 52 -181 54v69q90 -4 279 -4l289 4v-69z" />
    <glyph glyph-name="Yacute" unicode="&#xdd;" horiz-adv-x="1478" 
d="M719 1513h-94l309 324q45 47 83 45t54 -33q27 -16 23 -56t-54 -67zM440 -4v70q135 0 172 22t37 117v323q0 63 -8 90t-43 80l-195 310q-25 38 -65 102q-103 168 -155 198q-66 36 -140 44v65l303 -4l301 4v-65q-137 0 -161 -41q-9 -13 -10 -27t-2 -19t4 -17t15 -26
q9 -13 11 -16l309 -510l281 492q39 57 36 94q0 70 -145 70v65l221 -4l221 4v-65q-107 -11 -160 -79q-30 -38 -61 -91q-31 -52 -43 -72l-286 -455q-43 -68 -43 -135v-315q0 -96 36 -118t172 -21v-70q-201 0 -301 4q-98 -4 -301 -4z" />
    <glyph glyph-name="Thorn" unicode="&#xde;" horiz-adv-x="1251" 
d="M420 1030v-643h100q170 1 246 21q77 20 110 54q78 83 76 247q0 111 -17 175t-63 98q-46 32 -100 40q-53 8 -151 8h-201zM39 66q96 0 155 16q31 9 39 65q2 16 3 58v1003q0 113 -42 123q-56 15 -155 17v69l289 -4l288 4v-69q-124 0 -160 -22t-36 -118v-108q221 0 332 2
q207 4 306 -75t99 -284q0 -277 -153 -360q-80 -43 -168 -56t-228 -14h-188v-108q0 -112 42 -123q59 -16 154 -16v-70l-288 4l-289 -4v70z" />
    <glyph glyph-name="germandbls" unicode="&#xdf;" horiz-adv-x="1138" 
d="M201 1176q-1 350 363 350q172 0 266 -73t94 -205t-44 -196t-153 -126q189 -41 251 -125t62 -319t-38 -319q-54 -126 -137 -161q-54 -23 -128 -22q-141 0 -221 81l62 136l26 -9q-6 -55 29 -101t102 -46q23 0 48 16q48 31 73 211q4 30 4 92v119q0 133 -14 211t-60 116
t-80 47t-84 15t-59 8t-26 3v63q133 18 177 76t44 186q0 126 -42 190t-154 64t-150 -63t-43 -183v-1007q-1 -86 21 -115t102 -29v-65l-207 4q-174 0 -244 -4v65q100 -2 130 30t30 114v971z" />
    <glyph glyph-name="agrave" unicode="&#xe0;" horiz-adv-x="1024" 
d="M670 1073h-95l-321 213q-49 27 -53 67t22 56q17 31 55 33t82 -45zM664 750q0 154 -191 153q-121 0 -154 -45t-32 -153q0 -53 -88 -54q-78 2 -64 105q27 217 363 217q184 0 259 -72t74 -250v-446q0 -94 26 -116t136 -28v-65q-46 4 -162 4l-159 -4v82q-106 -96 -264 -96
t-240 64t-82 228q0 163 118 217t273 54l187 -2v207zM664 475h-113q-136 1 -193 -25t-76 -70t-20 -116q0 -207 176 -207q131 0 178 49t48 173v196z" />
    <glyph glyph-name="aacute" unicode="&#xe1;" horiz-adv-x="1024" 
d="M451 1073h-95l310 324q45 47 83 45t54 -33q27 -16 23 -56t-54 -67zM664 750q0 154 -191 153q-121 0 -154 -45t-32 -153q0 -53 -88 -54q-78 2 -64 105q27 217 363 217q184 0 259 -72t74 -250v-446q0 -94 26 -116t136 -28v-65q-46 4 -162 4l-159 -4v82q-106 -96 -264 -96
t-240 64t-82 228q0 163 118 217t273 54l187 -2v207zM664 475h-113q-136 1 -193 -25t-76 -70t-20 -116q0 -207 176 -207q131 0 178 49t48 173v196z" />
    <glyph glyph-name="acircumflex" unicode="&#xe2;" horiz-adv-x="1024" 
d="M584 1419l254 -346h-88l-236 211l-238 -211h-88l254 346h142zM664 750q0 154 -191 153q-121 0 -154 -45t-32 -153q0 -53 -88 -54q-78 2 -64 105q27 217 363 217q184 0 259 -72t74 -250v-446q0 -94 26 -116t136 -28v-65q-46 4 -162 4l-159 -4v82q-106 -96 -264 -96
t-240 64t-82 228q0 163 118 217t273 54l187 -2v207zM664 475h-113q-136 1 -193 -25t-76 -70t-20 -116q0 -207 176 -207q131 0 178 49t48 173v196z" />
    <glyph glyph-name="atilde" unicode="&#xe3;" horiz-adv-x="1024" 
d="M378 1350q78 0 176 -50t135 -49q38 2 68 35t38 70h69q-55 -229 -229 -230q-57 0 -163 48t-138 49q-32 0 -64 -25q-33 -25 -39 -74h-67q16 94 76 160t138 66zM664 750q0 154 -191 153q-121 0 -154 -45t-32 -153q0 -53 -88 -54q-78 2 -64 105q27 217 363 217q184 0 259 -72
t74 -250v-446q0 -94 26 -116t136 -28v-65q-46 4 -162 4l-159 -4v82q-106 -96 -264 -96t-240 64t-82 228q0 163 118 217t273 54l187 -2v207zM664 475h-113q-136 1 -193 -25t-76 -70t-20 -116q0 -207 176 -207q131 0 178 49t48 173v196z" />
    <glyph glyph-name="adieresis" unicode="&#xe4;" horiz-adv-x="1024" 
d="M305 1174q-45 0 -77 32t-32 77q0 44 32 77t77 33t77 -33t32 -77q0 -45 -32 -77t-77 -32zM722 1393q44 0 77 -34t33 -77t-34 -76q-32 -32 -75 -32t-77 32t-34 77q0 44 33 77t77 33zM664 750q0 154 -191 153q-121 0 -154 -45t-32 -153q0 -53 -88 -54q-78 2 -64 105
q27 217 363 217q184 0 259 -72t74 -250v-446q0 -94 26 -116t136 -28v-65q-46 4 -162 4l-159 -4v82q-106 -96 -264 -96t-240 64t-82 228q0 163 118 217t273 54l187 -2v207zM664 475h-113q-136 1 -193 -25t-76 -70t-20 -116q0 -207 176 -207q131 0 178 49t48 173v196z" />
    <glyph glyph-name="aring" unicode="&#xe5;" horiz-adv-x="1024" 
d="M389 1283q0 -50 37 -87t86 -37t86 37t37 87t-37 86t-86 36t-86 -36t-37 -86zM719 1283q-1 -85 -61 -146t-146 -61t-146 60q-60 62 -60 147t60 145t146 60t146 -60t61 -145zM664 750q0 154 -191 153q-121 0 -154 -45t-32 -153q0 -53 -88 -54q-78 2 -64 105q27 217 363 217
q184 0 259 -72t74 -250v-446q0 -94 26 -116t136 -28v-65q-46 4 -162 4l-159 -4v82q-106 -96 -264 -96t-240 64t-82 228q0 163 118 217t273 54l187 -2v207zM664 475h-113q-136 1 -193 -25t-76 -70t-20 -116q0 -207 176 -207q131 0 178 49t48 173v196z" />
    <glyph glyph-name="ae" unicode="&#xe6;" horiz-adv-x="1593" 
d="M668 276v197h-113q-136 1 -193 -25t-76 -70t-20 -116q0 -205 176 -205q129 0 178 48q48 48 48 171zM668 748q0 154 -191 153q-119 0 -153 -44t-33 -152q0 -53 -88 -54q-78 2 -60 121q11 70 71 117q103 82 294 83t272 -108q102 109 283 109q246 0 334 -120t88 -380h-651
q0 -196 32 -281q32 -84 84 -116t158 -33q106 0 155 53q48 53 70 185q4 43 72 43q23 0 35 -1t23 -13t7 -31q-12 -133 -110 -217t-258 -82q-276 -6 -373 157q-39 -71 -129 -113t-180 -42q-330 -2 -330 284q0 104 57 179q77 100 334 100l187 -2v205zM1294 543q0 163 -13 203
q-30 93 -70 120q-62 41 -150 41q-87 0 -145 -56t-73 -133t-9 -175h460z" />
    <glyph glyph-name="ccedilla" unicode="&#xe7;" horiz-adv-x="1024" 
d="M918 299v-240q-158 -80 -377 -79h-13l-32 -95q100 21 162 -17t66 -119t-84 -131q-89 -50 -165 -40q-90 0 -176 33l33 61q72 -18 120 -20t83 22t37 71t-46 65q-47 18 -120 -5l-15 13l70 166q-207 18 -287 137t-80 365t104 367q104 120 353 120q100 0 208 -22t159 -72v-217
h-107q-2 12 -5 51q-9 119 -67 156q-58 38 -158 38q-198 0 -257 -131q-68 -154 -43 -428q10 -142 76 -222q66 -81 223 -81q81 0 111 12q30 13 46 19t28 24q11 18 22 34t18 84q8 67 10 81h103z" />
    <glyph glyph-name="egrave" unicode="&#xe8;" horiz-adv-x="1024" 
d="M670 1073h-95l-321 213q-49 27 -53 67t22 56q17 31 55 33t82 -45zM281 473q0 -174 15 -225q14 -52 34 -90q57 -110 213 -109q97 0 138 32q24 17 40 31q34 31 56 137q7 34 9 42q0 33 66 33t68 -35q-45 -309 -406 -309q-250 0 -339 160q-77 138 -79 390q0 211 116 327
t325 116q424 0 399 -500h-655zM281 543h469q20 365 -234 364q-243 1 -235 -364z" />
    <glyph glyph-name="eacute" unicode="&#xe9;" horiz-adv-x="1024" 
d="M451 1073h-95l310 324q45 47 83 45t54 -33q27 -16 23 -56t-54 -67zM281 473q0 -174 15 -225q14 -52 34 -90q57 -110 213 -109q97 0 138 32q24 17 40 31q34 31 56 137q7 34 9 42q0 33 66 33t68 -35q-45 -309 -406 -309q-250 0 -339 160q-77 138 -79 390q0 211 116 327
t325 116q424 0 399 -500h-655zM281 543h469q20 365 -234 364q-243 1 -235 -364z" />
    <glyph glyph-name="ecircumflex" unicode="&#xea;" horiz-adv-x="1024" 
d="M584 1419l254 -346h-88l-236 211l-238 -211h-88l254 346h142zM281 473q0 -174 15 -225q14 -52 34 -90q57 -110 213 -109q97 0 138 32q24 17 40 31q34 31 56 137q7 34 9 42q0 33 66 33t68 -35q-45 -309 -406 -309q-250 0 -339 160q-77 138 -79 390q0 211 116 327t325 116
q424 0 399 -500h-655zM281 543h469q20 365 -234 364q-243 1 -235 -364z" />
    <glyph glyph-name="edieresis" unicode="&#xeb;" horiz-adv-x="1024" 
d="M722 1393q44 0 77 -34t33 -77t-34 -76q-32 -32 -75 -32t-77 32t-34 77q0 44 33 77t77 33zM305 1174q-45 0 -77 32t-32 77q0 44 32 77t77 33t77 -33t32 -77q0 -45 -32 -77t-77 -32zM281 473q0 -174 15 -225q14 -52 34 -90q57 -110 213 -109q97 0 138 32q24 17 40 31
q34 31 56 137q7 34 9 42q0 33 66 33t68 -35q-45 -309 -406 -309q-250 0 -339 160q-77 138 -79 390q0 211 116 327t325 116q424 0 399 -500h-655zM281 543h469q20 365 -234 364q-243 1 -235 -364z" />
    <glyph glyph-name="igrave" unicode="&#xec;" 
d="M498 1073h-95l-321 213q-49 27 -53 67t22 56q16 31 54 33t83 -45zM340 0q-176 0 -266 -4v65q126 0 154 26t28 118v538q0 95 -27 115t-155 31v63h350v-747q0 -92 29 -118t153 -26v-65q-90 4 -266 4z" />
    <glyph glyph-name="iacute" unicode="&#xed;" 
d="M279 1073h-95l310 324q45 47 83 45t54 -33q27 -16 23 -56t-54 -67zM340 0q-176 0 -266 -4v65q126 0 154 26t28 118v538q0 95 -27 115t-155 31v63h350v-747q0 -92 29 -118t153 -26v-65q-90 4 -266 4z" />
    <glyph glyph-name="icircumflex" unicode="&#xee;" 
d="M412 1419l254 -346h-88l-236 211l-238 -211h-88l254 346h142zM340 0q-176 0 -266 -4v65q126 0 154 26t28 118v538q0 95 -27 115t-155 31v63h350v-747q0 -92 29 -118t153 -26v-65q-90 4 -266 4z" />
    <glyph glyph-name="idieresis" unicode="&#xef;" 
d="M550 1393q44 0 77 -34t33 -77t-34 -76q-32 -32 -75 -32t-77 32t-34 77q0 44 33 77t77 33zM133 1174q-45 0 -77 32t-32 77q0 44 32 77t77 33t77 -33t32 -77q0 -45 -32 -77t-77 -32zM340 0q-176 0 -266 -4v65q126 0 154 26t28 118v538q0 95 -27 115t-155 31v63h350v-747
q0 -92 29 -118t153 -26v-65q-90 4 -266 4z" />
    <glyph glyph-name="eth" unicode="&#xf0;" horiz-adv-x="1138" 
d="M1034 573q0 -276 -110 -436q-110 -159 -360 -157q-249 2 -354 126q-106 124 -106 374q0 251 113 372t352 121q129 0 232 -58q-35 188 -174 342l-328 -170l-70 64l332 172q-164 135 -313 160l67 43q184 -20 357 -146l264 138l74 -62l-265 -137q289 -270 289 -746zM289 477
q0 -78 3 -127q9 -143 70 -222t206 -79t214 86q68 86 68 341t-67 341t-214 86q-146 0 -215 -88q-53 -68 -62 -211q-3 -49 -3 -127z" />
    <glyph glyph-name="ntilde" unicode="&#xf1;" horiz-adv-x="1251" 
d="M491 1350q77 0 175 -50t136 -49q38 2 68 35t37 70h70q-55 -229 -229 -230q-57 0 -163 48q-105 48 -137 49q-32 0 -65 -25t-39 -74h-68q16 94 76 160t139 66zM229 745q0 98 -27 120q-28 22 -155 26v61h340v-114q98 80 164 108t180 27q181 0 237 -82t56 -270v-414
q0 -92 28 -119t150 -27v-65q-86 4 -263 4t-259 -4v65q121 8 141 23q35 25 35 123v362q0 205 -50 259t-177 54q-127 1 -179 -75t-53 -227v-373q0 -92 28 -119t146 -27v-65q-82 4 -258 4t-266 -4v65q58 -1 72 3q15 4 35 6t24 5t18 8t14 12q1 7 8 17t7 24l4 71v538z" />
    <glyph glyph-name="ograve" unicode="&#xf2;" horiz-adv-x="1138" 
d="M727 1073h-94l-322 213q-49 27 -53 67t23 56q16 31 54 33t83 -45zM289 477q0 -78 3 -127q9 -143 70 -222t206 -79t214 86q68 86 68 341t-67 341t-214 86q-146 0 -215 -88q-53 -68 -62 -211q-3 -49 -3 -127zM569 973q240 0 353 -121q112 -121 112 -372t-105 -375
q-105 -123 -359 -123t-360 124t-106 374q0 251 112 372t353 121z" />
    <glyph glyph-name="oacute" unicode="&#xf3;" horiz-adv-x="1138" 
d="M508 1073h-94l309 324q45 47 83 45t54 -33q27 -16 23 -56t-54 -67zM289 477q0 -78 3 -127q9 -143 70 -222t206 -79t214 86q68 86 68 341t-67 341t-214 86q-146 0 -215 -88q-53 -68 -62 -211q-3 -49 -3 -127zM569 973q240 0 353 -121q112 -121 112 -372t-105 -375
q-105 -123 -359 -123t-360 124t-106 374q0 251 112 372t353 121z" />
    <glyph glyph-name="ocircumflex" unicode="&#xf4;" horiz-adv-x="1138" 
d="M641 1419l254 -346h-88l-236 211l-237 -211h-88l254 346h141zM289 477q0 -78 3 -127q9 -143 70 -222t206 -79t214 86q68 86 68 341t-67 341t-214 86q-146 0 -215 -88q-53 -68 -62 -211q-3 -49 -3 -127zM569 973q240 0 353 -121q112 -121 112 -372t-105 -375
q-105 -123 -359 -123t-360 124t-106 374q0 251 112 372t353 121z" />
    <glyph glyph-name="otilde" unicode="&#xf5;" horiz-adv-x="1138" 
d="M436 1350q78 0 176 -50t134 -49q38 2 68 35t38 70h70q-55 -229 -230 -230q-56 0 -162 48t-138 49q-32 0 -64 -25t-39 -74h-68q17 94 77 160t138 66zM289 477q0 -78 3 -127q9 -143 70 -222t206 -79t214 86q68 86 68 341t-67 341t-214 86q-146 0 -215 -88q-53 -68 -62 -211
q-3 -49 -3 -127zM569 973q240 0 353 -121q112 -121 112 -372t-105 -375q-105 -123 -359 -123t-360 124t-106 374q0 251 112 372t353 121z" />
    <glyph glyph-name="odieresis" unicode="&#xf6;" horiz-adv-x="1138" 
d="M779 1393q44 0 77 -34t33 -77t-33 -76q-33 -32 -76 -32t-77 32q-33 32 -33 77q0 44 32 77q33 33 77 33zM362 1174q-44 0 -76 32t-32 77q0 44 32 77t76 33t77 -33q32 -33 32 -77q0 -45 -32 -77t-77 -32zM289 477q0 -78 3 -127q9 -143 70 -222t206 -79t214 86q68 86 68 341
t-67 341t-214 86q-146 0 -215 -88q-53 -68 -62 -211q-3 -49 -3 -127zM569 973q240 0 353 -121q112 -121 112 -372t-105 -375q-105 -123 -359 -123t-360 124t-106 374q0 251 112 372t353 121z" />
    <glyph glyph-name="divide" unicode="&#xf7;" horiz-adv-x="1241" 
d="M621 4q-45 0 -77 33t-32 77t32 76t77 33q45 0 77 -33q32 -32 31 -76q1 -44 -31 -77t-77 -33zM621 813q-45 0 -77 33t-32 77q0 45 32 77t77 32t77 -33t31 -77q1 -44 -31 -76q-32 -33 -77 -33zM104 453v131h1033v-131h-1033z" />
    <glyph glyph-name="oslash" unicode="&#xf8;" horiz-adv-x="1138" 
d="M850 442q0 221 -31 303l-477 -581q61 -115 216 -115t224 86q68 86 68 307zM569 903q-214 0 -259 -187q-21 -87 -21 -239q0 -153 20 -231l471 571q-63 86 -211 86zM1034 484q0 -255 -105 -379t-360 -125q-203 2 -311 83l-152 -186l-59 49l156 189q-99 115 -99 365t113 372
q113 121 352 121q178 0 285 -66l154 187l59 -47l-154 -187q121 -121 121 -376z" />
    <glyph glyph-name="ugrave" unicode="&#xf9;" horiz-adv-x="1251" 
d="M782 1073h-94l-321 213q-49 27 -54 67q-4 40 23 56q16 31 54 33t83 -45zM221 238v510q-1 92 -29 118t-153 25v61h350v-606q0 -72 5 -114q4 -42 24 -85q37 -81 174 -81q136 0 195 65t59 285v332q0 90 -28 116t-144 27v61h340v-747q0 -92 28 -118t154 -26v-65
q-122 0 -184 4l-166 -4v119q-45 -59 -141 -97t-177 -38q-150 0 -228 57t-79 201z" />
    <glyph glyph-name="uacute" unicode="&#xfa;" horiz-adv-x="1251" 
d="M563 1073h-94l309 324q45 47 83 45t54 -33q27 -16 23 -56t-53 -67zM221 238v510q-1 92 -29 118t-153 25v61h350v-606q0 -72 5 -114q4 -42 24 -85q37 -81 174 -81q136 0 195 65t59 285v332q0 90 -28 116t-144 27v61h340v-747q0 -92 28 -118t154 -26v-65q-122 0 -184 4
l-166 -4v119q-45 -59 -141 -97t-177 -38q-150 0 -228 57t-79 201z" />
    <glyph glyph-name="ucircumflex" unicode="&#xfb;" horiz-adv-x="1251" 
d="M696 1419l254 -346h-88l-235 211l-238 -211h-88l254 346h141zM221 238v510q-1 92 -29 118t-153 25v61h350v-606q0 -72 5 -114q4 -42 24 -85q37 -81 174 -81q136 0 195 65t59 285v332q0 90 -28 116t-144 27v61h340v-747q0 -92 28 -118t154 -26v-65q-122 0 -184 4l-166 -4
v119q-45 -59 -141 -97t-177 -38q-150 0 -228 57t-79 201z" />
    <glyph glyph-name="udieresis" unicode="&#xfc;" horiz-adv-x="1251" 
d="M835 1393q45 0 77 -34t32 -77t-33 -76q-33 -32 -75 -32t-77 32q-34 32 -34 77q0 44 33 77t77 33zM418 1174q-45 0 -77 32t-32 77q0 44 32 77t77 33t77 -33q31 -33 31 -77t-31 -77q-32 -32 -77 -32zM221 238v510q-1 92 -29 118t-153 25v61h350v-606q0 -72 5 -114
q4 -42 24 -85q37 -81 174 -81q136 0 195 65t59 285v332q0 90 -28 116t-144 27v61h340v-747q0 -92 28 -118t154 -26v-65q-122 0 -184 4l-166 -4v119q-45 -59 -141 -97t-177 -38q-150 0 -228 57t-79 201z" />
    <glyph glyph-name="yacute" unicode="&#xfd;" horiz-adv-x="1138" 
d="M508 1073h-94l309 324q45 47 83 45t54 -33q27 -16 23 -56t-54 -67zM82 895h-49v61q41 -2 122 -2h242q82 0 121 2v-61q-41 0 -74 -9q-34 -9 -46 -24t-1 -59l242 -668l225 641q28 64 0 89q-8 7 -14 13t-20 8q-14 3 -21 5q-16 4 -41 4h-45v61q31 -2 109 -2h157q78 0 109 2
v-61q-70 -6 -99 -44t-71 -151l-273 -694q-115 -344 -206 -430q-35 -32 -91 -60t-118 -28q-145 0 -166 117q-4 18 3 41t19 30q31 25 63 16q32 -10 50 -28q59 -61 96 -68q70 -15 120 53t80 144q30 77 49 137t24 70h-66l-260 709q-51 136 -67 147q-5 4 -17 15t-22 13t-27 6
q-17 5 -37 5z" />
    <glyph glyph-name="thorn" unicode="&#xfe;" horiz-adv-x="1251" 
d="M242 -307v1624q0 92 -29 118t-152 25v66h349v-697h4q90 143 309 144q401 0 401 -481q0 -254 -106 -383t-352 -129q-131 0 -256 104v-391q0 -98 36 -121t175 -23v-65q-199 0 -293 4q-175 0 -267 -4v65q123 8 144 19q37 27 37 125zM410 649v-364q0 -106 67 -168
q68 -61 156 -61t138 14q77 24 123 108t46 311q0 298 -129 373q-57 33 -161 33q-104 -1 -172 -67t-68 -179z" />
    <glyph glyph-name="ydieresis" unicode="&#xff;" horiz-adv-x="1138" 
d="M779 1393q44 0 77 -34t33 -77t-33 -76q-33 -32 -76 -32t-77 32q-33 32 -33 77q0 44 32 77q33 33 77 33zM362 1174q-44 0 -76 32t-32 77q0 44 32 77t76 33t77 -33q32 -33 32 -77q0 -45 -32 -77t-77 -32zM82 895h-49v61q41 -2 122 -2h242q82 0 121 2v-61q-41 0 -74 -9
q-34 -9 -46 -24t-1 -59l242 -668l225 641q28 64 0 89q-8 7 -14 13t-20 8q-14 3 -21 5q-16 4 -41 4h-45v61q31 -2 109 -2h157q78 0 109 2v-61q-70 -6 -99 -44t-71 -151l-273 -694q-115 -344 -206 -430q-35 -32 -91 -60t-118 -28q-145 0 -166 117q-4 18 3 41t19 30
q31 25 63 16q32 -10 50 -28q59 -61 96 -68q70 -15 120 53t80 144q30 77 49 137t24 70h-66l-260 709q-51 136 -67 147q-5 4 -17 15t-22 13t-27 6q-17 5 -37 5z" />
    <glyph glyph-name="dotlessi" unicode="&#x131;" 
d="M340 0q-176 0 -266 -4v65q126 0 154 26t28 118v538q0 95 -27 115t-155 31v63h350v-747q0 -92 29 -118t153 -26v-65q-90 4 -266 4z" />
    <glyph glyph-name="Lslash" unicode="&#x141;" horiz-adv-x="1251" 
d="M643 1348q-168 0 -187 -51q-9 -24 -10 -89v-381l291 209v-98l-291 -209v-645h363q156 2 195 55t61 277h109v-416h-1108v66q98 0 154 16q33 9 40 65q2 16 2 58v373l-196 -152v98l196 152v532q0 113 -42 123q-56 15 -154 17v69l288 -4l289 4v-69z" />
    <glyph glyph-name="lslash" unicode="&#x142;" 
d="M258 203v579l-182 -151v98l182 152v438q0 92 -29 117t-153 24v66h350v-541l182 139v-98l-182 -137v-684q0 -92 29 -118t153 -26v-65q-176 4 -266 4t-266 -4v65q126 0 154 25t28 117z" />
    <glyph glyph-name="OE" unicode="&#x152;" horiz-adv-x="2048" 
d="M1100 571v443q0 194 -98 280t-306 86q-251 0 -345 -183q-55 -108 -69 -237q-14 -130 -14 -298q0 -610 412 -611q233 0 327 138q93 138 93 382zM1108 0v150h-4q-41 -78 -185 -124t-251 -46q-332 0 -470 192t-139 539q-8 337 144 535t477 198q137 0 235 -28t172 -111
l21 -23v131h866v-364h-108q0 10 -2 28q-16 156 -41 193q-38 59 -213 59h-320v-538h125q145 1 180 31t35 173h90v-487h-90q-2 145 -37 175t-178 30h-125v-611h320q110 0 146 18t58 46t32 105t20 159h108v-430h-866z" />
    <glyph glyph-name="oe" unicode="&#x153;" horiz-adv-x="1705" 
d="M1532 328q23 0 35 -1t23 -13t7 -31q-12 -133 -110 -216t-258 -83q-242 -8 -336 133q-98 -137 -351 -137t-352 131q-98 131 -98 379q0 482 461 483q233 0 344 -142q129 141 312 141t266 -68q83 -69 108 -171q25 -103 33 -260h-637q-8 -315 104 -398q51 -38 129 -28
q129 0 178 53q48 53 70 185q4 43 72 43zM1427 543q0 362 -204 362q-179 0 -222 -159q-20 -75 -24 -203h450zM811 439q0 114 -3 165q-9 147 -59 212q-69 89 -206 87q-195 0 -244 -185q-25 -94 -25 -204q0 -111 4 -164q12 -139 71 -219q58 -80 194 -80q207 0 248 186
q20 88 20 202z" />
    <glyph glyph-name="Scaron" unicode="&#x160;" horiz-adv-x="1251" 
d="M555 1507l-254 346h88l238 -211l235 211h88l-254 -346h-141zM1130 401q0 -239 -175 -336q-153 -85 -393 -85q-239 0 -435 88v370h137q2 -29 6 -105t17 -125q12 -48 32 -70q19 -22 55 -46q66 -43 219 -43t253 72t100 215q0 76 -36 140q-13 26 -45 52t-49 39q-17 14 -79 41
t-120 45q-210 67 -322 149q-111 82 -111 263t134 280t339 99t416 -78v-336h-115q-13 149 -24 191q-12 43 -32 63t-49 42q-55 40 -191 40t-218 -61t-82 -191q0 -163 166 -233l236 -84q176 -63 271 -149t95 -247z" />
    <glyph glyph-name="scaron" unicode="&#x161;" horiz-adv-x="909" 
d="M385 1067l-254 346h88l238 -211l235 211h88l-254 -346h-141zM102 309h107q2 -18 5 -62q3 -45 5 -65t14 -52q32 -85 180 -85q95 0 166 47t71 137t-78 129q-70 39 -158 59q-88 21 -125 35q-110 43 -144 111q-20 43 -20 103q0 162 102 234t261 73q159 0 268 -51v-246h-109
q-2 14 -5 52t-4 48t-6 37t-12 34q-8 7 -20 22q-28 34 -137 32t-148 -44t-39 -136q0 -39 33 -77t75 -52t101 -30t95 -25q101 -28 160 -86q59 -57 60 -159q2 -201 -151 -261q-127 -51 -286 -51t-261 57v272z" />
    <glyph glyph-name="Ydieresis" unicode="&#x178;" horiz-adv-x="1478" 
d="M980 1833q44 0 77 -34t33 -77q0 -44 -33 -76t-76 -32t-77 33t-34 77t33 76q33 33 77 33zM563 1614q-45 0 -77 33t-32 77t32 76q32 33 77 33t77 -33t32 -77q0 -45 -32 -77t-77 -32zM440 -4v70q135 0 172 22t37 117v323q0 63 -8 90t-43 80l-195 310q-25 38 -65 102
q-103 168 -155 198q-66 36 -140 44v65l303 -4l301 4v-65q-137 0 -161 -41q-9 -13 -10 -27t-2 -19t4 -17t15 -26q9 -13 11 -16l309 -510l281 492q39 57 36 94q0 70 -145 70v65l221 -4l221 4v-65q-107 -11 -160 -79q-30 -38 -61 -91q-31 -52 -43 -72l-286 -455
q-43 -68 -43 -135v-315q0 -96 36 -118t172 -21v-70q-201 0 -301 4q-98 -4 -301 -4z" />
    <glyph glyph-name="Zcaron" unicode="&#x17d;" horiz-adv-x="1366" 
d="M612 1507l-254 346h88l238 -211l236 211h88l-254 -346h-142zM911 86q107 0 140 18t50 40q17 21 27 89q9 67 13 117t6 66h129v-416h-1210v41l929 1288h-479q-91 0 -123 -9q-31 -9 -46 -14q-54 -18 -68 -130q-3 -16 -9 -58t-10 -67h-108v362h1089v-41l-938 -1286h608z" />
    <glyph glyph-name="zcaron" unicode="&#x17e;" horiz-adv-x="1024" 
d="M442 1067l-254 346h88l238 -211l236 211h88l-254 -346h-142zM946 952v-61l-647 -813h410q65 0 95 47t38 174h104v-299h-870v63l637 811h-373q-29 0 -53 -17t-33 -90q-10 -74 -10 -103h-107v288h809z" />
    <glyph glyph-name="florin" unicode="&#x192;" horiz-adv-x="1138" 
d="M823 705v-78h-235l-96 -697q-43 -362 -369 -362q-84 0 -139 47q-56 47 -56 113t16 86q16 18 60 16q74 -3 84 -49q4 -17 4 -39v-27q0 -31 18 -55t46 -27q30 -1 54 15q78 52 107 333q4 38 7 48l77 598h-215v78h224q26 301 72 422t107 171q82 70 205 70t175 -53
q29 -27 41 -82t-2 -98q-8 -25 -68 -28t-70 16t-12 67t-17 76q-15 29 -59 32q-106 0 -139 -239l-45 -354h225z" />
    <glyph glyph-name="circumflex" unicode="&#x2c6;" 
d="M412 1419l254 -346h-88l-236 211l-238 -211h-88l254 346h142z" />
    <glyph glyph-name="caron" unicode="&#x2c7;" 
d="M270 1067l-254 346h88l238 -211l236 211h88l-254 -346h-142z" />
    <glyph glyph-name="uni02C9" unicode="&#x2c9;" 
d="M55 1155v121h574v-121h-574z" />
    <glyph glyph-name="breve" unicode="&#x2d8;" 
d="M336 1206q94 0 157 49q62 49 68 142h76q-4 -139 -80 -231t-211 -93q-289 0 -305 324h74q12 -91 70 -141q57 -50 151 -50z" />
    <glyph glyph-name="dotaccent" unicode="&#x2d9;" 
d="M340 1174q-45 0 -77 32t-32 77q0 44 32 77t77 33t77 -33t32 -77q0 -45 -32 -77t-77 -32z" />
    <glyph glyph-name="ring" unicode="&#x2da;" 
d="M217 1283q0 -50 37 -87t86 -37t86 37t37 87t-37 86t-86 36t-86 -36t-37 -86zM547 1283q-1 -85 -61 -146t-146 -61t-146 60q-60 62 -60 147t60 145t146 60t146 -60t61 -145z" />
    <glyph glyph-name="ogonek" unicode="&#x2db;" 
d="M291 -297q-55 0 -93 38t-38 90t29 98q30 46 73 71h76q-82 -63 -82 -129q0 -35 25 -59t59 -25q75 0 149 74l33 -43q-127 -115 -231 -115z" />
    <glyph glyph-name="tilde" unicode="&#x2dc;" 
d="M206 1350q78 0 176 -50t135 -49q38 2 68 35t38 70h69q-55 -229 -229 -230q-57 0 -163 48t-138 49q-32 0 -64 -25q-33 -25 -39 -74h-67q16 94 76 160t138 66z" />
    <glyph glyph-name="hungarumlaut" unicode="&#x2dd;" horiz-adv-x="829" 
d="M442 1073h-96l287 303q90 102 160 33q31 -29 17 -71t-65 -72zM113 1073h-97l287 303q90 102 160 33q31 -29 17 -71t-64 -72z" />
    <glyph glyph-name="uni03A9" unicode="&#x3a9;" horiz-adv-x="1488" 
d="M737 1231q-170 0 -274 -131t-105 -414q0 -146 55 -278q23 -53 33 -80t42 -82t72 -124t54 -83l-14 -39h-483l-47 279l49 2q31 -90 61 -118t94 -28h211q-186 150 -262 277q-75 127 -73 288q0 266 168 429t430 163t426 -156t163 -419q0 -185 -116 -340q-88 -118 -228 -242
h221q66 0 93 26t59 120l53 -2l-53 -279h-483l-15 39q8 15 48 77q123 192 168 323q46 132 46 257q-2 276 -112 406q-111 129 -281 129z" />
    <glyph glyph-name="uni03BC" unicode="&#x3bc;" horiz-adv-x="1251" 
d="M317 -449q-96 0 -96 179v1018q-1 92 -29 118t-153 25v61h350v-606q0 -72 5 -114q4 -42 24 -85q37 -81 174 -81q136 0 195 65t59 285v332q0 90 -28 116t-144 27v61h340v-747q0 -92 28 -118t154 -26v-65q-122 0 -184 4l-166 -4v119q-45 -59 -141 -97q-95 -38 -169 -38
t-155 16l33 -266q18 -94 -16 -136t-81 -43z" />
    <glyph glyph-name="pi" unicode="&#x3c0;" horiz-adv-x="1134" 
d="M864 260q0 -168 86 -168q45 0 99 53l24 -41q-76 -127 -209 -127q-86 -1 -133 53t-47 218t21 442q-242 4 -312 4v-32q0 -190 -35 -387t-94 -265q-78 -31 -117 -33l-12 33q96 117 139 314t43 374q-88 0 -138 -20t-118 -68l-26 45q72 88 115 119q88 61 221 60l542 -7
q45 -1 69 13t50 53l47 -19q-25 -125 -71 -178q-41 -10 -136 -10q-8 -90 -8 -426z" />
    <glyph glyph-name="endash" unicode="&#x2013;" horiz-adv-x="1138" 
d="M1139 575v-133h-1139v133h1139z" />
    <glyph glyph-name="emdash" unicode="&#x2014;" horiz-adv-x="2048" 
d="M0 575h2048v-133h-2048v133z" />
    <glyph glyph-name="quoteleft" unicode="&#x2018;" horiz-adv-x="569" 
d="M377 1044q0 -58 -31 -95q-31 -38 -89 -38t-91 48t-33 114q-1 129 59 211t183 150l33 -56q-72 -29 -123 -89t-54 -132q59 10 103 -22q43 -33 43 -91z" />
    <glyph glyph-name="quoteright" unicode="&#x2019;" horiz-adv-x="569" 
d="M182 1300q0 58 31 96t89 38t91 -48t33 -114q0 -129 -60 -211t-182 -150l-32 56q72 29 122 89t54 132q-59 -10 -103 22q-43 32 -43 90z" />
    <glyph glyph-name="quotesinglbase" unicode="&#x201a;" horiz-adv-x="569" 
d="M176 112q0 72 33 106t84 34q63 -10 96 -43t33 -137q0 -209 -242 -338l-33 55q70 27 124 89t51 130l-41 -2q-26 0 -39 10q-66 24 -66 96z" />
    <glyph glyph-name="quotedblleft" unicode="&#x201c;" horiz-adv-x="1024" 
d="M825 1046q1 -56 -31 -96q-32 -39 -90 -39t-91 47q-32 47 -31 115q0 129 59 211t182 150l33 -56q-4 -2 -11 -4t-11 -4q-156 -86 -154 -213q59 9 102 -23t43 -88zM377 1044q0 -58 -31 -95q-31 -38 -89 -38t-91 48t-33 114q-1 129 59 211t183 150l33 -56q-72 -29 -123 -89
t-54 -132q59 10 103 -22q43 -33 43 -91z" />
    <glyph glyph-name="quotedblright" unicode="&#x201d;" horiz-adv-x="1024" 
d="M647 1300q0 58 31 96t89 38t91 -48t33 -114q1 -129 -59 -211t-183 -150l-33 56q72 29 123 89t54 132q-59 -10 -103 22q-43 32 -43 90zM199 1300q0 58 30 96q31 38 89 38t92 -48t32 -114q0 -129 -59 -211t-182 -150l-33 56q72 29 123 89t53 132q-59 -10 -102 22t-43 90z
" />
    <glyph glyph-name="quotedblbase" unicode="&#x201e;" horiz-adv-x="1024" 
d="M774 8l-41 -2q-24 0 -39 10q-66 24 -66 96t34 106q33 34 83 34q63 -10 97 -43t32 -137q-1 -210 -241 -338l-33 55q70 27 124 89t50 130zM180 112q0 72 33 106t84 34q63 -10 96 -43t33 -137q0 -209 -242 -338l-32 55q70 27 124 89t50 130l-41 -2q-26 0 -39 10
q-66 24 -66 96z" />
    <glyph glyph-name="dagger" unicode="&#x2020;" horiz-adv-x="1138" 
d="M641 952h94q156 0 303 47l11 -22l-43 -84l43 -82l-11 -23q-147 47 -303 48h-94v-320q0 -193 41 -498l-23 -18l-100 53l-92 -53l-23 18q41 305 41 498v320h-94q-156 0 -303 -48l-10 23l43 82l-43 84l10 22q147 -47 303 -47h94v95q-16 233 -39 348l23 18l94 -41l94 41
l23 -18q-23 -115 -39 -348v-95z" />
    <glyph glyph-name="daggerdbl" unicode="&#x2021;" horiz-adv-x="1138" 
d="M643 1053h115q164 0 268 43l10 -21l-45 -78l45 -82l-10 -20q-104 43 -268 43h-115v-465h115q164 0 268 43l10 -20l-45 -78l45 -82l-10 -21q-104 43 -268 43h-115v-118q6 -111 41 -222l-20 -18l-93 47l-98 -47l-20 18q35 111 41 222v118h-115q-164 0 -268 -43l-11 21
l45 82l-45 78l11 20q104 -43 268 -43h115v465h-115q-164 0 -268 -43l-11 20l45 82l-45 78l11 21q104 -43 268 -43h115v121q-6 111 -41 221l20 18l92 -47l99 47l20 -18q-35 -111 -41 -221v-121z" />
    <glyph glyph-name="bullet" unicode="&#x2022;" horiz-adv-x="1241" 
d="M268 707q0 145 104 248t248 103q146 0 249 -102q103 -104 103 -249t-102 -249q-104 -104 -249 -104t-249 104t-104 249z" />
    <glyph glyph-name="ellipsis" unicode="&#x2026;" horiz-adv-x="2048" 
d="M1710 -20q-53 0 -84 38t-31 96q0 60 31 98t84 38t84 -38t31 -97t-31 -97t-84 -38zM1026 -20q-53 0 -84 38t-31 96q0 60 31 98t84 38t84 -38t31 -97t-31 -97t-84 -38zM342 -20q-53 0 -84 38t-31 96q0 60 31 98t84 38t84 -38t31 -97t-31 -97t-84 -38z" />
    <glyph glyph-name="perthousand" unicode="&#x2030;" horiz-adv-x="2048" 
d="M274 -66l793 1479h98l-792 -1479h-99zM397 1325q-106 0 -134 -117q-19 -80 -19 -190q0 -254 141 -254q151 0 151 280t-139 281zM678 1052q0 -138 -77 -232t-217 -93q-140 -1 -210 89t-70 231t81 234t215 93t206 -92t72 -230zM1731 580q-105 0 -135 -117q-19 -80 -19 -191
q0 -254 141 -254q152 0 152 281t-139 281zM1436 299q0 141 81 235t215 93q134 0 206 -92q72 -93 71 -231q0 -138 -77 -231t-217 -93t-210 89q-69 89 -69 230zM1069 580q-106 0 -134 -117q-18 -76 -20 -191q0 -254 142 -254q151 0 151 281t-139 281zM774 299q0 141 81 235
t214 93q133 0 207 -92q74 -93 74 -231t-78 -231t-217 -93t-210 89t-71 230z" />
    <glyph glyph-name="guilsinglleft" unicode="&#x2039;" horiz-adv-x="569" 
d="M473 98h-80l-313 383v56l313 385h80v-13l-250 -401l250 -397v-13z" />
    <glyph glyph-name="guilsinglright" unicode="&#x203a;" horiz-adv-x="569" 
d="M76 918h80l313 -381v-58l-313 -385h-80v12l252 402l-252 397v13z" />
    <glyph glyph-name="fraction" unicode="&#x2044;" horiz-adv-x="342" 
d="M-172 0h-104l794 1300h103z" />
    <glyph glyph-name="Euro" unicode="&#x20ac;" horiz-adv-x="1138" 
d="M408 526q10 -479 271 -479q156 0 195 69q29 52 29 103q-1 11 15 25t34 14h54q51 0 51 -59q-1 -103 -105 -161t-258 -58q-293 0 -392 164q-48 81 -68 170q-19 89 -25 212h-150l21 78h127v168h-148l21 78h131q20 229 112 362q107 156 375 156q145 0 349 -76v-286h-107
q-16 147 -72 222t-186 75q-256 0 -274 -453h489l-23 -78h-466v-168h417l-24 -78h-393z" />
    <glyph glyph-name="afii61289" unicode="&#x2113;" horiz-adv-x="823" 
d="M348 893v-234q188 217 189 455q0 84 -24 139t-69 56q-56 -1 -76 -93t-20 -323zM451 -16q-135 0 -201 71q-72 84 -72 277v137l-121 -84l-24 47l145 109v239q0 228 20 328t85 170q76 92 172 92t143 -73t47 -202q0 -241 -297 -524v-157q0 -178 45 -250t135 -72
q122 1 222 146l36 -35q-123 -219 -335 -219z" />
    <glyph glyph-name="trademark" unicode="&#x2122;" horiz-adv-x="2004" 
d="M1704 731v588h-4l-301 -733h-19l-305 733h-4v-588q0 -63 16 -79t84 -19v-47h-260v47q68 4 84 19t17 79v609q0 6 -2 10l-4 8t-6 6q-14 6 -23 6h-49v43h246l253 -600l256 600h252v-43h-43q-29 0 -42 -10t-14 -20t-1 -44v-565q0 -63 16 -79t84 -19v-47h-331v47q68 3 84 19
t16 79zM498 1356v-631q0 -63 16 -77t113 -15v-47h-389v47q94 2 111 14t18 78v631h-93q-86 0 -118 -31t-31 -115h-53v203h721v-203h-54q0 84 -31 115q-32 31 -118 31h-92z" />
    <glyph glyph-name="Omega" unicode="&#x2126;" horiz-adv-x="1488" 
d="M737 1231q-170 0 -274 -131t-105 -414q0 -146 55 -278q23 -53 33 -80t42 -82t72 -124t54 -83l-14 -39h-483l-47 279l49 2q31 -90 61 -118t94 -28h211q-186 150 -262 277q-75 127 -73 288q0 266 168 429t430 163t426 -156t163 -419q0 -185 -116 -340q-88 -118 -228 -242
h221q66 0 93 26t59 120l53 -2l-53 -279h-483l-15 39q8 15 48 77q123 192 168 323q46 132 46 257q-2 276 -112 406q-111 129 -281 129z" />
    <glyph glyph-name="estimated" unicode="&#x212e;" horiz-adv-x="1589" 
d="M1257 668v360q0 25 -18 43q-190 186 -446 186t-445 -192q-18 -18 -18 -45v-352q0 -12 10 -13h909q8 1 8 13zM1526 621h-1186q-10 0 -10 -9v-358q0 -20 16 -41q188 -195 462 -195t460 218h104q-100 -117 -253 -186t-326 -68q-303 0 -518 192q-214 193 -214 465t214 466
q213 193 517 193t519 -192t215 -467v-18z" />
    <glyph glyph-name="partialdiff" unicode="&#x2202;" horiz-adv-x="1067" 
d="M571 733h-2q-133 0 -215 -106q-88 -127 -88 -340q0 -106 51 -174t140 -68q137 0 227 191q63 129 98 360q-23 47 -82 92t-129 45zM524 813q76 0 152 -36t123 -101q14 143 14 196q7 297 -154 417q-70 52 -151 52q-135 0 -281 -116q-27 -4 -53 44t-12 83q135 80 287 80
q266 0 417 -265q100 -181 100 -445t-98 -454q-141 -285 -411 -284q-168 0 -270 103q-101 103 -101 283t117 304q124 139 321 139z" />
    <glyph glyph-name="Delta" unicode="&#x2206;" horiz-adv-x="1277" 
d="M981 92l-406 965l-395 -965h801zM1206 0h-1136v49l518 1219l84 22l534 -1241v-49z" />
    <glyph glyph-name="product" unicode="&#x220f;" horiz-adv-x="1380" 
d="M1323 1282v-51q-127 -8 -154 -30t-26 -103v-1051q-1 -94 27 -119t149 -32v-54h-524v54q119 8 143 30t25 121v1106q-1 41 -13 52t-57 12h-412q-43 1 -54 -9t-11 -47v-1114q0 -96 20 -120t131 -31v-54h-508v54q121 10 148 34t26 117v1051q0 84 -27 104q-28 20 -153 29v51
h1270z" />
    <glyph glyph-name="summation" unicode="&#x2211;" horiz-adv-x="1112" 
d="M53 -164v49l443 633l-430 715v49h911q2 -47 24 -315l-53 -11q-27 129 -69 203q-19 35 -59 47t-146 13h-383l362 -590l-440 -643h518q133 0 175 34t106 199l53 -14l-88 -369h-924z" />
    <glyph glyph-name="minus" unicode="&#x2212;" horiz-adv-x="1241" 
d="M1137 453h-1033v131h1033v-131z" />
    <glyph glyph-name="uni2215" unicode="&#x2215;" horiz-adv-x="342" 
d="M-172 0h-104l794 1300h103z" />
    <glyph glyph-name="uni2219" unicode="&#x2219;" horiz-adv-x="569" 
d="M285 391q-51 0 -90 38t-39 90t39 90t90 38t89 -38t38 -89t-38 -90t-89 -39z" />
    <glyph glyph-name="radical" unicode="&#x221a;" horiz-adv-x="1087" 
d="M1057 1636l-328 -1906l-43 -23l-432 1020l-170 -84l-23 64l312 149l334 -815h4l268 1614z" />
    <glyph glyph-name="infinity" unicode="&#x221e;" horiz-adv-x="1466" 
d="M1077 723h-2q-72 0 -133 -52q-96 -81 -145 -147q96 -114 155 -158t135 -44t124 60q49 60 49 144t-52 140t-131 57zM395 322h2q42 0 93 24t87 63q37 39 45 47t27 30q20 24 25 28q-73 92 -117 135q-77 74 -165 74q-87 0 -137 -59q-50 -58 -50 -144t53 -142t137 -56z
M1372 528v-2q0 -139 -88 -225t-207 -86q-84 0 -165 51t-179 168q-92 -106 -170 -162q-79 -56 -189 -57q-110 0 -196 87t-86 219t87 219t216 87q168 0 346 -219q109 119 158 156q90 63 203 62q114 -1 192 -83t78 -215z" />
    <glyph glyph-name="integral" unicode="&#x222b;" horiz-adv-x="735" 
d="M694 1476q0 -42 -24 -65t-61 -23t-61 48q-24 47 -42 47q-90 0 -76 -314l35 -712q41 -834 -303 -834q-51 0 -86 28q-35 27 -36 65t31 66q33 28 67 28t58 -52t42 -51q43 1 63 87t12 229l-37 753q-41 788 299 789q43 0 81 -24q38 -23 38 -65z" />
    <glyph glyph-name="approxequal" unicode="&#x2248;" horiz-adv-x="1077" 
d="M744 340q48 0 90 32t88 105l73 -67q-106 -180 -258 -181q-82 -1 -207 69t-186 70t-103 -35q-42 -36 -89 -104l-74 68q43 82 118 132t146 50t112 -17q42 -16 51 -22t36 -20t53 -29q27 -16 38 -21q11 -6 38 -18q26 -12 74 -12zM739 561q-55 -1 -100 17t-136 70t-161 52
q-98 0 -190 -135l-74 66q43 82 118 132t138 50t87 -8q25 -8 37 -11q12 -4 31 -14q21 -10 25 -12t27 -14l22 -15q4 -2 23 -13t36 -19q17 -9 22 -11q45 -22 95 -22q97 0 183 137l73 -68q-106 -182 -256 -182z" />
    <glyph glyph-name="notequal" unicode="&#x2260;" horiz-adv-x="1077" 
d="M981 762v-113h-332l-123 -264h455v-113h-502l-100 -221l-92 39l84 182h-277v113h324l121 264h-445v113h492l100 217l90 -41l-80 -176h285z" />
    <glyph glyph-name="lessequal" unicode="&#x2264;" horiz-adv-x="1077" 
d="M983 -4h-887v113h887v-113zM977 182l-873 418v121l873 416v-131l-752 -342v-5l752 -346v-131z" />
    <glyph glyph-name="greaterequal" unicode="&#x2265;" horiz-adv-x="1077" 
d="M979 -4h-883v113h883v-113zM106 1137l873 -418v-119l-873 -418v131l750 344v5l-750 344v131z" />
    <glyph glyph-name="lozenge" unicode="&#x25ca;" horiz-adv-x="1110" 
d="M887 614l-328 633h-6l-330 -631l330 -636h6zM1018 614l-397 -751h-134l-395 751l400 756h129z" />
    </font>
</defs>
</svg>
