<?xml version="1.0" standalone="no"?>
<!DOCTYPE svg PUBLIC "-//W3C//DTD SVG 1.1//EN" "http://www.w3.org/Graphics/SVG/1.1/DTD/svg11.dtd" >
<svg xmlns="http://www.w3.org/2000/svg">
<metadata>
Created by FontPrep 20130207 at Tue Feb 25 12:34:00 2014
 By Administrator
Copyright (c) 1985, 1987, 1990, 2002 Adobe Systems Incorporated.  All Rights Reserved.
</metadata>
<defs>
<font id="5d400afe9b39443e678f7335d13deb0b" horiz-adv-x='1024' >
  <font-face 
    font-family="MeliorLTStd-Bold"
    font-weight="700"
    font-stretch="normal"
    units-per-em="2048"
    panose-1="2 4 7 3 6 5 6 4 8 4"
    ascent="1526"
    descent="-522"
    x-height="967"
    cap-height="1417"
    bbox="-270 -516 2048 1934"
    underline-thickness="102"
    underline-position="-153"
    unicode-range="U+0020-FB02"
  />
<missing-glyph horiz-adv-x="1024" 
d="M102 1239v-1044l349 522zM164 102h696l-348 523zM573 717l349 -522v1044zM512 809l348 522h-696zM0 0v1434h1024v-1434h-1024z" />
    <glyph glyph-name="fi" unicode="fi" horiz-adv-x="1251" 
d="M45 76q97 0 113 16t26 25t8 62t-2 67v622h-145v95h145q0 137 15 228q35 226 184 295q87 40 233 40t205 -117q35 55 107 55q139 0 139 -154t-131 -153q-74 2 -100 34t-31 99h-4q-18 -36 -75 -26q-58 10 -58 28l-17 97q-10 59 -86 59q-104 0 -106 -184v-301h604v-789
q0 -69 28 -81q41 -17 109 -17v-80q-86 4 -271 4t-259 -4v80q31 4 50 6q20 2 34 11t21 12q17 7 16 66q-2 59 -2 75v510q4 55 -17 73q-22 19 -34 27t-38 10l-39 3t-44 0t-39 -1h-119v-622q0 -12 -1 -43t3 -61t11 -34q7 -5 24 -18t82 -14v-80q-74 4 -256 4l-283 -4v80z" />
    <glyph glyph-name="fl" unicode="fl" horiz-adv-x="1251" 
d="M35 76q79 0 98 11q20 11 30 15q20 9 19 71q-2 61 -2 71v624h-145v95h145q0 205 30 303t71 147q95 113 275 113t237 -103l256 103h18v-1282q0 -12 -1 -45t0 -40t5 -29t12 -26t27 -16t94 -12v-80q-86 4 -272 4t-268 -4v80q89 0 106 23q8 11 17 23t8 61q-2 49 -2 61v1097
l-160 -73l-21 12q0 4 1 22t0 28q-1 12 -2 30t-5 30q-17 49 -61 48q-44 0 -59 -24t-21 -38t-8 -42t-3 -39t0 -42t1 -32v-258h194v-95h-194v-624q0 -12 -1 -44t0 -39t4 -29t11 -27t24 -17t85 -12v-80q-74 4 -261 4l-282 -4v80z" />
    <glyph glyph-name=".notdef" horiz-adv-x="1024" 
d="M102 1239v-1044l349 522zM164 102h696l-348 523zM573 717l349 -522v1044zM512 809l348 522h-696zM0 0v1434h1024v-1434h-1024z" />
    <glyph glyph-name=".null" horiz-adv-x="0" 
 />
    <glyph glyph-name="nonmarkingreturn" horiz-adv-x="681" 
 />
    <glyph glyph-name="space" unicode=" " horiz-adv-x="569" 
 />
    <glyph glyph-name="exclam" unicode="!" horiz-adv-x="681" 
d="M340 -20q-68 0 -106 43t-37 122q0 166 143 172q145 -5 145 -171t-145 -166zM340 1444q74 0 110 -43t34 -99t-5 -108l-67 -649q-10 -82 -72 -107q-61 25 -72 107l-67 649q-2 52 -4 108t33 99q36 43 110 43z" />
    <glyph glyph-name="quotedbl" unicode="&#x22;" horiz-adv-x="823" 
d="M639 1413q61 0 104 -54t33 -110l-90 -489h-94l-90 489q-10 55 33 109t104 55zM184 1413q60 0 104 -54t34 -110l-91 -489h-94l-90 489q-10 55 33 109t104 55z" />
    <glyph glyph-name="numbersign" unicode="#" 
d="M707 809h-220l-32 -217h219zM1020 592v-154h-215l-66 -438h-153l65 438h-221l-65 -438h-154l65 438h-210v154h235l33 217h-211v154h233l62 409h153l-61 -409h219l59 409h154l-59 -409h190v-154h-213l-33 -217h193z" />
    <glyph glyph-name="dollar" unicode="$" 
d="M586 1434v-86q223 0 422 -64v-299h-142q-10 301 -280 279v-443q20 -6 139 -35t190 -73q71 -43 89 -71q56 -86 65 -135q8 -48 8 -99q0 -204 -138 -306t-353 -116v-217h-88v213q-231 0 -422 65v336h141q0 -313 281 -322v502q-264 74 -344 162t-78 233q0 174 119 268
t303 115v93h88zM586 537v-471q94 16 151 80t57 163q0 97 -52 149t-156 79zM498 850v399q-147 -47 -148 -209q1 -129 148 -190z" />
    <glyph glyph-name="percent" unicode="%" horiz-adv-x="1820" 
d="M573 -141h-108l772 1667h109zM1536 348q0 212 -66 267q-35 30 -88 30q-110 0 -135 -116q-18 -84 -18 -159q0 -198 32 -254q39 -73 121 -73q45 0 76 23t52 61t23 103q3 65 3 118zM1382 -20q-178 0 -271 98t-93 270t93 270t271 98t272 -98t93 -270q1 -172 -93 -270
t-272 -98zM432 741q45 0 76 23q31 24 52 62q22 38 24 103t2 117q0 211 -66 268q-35 30 -88 30q-110 -1 -135 -116q-18 -84 -18 -160t1 -100q1 -26 8 -76t22 -78t46 -50t76 -23zM432 676q-178 0 -271 98t-93 270t93 270t271 99q178 0 271 -98q93 -99 93 -271t-92 -270
q-94 -98 -272 -98z" />
    <glyph glyph-name="ampersand" unicode="&#x26;" horiz-adv-x="1366" 
d="M211 996q0 150 102 236q103 85 241 85q138 1 221 -59t83 -176t-64 -191q-64 -74 -176 -139l312 -346q9 17 19 31q11 13 21 29t12 22q4 7 18 37t14 81q-2 53 -96 53h-48v84q39 -2 134 -2h189q95 0 132 2v-84q-94 5 -139 -29t-101 -126l-102 -160q53 -56 157 -178
q44 -52 86 -65t99 -23v-82l-215 4l-184 -4l-119 149q-180 -166 -432 -165q-133 0 -225 86t-93 217q0 78 48 164q38 71 257 217l-24 28q-127 154 -127 304zM575 1243q-131 1 -131 -159t125 -275q135 92 136 264q0 70 -31 120t-99 50zM303 396q0 -98 79 -190q79 -91 166 -91
t144 43q21 14 64 49l-340 389l-66 -59q-47 -43 -47 -141z" />
    <glyph glyph-name="quotesingle" unicode="'" horiz-adv-x="464" 
d="M231 1413q61 0 105 -54t33 -110l-90 -489h-95l-90 489q-10 55 33 109t104 55z" />
    <glyph glyph-name="parenleft" unicode="(" horiz-adv-x="681" 
d="M618 1452q-79 0 -130 -66q-50 -66 -66 -129t-26 -102t-16 -105q-5 -66 -9 -105q-6 -57 -6 -209v-130q0 -393 32 -559q57 -287 221 -289v-73q-18 6 -79 22q-61 15 -95 27t-91 43q-56 31 -90 69q-86 95 -123 283q-22 111 -22 475t27 506q67 365 473 416v-74z" />
    <glyph glyph-name="parenright" unicode=")" horiz-adv-x="681" 
d="M55 1452v74q406 -51 473 -416q27 -141 27 -505q1 -365 -21 -477q-35 -183 -123 -283q-34 -39 -90 -69q-57 -30 -91 -41t-95 -27t-80 -23v73q79 0 124 60q24 32 43 62t33 83q13 53 24 92q10 39 15 106t10 114t5 138v323q0 148 -5 199q-5 52 -11 122t-28 155
q-23 86 -43 119q-49 85 -89 103q-41 18 -78 18z" />
    <glyph glyph-name="asterisk" unicode="*" 
d="M885 840l-172 -140l-144 287l-143 -287l-172 140l250 188l-311 53l94 197l245 -182l-73 317h221l-74 -317l246 182l94 -197l-311 -53z" />
    <glyph glyph-name="plus" unicode="+" horiz-adv-x="1241" 
d="M532 610v424h177v-424h428v-176h-428v-434h-177v434h-428v176h428z" />
    <glyph glyph-name="comma" unicode="," horiz-adv-x="569" 
d="M297 319q80 0 119 -61t39 -145q0 -135 -71 -245t-194 -171l-43 63q166 98 187 240q-76 -35 -131 18t-56 123q0 178 150 178z" />
    <glyph glyph-name="hyphen" unicode="-" horiz-adv-x="681" 
d="M596 356h-508v246h508v-246z" />
    <glyph glyph-name="period" unicode="." horiz-adv-x="569" 
d="M287 -20q-68 0 -106 43t-38 122q0 166 144 172q145 -5 145 -171t-145 -166z" />
    <glyph glyph-name="slash" unicode="/" horiz-adv-x="569" 
d="M8 -20l529 1546h155l-528 -1546h-156z" />
    <glyph glyph-name="zero" unicode="0" 
d="M433 1135q-19 -43 -37 -98t-15 -217q2 -161 2 -177t-1 -85t2 -171t16 -147q12 -45 32 -89t53 -66t78 -22t86 27t70 131q30 104 27 337q-1 64 -1 86t2 174t-16 214t-38 104q-38 83 -130 83q-93 0 -130 -84zM553 -20q-119 0 -212 40t-143 98t-78 152t-35 174t-7 184
q0 339 79 472q79 132 215 175q84 25 202 25t211 -40t143 -98t79 -152t35 -174q23 -284 -19 -508q-15 -82 -49 -140q-84 -140 -219 -182q-83 -26 -202 -26z" />
    <glyph glyph-name="one" unicode="1" 
d="M477 242v862q-193 -131 -356 -193v129q282 86 411 240h220v-1038q0 -102 38 -132t191 -30v-84l-387 4l-389 -4v84q31 4 89 7t80 8t52 19t41 46q10 31 10 82z" />
    <glyph glyph-name="two" unicode="2" 
d="M680 1001q0 227 -150 222q-76 0 -114 -52q-26 -34 -29 -88q-2 -55 -2 -96t-14 -59q-15 -18 -27 -20t-33 -3h-118q-50 0 -57 29q-3 12 -3 16v37q1 137 107 225t317 88q426 0 426 -292q0 -131 -46 -207t-163 -168l-495 -391h495q78 2 104 40t35 152h84v-438l-465 4l-432 -4
v227q580 463 580 778z" />
    <glyph glyph-name="three" unicode="3" 
d="M678 1001q0 109 -35 164t-125 56q-160 0 -149 -213q2 -33 -26 -55t-52 -19h-107q-31 0 -48 19t-13 51q25 297 385 296q471 0 471 -325q0 -231 -240 -285v-8q147 -37 203 -108t57 -222q0 -373 -448 -372q-252 0 -350 77q-99 77 -99 226q0 82 70 82h102q44 -1 58 -15
t16 -38q9 -108 21 -149q12 -40 49 -73t96 -33q117 0 152 106q26 84 26 208q0 268 -207 268l-133 -12v104l131 -6q195 0 195 276z" />
    <glyph glyph-name="four" unicode="4" 
d="M596 520v621q-139 -227 -420 -621h420zM870 1280v-760h187v-186h-187v-74q-2 -35 -2 -49q0 -85 20 -105q20 -19 37 -20q59 -6 80 -6h52v-84l-332 4l-336 -4v84l85 4q46 0 71 11q26 11 30 19q5 8 13 20q8 13 8 54v146h-547v203l522 743h299z" />
    <glyph glyph-name="five" unicode="5" 
d="M223 602q-37 0 -37 21v24q25 268 11 633h747q18 0 10 -23l-75 -215h-566l-12 -309q117 117 289 117q414 0 414 -435t-486 -435q-161 0 -286 71q-65 37 -97 103q-33 66 -20 149q10 57 55 57h133q27 2 44 -15t13 -42l2 -61q0 -37 6 -55q6 -17 13 -37q6 -20 14 -28
q9 -8 21 -22q31 -33 94 -34q105 0 143 73q39 73 39 262v19q0 184 -44 248q-48 72 -156 72q-60 0 -98 -26q-38 -24 -64 -81q-18 -37 -51 -31h-56z" />
    <glyph glyph-name="six" unicode="6" 
d="M410 422v-71q0 -59 11 -116q22 -112 65 -143q72 -52 148 -26q27 9 52 41q26 32 34 64q7 32 13 56q6 23 6 65v124q0 171 -15 203q-16 31 -34 61q-33 54 -120 55q-87 0 -120 -58q-32 -58 -36 -129t-4 -126zM791 963q-35 0 -46 53q-20 139 -47 165t-54 30q-90 15 -131 -10
q-40 -25 -57 -51q-16 -26 -28 -76q-18 -76 -18 -234v-88q119 70 239 69q393 0 393 -372q0 -236 -114 -353q-114 -116 -363 -116q-248 0 -354 138q-107 138 -107 441t34 428q34 124 77 170q43 47 91 80q92 63 267 63q236 -2 328 -76t84 -204q-4 -55 -49 -57h-145z" />
    <glyph glyph-name="seven" unicode="7" 
d="M352 1053q-113 0 -106 -205h-84v432h876v-172q-42 -87 -98 -198q-238 -468 -344 -765q-29 -78 -51 -149l-152 4l-135 -4q-24 0 -24 28q1 11 8 21l307 481q53 80 171 256t179 271h-547z" />
    <glyph glyph-name="eight" unicode="8" 
d="M999 1006q0 -123 -57 -200t-162 -91v-6q127 -19 195 -117q67 -98 67 -241t-100 -258t-373 -114t-373 114t-100 257q0 142 68 240t194 108v11q-104 18 -161 96t-57 166t17 140q63 192 412 189q257 0 343 -86q87 -86 87 -208zM420 977q0 -179 65 -220q33 -22 84 -22
q103 0 130 85q20 65 20 157q1 246 -149 246t-150 -246zM737 362q0 50 -1 78q-3 99 -36 149q-39 64 -131 64t-130 -62t-38 -227t39 -233t128 -69q90 -1 126 61q35 62 39 125q4 64 4 114z" />
    <glyph glyph-name="nine" unicode="9" 
d="M221 315h103q72 0 71 -63q4 -102 43 -152t137 -39q112 12 135 138q18 96 13 198q-4 103 -2 127q-104 -70 -275 -70t-262 102q-90 101 -90 275q0 241 118 355t355 114q236 0 345 -120q48 -54 77 -140t37 -171t7 -185q-4 -438 -99 -552q-73 -88 -133 -109
q-122 -43 -262 -43q-387 0 -389 262q0 27 2 39t18 23t51 11zM571 1219q-53 1 -83 -15q-80 -41 -89 -209q-4 -71 -3 -97t1 -34q0 -141 34 -233t122 -90q119 4 150 100q24 75 24 164v104q0 94 -14 153q-13 58 -27 78t-38 49q-24 30 -77 30z" />
    <glyph glyph-name="colon" unicode=":" horiz-adv-x="569" 
d="M283 -20q-68 0 -106 43t-38 122q0 166 144 172q145 -5 145 -171t-145 -166zM283 645q-68 0 -106 43t-38 123q0 166 144 172q145 -6 145 -172t-145 -166z" />
    <glyph glyph-name="semicolon" unicode=";" horiz-adv-x="569" 
d="M315 647q-139 0 -139 168t141 168q70 0 104 -45t34 -119q-1 -172 -140 -172zM166 141q0 178 149 178q80 0 119 -61t39 -145q-1 -135 -71 -245t-193 -171l-43 63q166 98 186 240q-76 -35 -131 18t-55 123z" />
    <glyph glyph-name="less" unicode="&#x3c;" horiz-adv-x="1241" 
d="M328 522l815 -375v-172l-1043 471v152l1043 471v-172z" />
    <glyph glyph-name="equal" unicode="=" horiz-adv-x="1241" 
d="M1137 410v-177h-1033v177h1033zM1137 811v-176h-1033v176h1033z" />
    <glyph glyph-name="greater" unicode="&#x3e;" horiz-adv-x="1241" 
d="M98 147l815 375l-815 375v172l1043 -471v-152l-1043 -471v172z" />
    <glyph glyph-name="question" unicode="?" horiz-adv-x="909" 
d="M430 -20q-68 0 -106 43t-37 122q0 166 143 172q145 -5 145 -171t-145 -166zM238 1069h-97q-33 0 -50 10q-17 11 -19 21t-2 30q-16 156 89 235t275 79q408 0 408 -289q0 -133 -87 -211t-223 -80l-32 -356q-2 -35 -70 -74q-25 12 -35 21q-11 8 -25 20t-14 27l-39 401
q143 -18 198 41q54 59 54 209t-58 188q-28 18 -69 19q-143 0 -135 -182v-16q0 -13 -1 -16q-1 -4 -2 -16t-3 -16t-5 -13q-11 -32 -58 -32z" />
    <glyph glyph-name="at" unicode="@" horiz-adv-x="1529" 
d="M1055 365q45 0 97 47t89 98q115 164 115 347t-146 325t-406 141q-259 0 -438 -172q-180 -172 -180 -444q0 -273 188 -441t466 -168q143 0 269 74t210 199h135q-90 -179 -264 -285t-373 -106q-315 0 -533 202t-218 515q0 314 210 531q212 216 512 216t488 -175t188 -411
t-143 -391q-68 -68 -158 -120t-163 -52q-72 0 -110 49t-44 123q-60 -84 -112 -122t-132 -38q-126 0 -196 82t-70 213q0 174 131 318t301 143q70 0 116 -39t56 -104h4l31 127h199l-156 -580q-29 -102 37 -102zM641 369q59 0 111 60q51 60 82 132q68 150 67 293q0 55 -23 100
q-24 45 -78 45t-106 -54t-86 -131q-71 -166 -71 -282q0 -163 104 -163z" />
    <glyph glyph-name="A" unicode="A" horiz-adv-x="1593" 
d="M545 666h348l-176 495zM1211 0q-231 0 -337 -4v84l23 2q124 10 148 46q8 10 10 28t-25 106l-102 309h-416l-96 -317q-18 -66 -20 -94t39 -52q42 -23 138 -28v-84l-282 4l-256 -4v84q117 2 170 51q51 49 153 330q37 100 164 434t191 522q73 -4 109 -4t110 4l383 -1081
q6 -14 29 -85t40 -90q49 -56 67 -62q51 -19 101 -19v-84q-110 4 -341 4z" />
    <glyph glyph-name="B" unicode="B" horiz-adv-x="1366" 
d="M225 1167q0 106 -30 141q-31 34 -150 25v84l383 -4l381 4q186 0 286 -66q99 -67 99 -247q0 -299 -369 -340v-14q229 -6 321 -92t91 -261q0 -410 -518 -401l-344 4l-330 -4v84q121 -2 151 32t29 134v921zM524 793h99q117 0 193 62t73 212q0 266 -248 266q-60 0 -117 -10
v-530zM524 702v-610q223 -12 307 50t84 274q0 160 -71 223q-72 63 -236 63h-84z" />
    <glyph glyph-name="C" unicode="C" horiz-adv-x="1366" 
d="M1300 418v-371q-287 -68 -544 -67q-340 0 -514 175t-174 513q0 397 169 586t562 190q199 0 501 -62v-350h-145q-16 109 -31 161q-14 52 -52 95t-100 55q-62 13 -162 13t-170 -31q-69 -31 -111 -87q-43 -56 -71 -120q-64 -141 -63 -450q0 -602 420 -602q184 0 254 82
t78 270h153z" />
    <glyph glyph-name="D" unicode="D" horiz-adv-x="1478" 
d="M35 80q94 0 118 13q25 13 35 31t9 56v1040q1 54 -9 70t-34 30t-119 13v84q82 -4 311 -4l483 4q331 0 454 -185q62 -93 88 -212t26 -295t-28 -306q-62 -286 -290 -375q-123 -48 -307 -48l-426 4q-231 0 -311 -4v84zM594 86q290 0 389 179q86 156 86 421q0 125 -6 201
t-30 161t-64 140q-41 55 -115 95q-132 72 -358 38v-1229q53 -6 98 -6z" />
    <glyph glyph-name="E" unicode="E" horiz-adv-x="1251" 
d="M903 995q-2 -41 -2 -241t2 -240h-112q-8 98 -38 146t-116 53h-125v-623h227q164 0 203 46q18 22 36 46t36 207h149v-393q-532 4 -740 4t-380 -4v84q95 0 129 15t38 44q3 29 3 53v1028q0 56 -10 72t-37 28t-123 13v84q171 -4 379 -4t741 4v-336h-149q-21 183 -56 204
q-55 35 -113 37q-59 1 -132 1h-201v-524h125q86 0 117 49t37 147h112z" />
    <glyph glyph-name="F" unicode="F" horiz-adv-x="1251" 
d="M535 713v-467q0 -104 10 -125q20 -37 143 -41h41v-84q-110 4 -343 4t-331 -4v84q144 0 167 36q14 20 13 60q-2 39 1 70v974q0 54 -15 78q-22 35 -155 35v84q172 -4 380 -4t740 4v-336h-150q-10 116 -18 143q-17 56 -37 70q-38 25 -57 25q-20 0 -54 3t-60 2t-75 -1h-200
v-524h124q86 0 117 49t37 147h113l-4 -239q0 -160 4 -242h-113q-8 98 -38 146t-116 53h-124z" />
    <glyph glyph-name="G" unicode="G" horiz-adv-x="1593" 
d="M1389 395v-327q-86 2 -240 -35t-203 -45t-164 -8q-690 0 -690 702q0 402 178 582t580 180q211 0 502 -60v-352h-146q-16 111 -30 162t-52 95q-38 45 -101 57q-62 12 -174 12t-193 -42t-126 -104q-112 -156 -112 -534q0 -614 409 -615q70 0 143 23t105 68q15 21 15 282v34
q0 43 -10 50q-10 6 -20 20t-28 12q-18 -1 -45 7t-61 3t-82 -1v84q269 0 395 -4q231 0 299 4v-84q-121 6 -141 -57q-10 -33 -9 -70t1 -39z" />
    <glyph glyph-name="H" unicode="H" horiz-adv-x="1593" 
d="M33 80q141 0 167 36q14 20 13 60q-2 39 0 70v921q-2 31 -1 56t-2 53t-31 38q-48 19 -146 19v84q98 -4 329 -4q232 0 330 4v-84l-94 -4q-18 0 -32 -7t-23 -9q-9 -3 -15 -15t-11 -16t-5 -28v-466h563v379q-2 31 -1 56t-2 53t-31 38q-48 19 -146 19v84q98 -4 331 -4
q232 0 328 4v-84l-94 -4q-18 0 -32 -7t-23 -9q-10 -3 -15 -15q-4 -12 -10 -16t-6 -28v-1008q0 -102 8 -121q20 -43 142 -45h30v-84q-98 4 -330 4q-231 0 -329 -4v84q141 0 167 36q14 20 13 60q-2 39 0 70v442h-563v-442q0 -102 8 -121q20 -43 142 -45h30v-84q-98 4 -330 4
t-329 -4v84z" />
    <glyph glyph-name="I" unicode="I" horiz-adv-x="796" 
d="M47 80q146 0 173 21q26 21 26 54l2 91v921l-2 91q0 54 -59 66q-43 9 -140 9v84l350 -4l351 4v-84q-147 0 -173 -21t-26 -54l-2 -91v-921l2 -91q0 -54 58 -66q43 -9 141 -9v-84q-139 2 -701 0v84z" />
    <glyph glyph-name="J" unicode="J" horiz-adv-x="796" 
d="M559 207q0 -272 -136 -436t-394 -187v58q63 14 109 50t69 78q45 82 51 219q2 45 2 115v1063l-2 91q0 53 -58 66q-43 9 -141 9v84l351 -4l350 4v-84q-147 0 -173 -21t-26 -54l-2 -91v-960z" />
    <glyph glyph-name="K" unicode="K" horiz-adv-x="1478" 
d="M51 80q141 0 167 36q14 20 13 61q-2 40 0 71v919q-2 31 -1 56t-2 53t-31 38q-48 19 -146 19v84q98 -4 330 -4t330 4v-84l-95 -4q-18 0 -31 -7t-23 -9q-10 -3 -16 -15q-4 -12 -10 -16t-6 -29v-497q20 20 96 94q170 164 234 252t123 180q20 25 18 37t-34 14v84
q159 0 237 -4l191 4v-84q-135 0 -209 -52q-35 -24 -53 -36t-59 -54t-102 -113q-61 -70 -81 -93l-113 -129l461 -627q73 -100 95 -116t130 -37v-80q-163 0 -243 4l-191 -4q-227 379 -500 690v-469q-2 -88 25 -113t156 -24v-84q-98 4 -330 4t-330 -4v84z" />
    <glyph glyph-name="L" unicode="L" horiz-adv-x="1251" 
d="M528 1253v-1163h228q61 0 117 5t103 59q25 27 36 101q10 75 18 153h150v-412q-532 4 -739 4t-384 -4v84q97 0 131 15t38 44q3 29 3 53v1030q0 54 -10 70t-37 28t-125 13v84q94 -4 324 -4t328 4v-84l-95 -4q-18 0 -31 -7t-23 -9q-10 -3 -16 -15q-4 -12 -10 -16
q-6 -5 -6 -29z" />
    <glyph glyph-name="M" unicode="M" horiz-adv-x="1933" 
d="M1249 80q144 0 167 36q14 20 13 60q-1 39 1 70v880h-5l-526 -1124q-4 -14 -21 -14t-20 14l-522 1124h-4v-880q0 -63 2 -88q2 -26 21 -48t55 -26t110 -4v-84q-168 0 -254 4q-165 0 -219 -4v84q119 0 145 29t25 137v975q0 54 -10 71q-10 16 -37 28t-123 13v84l219 -4l236 4
l489 -999l467 999l213 -4l238 4v-84q-144 0 -167 -36q-14 -20 -13 -60q2 -39 0 -70v-921q0 -102 8 -121q20 -43 141 -45h31v-84q-98 4 -330 4t-330 -4v84z" />
    <glyph glyph-name="N" unicode="N" horiz-adv-x="1593" 
d="M47 80q119 0 145 28t25 138v975q0 54 -10 71q-10 16 -37 28t-123 13v84l219 -4q63 0 195 4l811 -1073v823q0 113 -29 140t-162 26v84q74 -4 240 -4l250 4v-84q-133 -1 -159 -27t-26 -139v-1171l-120 4l-113 -4l-821 1102v-852q0 -66 2 -90t22 -46t58 -26t114 -4v-84
q-176 0 -262 4q-165 0 -219 -4v84z" />
    <glyph glyph-name="O" unicode="O" horiz-adv-x="1593" 
d="M410 775q0 -185 8 -275q19 -210 99 -316q94 -118 279 -118t276 118q83 104 99 316q8 90 9 213q0 392 -108 528q-93 117 -277 117q-273 0 -344 -256q-41 -142 -41 -327zM795 -20q-377 0 -546 177t-169 555t169 555t546 177t545 -177t169 -555q-1 -378 -169 -555t-545 -177
z" />
    <glyph glyph-name="P" unicode="P" horiz-adv-x="1251" 
d="M862 1034q0 150 -57 220t-209 71l-94 -6v-643q360 -35 360 358zM1184 1022q0 -230 -118 -328q-148 -123 -488 -107q-64 3 -76 3v-373q0 -88 20 -108q33 -29 180 -29v-84l-350 4q-229 0 -317 -4v84q95 0 121 12t34 26q13 22 13 75v974q-2 31 0 71q2 62 -40 79
q-42 16 -140 16v84q98 -4 329 -4l441 4q213 -2 302 -84q89 -81 89 -311z" />
    <glyph glyph-name="Q" unicode="Q" horiz-adv-x="1593" 
d="M410 713v-39q0 -290 47 -388q62 -130 178 -184q67 48 99 60t92 12t157 -65q155 79 184 320q13 108 13 191v93q0 392 -108 528q-93 117 -277 117q-185 0 -278 -117q-43 -53 -75 -167t-32 -361zM795 1444q377 0 545 -177t171 -554q0 -283 -92 -454t-319 -236l145 -105
q160 -111 221 -111q39 0 103 37l39 -26q-250 -217 -314 -205t-141 78l-301 235q-88 66 -133 66q-88 0 -217 -166l-56 47l31 43q43 57 68 84q-471 84 -467 713q2 377 171 554t546 177z" />
    <glyph glyph-name="R" unicode="R" horiz-adv-x="1478" 
d="M1229 1094q1 -162 -97 -252t-262 -97l369 -546q43 -63 83 -86t140 -33v-84q-188 0 -278 4q-62 -4 -193 -4q-92 184 -137 252l-315 473v-506q-2 -43 1 -61t19 -42q29 -44 170 -32v-84q-110 4 -340 4t-328 -4v84q41 -8 70 -2t48 8t32 16q11 14 21 26t10 55l-2 63v921
q-2 31 0 70t-14 62q-23 34 -165 34v84q102 -4 349 -4l297 4q229 -6 286 -16q184 -33 224 -191q12 -53 12 -116zM911 1067q1 127 -67 191t-193 65q-34 0 -112 -4v-553q178 -6 275 62t97 239z" />
    <glyph glyph-name="S" unicode="S" horiz-adv-x="1251" 
d="M1085 1057h-147q-8 145 -68 222t-194 77q-133 0 -208 -60t-75 -182q0 -175 231 -230q58 -14 175 -46q190 -58 275 -140t85 -262q0 -345 -379 -433q-102 -24 -221 -23q-205 0 -457 71v359h156q14 -186 78 -266t239 -81q125 0 206 73t81 194q0 162 -149 223
q-105 34 -219 67q-214 61 -294 143q-98 99 -98 277q0 100 50 182q88 148 308 199q95 23 199 23q211 0 426 -68v-319z" />
    <glyph glyph-name="T" unicode="T" horiz-adv-x="1366" 
d="M322 -4v84q84 0 124 3t61 22t23 39t2 55v1124h-88q-59 0 -96 -3q-38 -4 -66 -20t-41 -27q-27 -23 -57 -229h-149v369h1294v-369h-149q-27 205 -57 229q-48 40 -96 45t-107 5h-89v-1104q1 -55 3 -75t23 -39q22 -19 62 -22t123 -3v-84q-242 0 -360 4q-118 -4 -360 -4z" />
    <glyph glyph-name="U" unicode="U" horiz-adv-x="1593" 
d="M1565 1333q-72 0 -108 -4q-36 -3 -54 -27q-19 -24 -21 -48t-2 -85v-727q0 -463 -549 -462q-158 0 -260 16q-243 38 -314 212q-40 97 -40 249v712q-2 31 -1 56t-2 52t-31 37q-48 19 -146 19v84q98 -4 331 -4q232 0 328 4v-84l-94 -4q-18 0 -32 -7t-23 -9q-9 -3 -15 -15
t-11 -16t-5 -27v-815q-4 -190 75 -284t271 -94t297 100q106 102 107 293v714q0 115 -31 140t-176 24v84l256 -4l250 4v-84z" />
    <glyph glyph-name="V" unicode="V" horiz-adv-x="1478" 
d="M350 1413q225 0 328 4v-84q-28 0 -48 -4t-42 -8q-82 -16 -82 -72q0 -43 31 -131l299 -852l229 701q9 25 25 73t24 74q39 130 35 156q-8 55 -176 63v84q184 0 278 -4l197 4v-82q-48 0 -69 -12t-30 -16q-9 -5 -21 -21t-14 -19q-4 -3 -16 -26t-18 -35t-96 -254l-346 -956
l-109 4l-106 -4l-375 1081q-18 53 -24 68q-7 16 -16 41t-19 40q-9 15 -23 38q-42 70 -135 69v84q94 -4 319 -4z" />
    <glyph glyph-name="W" unicode="W" horiz-adv-x="2048" 
d="M27 1417q205 0 309 -4q201 0 305 4v-82q-98 0 -128 -13q-30 -14 -30 -66t33 -183l193 -741l301 1085l110 -4l109 4l321 -1091h4l177 798q20 90 20 130t-35 60q-35 21 -69 21h-64v82l227 -4l226 4v-82q-68 2 -111 -59t-80 -201l-293 -1079l-108 4l-121 -4l-301 1087
l-303 -1087l-105 4l-112 -4l-275 1030q-51 203 -80 250t-120 53v88z" />
    <glyph glyph-name="X" unicode="X" horiz-adv-x="1478" 
d="M772 84q23 0 35 2q13 2 27 4t20 5t17 8t19 19t9 36q0 22 -51 100l-189 289q-8 -12 -56 -79q-177 -247 -177 -312t121 -72v-88l-254 4l-254 -4v84q23 6 78 17t82 33t82 89t63 76l268 334l-278 415q-82 114 -113 167t-51 70t-43 29t-37 14q-14 3 -51 11v82l328 -4l327 4
v-80q-104 0 -130 -28q-38 -41 34 -133l197 -302l213 347q12 18 16 50t-22 47t-48 17t-55 2v80l246 -4l246 4v-80q-66 -5 -119 -35t-79 -59t-73 -90l-276 -352l401 -606q37 -53 71 -79t89 -30l29 -6v-84l-330 4l-332 -4v88z" />
    <glyph glyph-name="Y" unicode="Y" horiz-adv-x="1478" 
d="M909 219q0 -55 2 -75t24 -38q21 -20 61 -23t124 -3v-84q-242 0 -360 4q-118 -4 -361 -4v84q145 0 165 12t32 20q14 8 14 62v358q0 78 -18 115l-234 369q-124 206 -165 242q-65 53 -94 63q-28 10 -60 14v82l344 -4l342 4v-86q-20 0 -71 -9t-65 -31q-28 -39 -8 -74
q7 -14 26 -42t32 -49l217 -360l180 324q74 125 74 170t-24 55t-33 12q-10 2 -42 4t-42 4v82l239 -4l238 4v-82q-76 -14 -105 -35q-29 -22 -41 -29q-29 -17 -151 -212l-231 -369l-9 -43v-428z" />
    <glyph glyph-name="Z" unicode="Z" horiz-adv-x="1366" 
d="M557 1323q-112 0 -151 -31q-25 -18 -43 -38q-26 -28 -37 -214h-144v377q365 -4 549 -4t549 4v-92l-852 -1229h381q111 -4 170 7t94 53t44 100q9 57 13 172h150v-432l-610 4l-613 -4v125l850 1202h-350z" />
    <glyph glyph-name="bracketleft" unicode="[" horiz-adv-x="681" 
d="M600 1526v-84h-213v-1614h213v-84h-438v1782h438z" />
    <glyph glyph-name="backslash" unicode="\" horiz-adv-x="1241" 
d="M137 1526h205l762 -1526h-205z" />
    <glyph glyph-name="bracketright" unicode="]" horiz-adv-x="681" 
d="M61 1526h441v-1782h-441v82h213v1614h-213v86z" />
    <glyph glyph-name="asciicircum" unicode="^" horiz-adv-x="1241" 
d="M301 588h-195l422 825h185l422 -825h-195l-319 602z" />
    <glyph glyph-name="underscore" unicode="_" horiz-adv-x="1024" 
d="M1024 -307h-1024v102h1024v-102z" />
    <glyph glyph-name="grave" unicode="`" horiz-adv-x="681" 
d="M618 1096h-112l-326 198q-47 29 -48 80t28 76q27 31 79 25t89 -50z" />
    <glyph glyph-name="a" unicode="a" 
d="M680 283v188h-78q-88 0 -134 -28t-67 -107q-37 -231 125 -232q154 1 154 179zM104 258q0 129 65 201t189 84q72 8 154 8h168q0 20 3 67t4 79q5 202 -131 202q-76 0 -110 -35q-35 -35 -38 -127q6 -61 -41 -61h-144q-20 -4 -32 11q-11 15 -9 50q-8 87 47 145
q98 104 318 101q189 -11 257 -34t94 -57q56 -73 56 -224v-422q0 -75 -2 -95t4 -38q6 -17 12 -21q29 -16 67 -16h65v-80l-205 4l-205 -4v96q-92 -61 -158 -87t-155 -25q-135 0 -204 74t-69 204z" />
    <glyph glyph-name="b" unicode="b" 
d="M744 232q18 52 18 223q0 273 -40 350q-41 84 -134 84q-49 0 -85 -26t-61 -74t-28 -129q-2 -82 -2 -120v-42q0 -14 -4 -117q-6 -148 46 -243q35 -64 124 -64t128 70q20 36 38 88zM-10 1526h420v-639q115 96 268 96q387 0 387 -502t-406 -501q-145 0 -258 75l-213 -75h-53
v1300q0 10 1 46t-4 65t-14 32t-29 15t-99 12v76z" />
    <glyph glyph-name="c" unicode="c" horiz-adv-x="1024" 
d="M801 668q-16 235 -191 235q-90 0 -139 -37q-49 -36 -67 -112q-26 -108 -27 -228v-130q0 -98 11 -141q30 -116 64 -145q59 -51 138 -53q114 1 152 61t57 195h133v-272q-168 -61 -402 -61t-346 118q-110 118 -110 372q0 255 113 384q114 129 374 129q205 0 371 -74v-241
h-131z" />
    <glyph glyph-name="d" unicode="d" horiz-adv-x="1251" 
d="M772 328v307q0 100 -43 177t-137 77q-132 0 -167 -119q-28 -94 -28 -221v-111q0 -256 80 -320q41 -34 105 -34q96 0 143 72t47 172zM506 -20q-414 0 -414 466q0 537 395 537q201 0 283 -111h4v412q0 12 1 40t0 37l-3 27t-8 24q-6 5 -15 15q-21 23 -120 23v76h420v-1352
q0 -42 5 -49q5 -6 12 -17q20 -32 130 -32v-80l-205 4l-205 -4v115q-115 -131 -280 -131z" />
    <glyph glyph-name="e" unicode="e" horiz-adv-x="1024" 
d="M373 553h307v61q0 198 -38 239q-13 15 -35 33t-79 17q-107 0 -134 -91q-21 -71 -21 -157v-102zM373 459q0 -8 -1 -48q-1 -39 0 -57t3 -57t7 -59t14 -58t48 -77q38 -38 114 -39q77 -1 123 42t60 144q5 32 29 37h129q27 0 23 -56q-6 -92 -66 -151q-60 -60 -136 -80
q-75 -20 -165 -20q-276 0 -379 115q-102 116 -102 392t105 386t361 110q256 -1 340 -121q86 -120 74 -403h-581z" />
    <glyph glyph-name="f" unicode="f" horiz-adv-x="681" 
d="M486 1373q-13 -55 -13 -126v-284h225v-95h-225v-659q-2 -88 23 -111t149 -22v-80q-211 0 -309 4l-283 -4v80q97 0 113 16l26 26t9 62q-2 52 -2 66v622h-146v95h146v55q0 250 91 379t326 129q270 0 281 -217q6 -61 -41 -62h-143q-20 -4 -32 11q-11 15 -9 51l-2 49
q0 29 -5 37t-10 19q-14 34 -83 34t-86 -75z" />
    <glyph glyph-name="g" unicode="g" horiz-adv-x="1024" 
d="M352 -20q-59 0 -90 4q-74 -104 -74 -189q0 -117 85 -173t206 -56t205 68t84 186q0 187 -328 160h-88zM487 983q104 0 261 -37l213 19q23 -2 12 -74q0 -13 -6 -21t-21 -6l-119 8q78 -92 78 -221q0 -167 -124 -237t-302 -70q-104 0 -184 25q-23 -59 -23 -97t22 -54
q22 -17 32 -24q12 -8 38 -10t36 -3t41 0q30 1 36 1l158 4q188 0 265 -74t77 -206q0 -130 -77 -228q-78 -98 -190 -144t-241 -46t-223 32t-140 85q-79 93 -79 209q0 68 44 110t115 56q-20 102 -20 155q4 156 65 260q-157 88 -157 261t117 250q118 77 296 77zM338 666
q0 -70 8 -116t45 -87t105 -41q152 0 151 266q0 217 -147 217q-162 1 -162 -239z" />
    <glyph glyph-name="h" unicode="h" horiz-adv-x="1251" 
d="M49 76q97 0 113 16l26 26t9 62q-2 52 -2 66v1034q0 10 2 73t-20 70q-9 3 -28 15t-100 12v76h420v-678h4q100 133 311 133q170 0 230 -77t59 -249v-409q0 -10 -1 -46t4 -65t14 -33q10 -4 30 -15t99 -11v-80l-283 4q-184 0 -258 -4v80q62 0 80 12t31 22t12 67q-2 57 -2 69
v377q0 132 -38 175q-38 42 -124 43t-130 -64t-38 -163v-368q0 -12 -2 -68t11 -67q33 -28 57 -32q24 -3 55 -3v-80q-74 4 -258 4l-283 -4v80z" />
    <glyph glyph-name="i" unicode="i" horiz-adv-x="681" 
d="M352 1155q-70 0 -106 42t-35 114q0 73 36 115q35 42 105 42t106 -43t36 -115t-36 -113q-36 -42 -106 -42zM63 76q80 0 99 11q20 11 29 15q21 10 20 71q-2 61 -2 71v560q0 32 -8 40q-9 8 -19 18t-26 12t-39 6t-54 3v80h420v-719q0 -14 -1 -42t0 -36t3 -28q3 -20 9 -24
q6 -6 15 -16q19 -23 120 -22v-80l-283 4l-283 -4v80z" />
    <glyph glyph-name="j" unicode="j" horiz-adv-x="569" 
d="M319 1155q-69 0 -105 42t-36 114q0 73 36 115t106 42t105 -43q36 -43 36 -115t-36 -113q-36 -42 -106 -42zM457 967v-979q0 -190 -130 -332t-321 -166q-2 0 -2 59q80 27 129 97t49 151v1011q0 32 -8 40l-18 18q-21 21 -119 21v80h420z" />
    <glyph glyph-name="k" unicode="k" horiz-adv-x="1251" 
d="M59 76q100 0 120 22q9 10 19 19t9 62q-2 53 -2 67v1034q0 10 1 46t-4 65t-14 32q-10 3 -29 15t-100 12v76h420v-998q25 23 78 73t110 103t113 136q10 23 -10 57l-25 8v62l216 -4l215 4v-64q-18 -4 -83 -16q-112 -20 -180 -80l-204 -178l352 -455q61 -86 110 -90l74 -14
v-74l-207 4l-192 -4l-27 39q-4 6 -65 96l-271 361h-4v-246q0 -10 -1 -46t4 -65t14 -33q10 -4 30 -15t99 -11v-80l-283 4l-283 -4v80z" />
    <glyph glyph-name="l" unicode="l" horiz-adv-x="681" 
d="M63 76q100 0 120 22q9 10 19 19t9 62q-2 53 -2 67v1034q0 10 1 46t-4 65t-14 32q-10 3 -29 15t-100 12v76h420v-1280q0 -10 -1 -46t4 -65t14 -33q10 -4 30 -15t99 -11v-80l-283 4l-283 -4v80z" />
    <glyph glyph-name="m" unicode="m" horiz-adv-x="1820" 
d="M780 983q186 0 254 -145l21 20q53 59 134 92t163 33q162 0 226 -73t64 -234v-502q0 -41 6 -48t11 -18q17 -32 129 -32v-80l-283 4q-182 0 -252 -4v80q60 0 77 13q16 13 24 19t11 28t4 29t0 39t-1 42v397q0 90 -29 141q-29 52 -111 52t-129 -44q-48 -44 -48 -122v-424
q0 -12 -1 -36t0 -34t2 -30t13 -37q23 -33 96 -33v-80q-82 4 -248 4l-251 -4v80q59 0 76 13q16 13 24 19t11 28t4 29t0 39t-1 42v397q0 90 -28 141q-29 52 -111 52t-130 -44t-48 -122v-424q0 -12 -1 -36t0 -34t2 -30t13 -37q23 -33 96 -33v-80q-66 4 -250 4t-278 -4v80
q31 0 53 3l38 5q15 2 26 13q10 11 16 17t8 25t3 27t0 38t-1 42v541q0 43 -5 50t-11 18q-17 32 -127 32v80l205 -4l203 4v-121q145 137 331 137z" />
    <glyph glyph-name="n" unicode="n" horiz-adv-x="1251" 
d="M1005 905q65 -78 64 -237v-422q0 -10 -1 -46t0 -42t5 -29t13 -27t29 -15t99 -11v-80l-282 4q-182 0 -256 -4v80q64 0 81 13t24 19t11 26q4 22 4 30q1 8 0 39t-1 43v389q0 100 -33 151t-127 52q-176 0 -176 -232v-360q0 -12 -1 -43t3 -61t11 -34q7 -5 24 -18t82 -14v-80
q-74 4 -258 4t-279 -4v80q77 0 96 11q20 11 30 15q21 9 19 71q-2 61 -2 73v471q0 12 1 47t-4 64t-14 32q-9 4 -30 16t-96 11v80l205 -4l203 4v-125q12 8 82 59q114 82 261 82q148 0 213 -78z" />
    <glyph glyph-name="o" unicode="o" 
d="M381 502q0 -10 -1 -50t0 -62t2 -64t7 -66q6 -25 16 -69t50 -87t112 -44t112 44t50 88q10 44 16 68t8 67q1 41 2 63t0 62t-1 50t1 48t0 57t-2 57t-7 62q-6 22 -15 54q-8 32 -22 48q-15 16 -33 36q-35 36 -109 37q-75 0 -108 -36q-19 -19 -33 -37t-22 -49q-8 -33 -15 -55
q-6 -22 -7 -60t-2 -56q-1 -20 0 -58t1 -48zM567 983q264 0 374 -124t110 -390t-117 -378q-117 -111 -367 -111q-249 0 -367 112t-118 377q0 266 110 390t375 124z" />
    <glyph glyph-name="p" unicode="p" horiz-adv-x="1251" 
d="M844 391v168q0 230 -86 291q-40 29 -94 29q-103 0 -141 -70q-41 -80 -47 -148q-5 -67 -6 -97t-1 -89t3 -140t17 -119q15 -38 34 -75q35 -69 132 -69q125 0 161 109q28 86 28 210zM766 983q377 1 377 -501t-393 -502q-90 0 -148 18t-131 74v-408q0 -70 27 -80q10 -4 22 -9
q26 -11 121 -11v-80q-209 0 -307 4q-98 -4 -295 -4v80q35 0 59 3t41 4q19 1 29 12t17 15t10 25q2 21 3 29t0 39t-1 45v987q0 14 1 45t0 39q-1 9 -3 29q-1 20 -9 24t-18 16t-28 12q-18 1 -43 4q-24 3 -58 3v72l268 -4l148 4v-111q119 127 311 127z" />
    <glyph glyph-name="q" unicode="q" 
d="M533 80q97 0 134 57q19 31 31 55q27 53 24 227q-1 58 -1 65t1 47q1 41 0 59t-3 60t-15 95q-12 52 -39 89t-59 47q-30 10 -68 10q-38 -1 -71 -17t-52 -52t-31 -66q-22 -58 -22 -221v-163q0 -36 10 -98t25 -100q17 -38 53 -66t83 -28zM541 -516v80q39 0 65 2t47 3t33 12
t20 15t10 26q3 22 4 29t0 43t-1 50v334q-106 -98 -273 -98q-381 0 -380 512q0 238 91 364t306 127q163 0 274 -78l187 78h69v-1239q0 -14 -1 -45t0 -41l3 -30q3 -19 9 -25q6 -5 15 -17t25 -14l40 -5q24 -3 55 -3v-80l-283 4q-102 -4 -315 -4z" />
    <glyph glyph-name="r" unicode="r" horiz-adv-x="909" 
d="M692 983q90 0 142 -47t53 -127q-1 -81 -17 -105t-68 -24t-70 4t-36 20t-18 50q-4 98 -78 98q-133 0 -133 -248v-429q0 -41 4 -47q4 -7 9 -18q4 -10 14 -14t22 -10q20 -10 119 -10v-80q-207 0 -305 4q-187 0 -281 -4v80q78 0 97 11q20 11 29 15t13 27t6 29q1 6 0 42t-1 48
v471q0 14 2 64q3 86 -48 97q-50 11 -98 11v76l270 -4l138 4v-121q102 137 235 137z" />
    <glyph glyph-name="s" unicode="s" horiz-adv-x="909" 
d="M799 684h-125q-2 106 -41 162t-141 57q-164 0 -164 -137q0 -68 53 -104t129 -56q76 -18 152 -44t129 -94t53 -192t-98 -210t-310 -86q-210 0 -366 38v281h137l6 -86q6 -74 57 -116t125 -42q190 0 191 164q0 74 -78 112q-60 29 -136 48q-75 18 -98 27q-205 66 -204 256
q0 322 432 321q162 0 297 -43v-256z" />
    <glyph glyph-name="t" unicode="t" horiz-adv-x="681" 
d="M160 233v635h-135v95h135v272l274 90v-362h201v-95h-201v-586q0 -56 5 -75q5 -18 11 -42t17 -34l23 -23q24 -24 78 -24t85 14v-78q-317 -92 -433 18q-60 58 -60 195z" />
    <glyph glyph-name="u" unicode="u" horiz-adv-x="1251" 
d="M488 -20q-182 0 -243 70q-62 70 -63 243v515q0 32 -8 40l-18 18q-21 21 -119 21v80l211 -4l209 4v-594q0 -191 63 -233q33 -22 84 -22q140 1 169 114q13 58 13 153v420q0 33 -7 41q-24 27 -52 34t-76 7v80l205 -4l205 4v-805q0 -34 5 -41t12 -17q8 -10 18 -13t28 -9
t80 -6v-80l-205 4l-202 -4v131q-127 -147 -309 -147z" />
    <glyph glyph-name="v" unicode="v" 
d="M1114 893q-74 0 -110 -33t-62 -102l-285 -762l-96 4l-96 -4l-283 762q-20 74 -52 102t-107 33v74l282 -4l281 4v-74q-104 -8 -121 -68q-6 -23 12 -69l187 -514l153 540q12 53 12 58q-8 53 -118 53v74l202 -4l201 4v-74z" />
    <glyph glyph-name="w" unicode="w" horiz-adv-x="1705" 
d="M627 -4l-105 4l-104 -4l-238 762q-6 12 -22 53t-25 46q-8 5 -17 12q-8 7 -22 9t-28 7q-14 4 -39 8v74l284 -4l283 4v-74l-47 -6q-80 -12 -86 -45q-4 -23 14 -84l139 -498l217 707l111 -4l111 4l213 -711l151 580q8 37 -39 45t-92 8v78l205 -4l203 4v-74
q-109 10 -166 -135l-252 -762l-109 4l-110 -4l-211 688z" />
    <glyph glyph-name="x" unicode="x" 
d="M25 76q135 0 217 100l207 248l-254 358q-41 60 -73 80t-97 29v76l254 -4l251 4v-76q-59 6 -59 -31l8 -24l131 -201l144 213q8 10 4 31q-2 12 -47 12v76l178 -4l176 4v-76q-90 -8 -146 -41t-122 -107l-138 -170l289 -397q27 -39 42 -56q39 -44 112 -44v-80l-248 4l-250 -4
v80q49 -4 49 28q0 2 -22 39l-133 207l-150 -198q-54 -76 33 -76v-80l-178 4l-178 -4v80z" />
    <glyph glyph-name="y" unicode="y" 
d="M218 -512q-66 0 -112 40q-45 40 -45 92t28 82t67 35q40 5 68 -20t55 -51t59 -22q94 8 166 202l59 154h-100l-283 758q-39 92 -56 107t-104 28v74l283 -4l281 4v-74l-37 -6q-78 -12 -84 -40t12 -89l187 -516l151 518q29 86 16 104q-20 29 -120 29v74l202 -4l201 4v-74
q-12 -4 -42 -6t-45 -9q-15 -6 -42 -46t-53 -113l-350 -914q-33 -94 -120 -199q-44 -52 -110 -85t-132 -33z" />
    <glyph glyph-name="z" unicode="z" horiz-adv-x="1024" 
d="M958 313v-317q-300 4 -450 4t-449 -4v78l553 798h-247q-141 -4 -160 -204h-99v299q291 -4 430 -4t422 4v-74l-555 -803h256q102 4 135 53q32 49 46 170h118z" />
    <glyph glyph-name="braceleft" unicode="{" horiz-adv-x="634" 
d="M197 866v379q0 164 82 218t198 62q31 1 113 1v-4q-111 -25 -153 -82t-42 -166v-375q0 -119 -40 -179t-160 -87v-4q123 -27 161 -90t39 -189v-354q0 -104 44 -164t151 -84v-4q-223 -4 -308 58t-85 257v334q0 111 -37 161t-150 75v4q90 16 140 74q33 37 40 69t7 90z" />
    <glyph glyph-name="bar" unicode="|" horiz-adv-x="1241" 
d="M530 0v1526h179v-1526h-179z" />
    <glyph glyph-name="braceright" unicode="}" horiz-adv-x="634" 
d="M418 1245v-379q0 -110 47 -159q49 -57 139 -74v-4q-114 -25 -150 -75t-36 -161v-334q0 -195 -85 -257t-308 -58v4q106 23 150 83t44 165v354q0 124 39 188t162 91v4q-121 27 -161 87t-40 179v375q0 109 -42 166t-152 82v4q83 0 113 -1t88 -15t104 -42q88 -59 88 -223z
" />
    <glyph glyph-name="asciitilde" unicode="~" horiz-adv-x="1241" 
d="M392 504q-78 0 -152 -117q-10 -16 -37 -63l-99 112q61 110 130 178t157 68t248 -71t207 -70q102 0 192 166l99 -113q-59 -104 -128 -168t-154 -64t-182 44q-98 44 -106 48q-8 3 -37 15t-45 17q-57 18 -93 18z" />
    <glyph glyph-name="uni00A0" unicode="&#xa0;" horiz-adv-x="569" 
 />
    <glyph glyph-name="exclamdown" unicode="&#xa1;" horiz-adv-x="681" 
d="M311 696q-67 0 -105 43t-38 123q0 166 143 172q145 -6 145 -172t-145 -166zM311 -432q-73 0 -109 43t-34 99t4 108l68 649q10 82 71 106q62 -24 72 -106l68 -649q2 -52 4 -108t-34 -99t-110 -43z" />
    <glyph glyph-name="cent" unicode="&#xa2;" 
d="M993 666h-131q-10 127 -61 182l-242 -770q35 -20 92 -21q113 1 152 61t57 195h133v-272q-92 -35 -234 -54t-229 -1l-75 -242h-76l78 250q-322 43 -322 469q0 260 114 390t374 130q49 0 135 -12l51 166h82l-57 -181q93 -22 159 -49v-241zM652 901q-105 0 -149 -72
q-49 -75 -57 -158t-8 -138v-62q1 -256 62 -340l233 760q-35 10 -81 10z" />
    <glyph glyph-name="sterling" unicode="&#xa3;" 
d="M1090 371v-357q-123 -34 -247 -34t-299 57t-255 63q-53 -56 -94 -88t-89 -32t-70 28q-24 28 -20 70q4 40 43 68t96 40t83 13q40 75 51 204q2 35 0 123t-2 103h-209v102h211q0 113 8 198t37 173t77 143t133 91t201 36q175 0 269 -72t92 -219q0 -61 -68 -61h-92
q-37 0 -53 13t-15 54q4 150 -56 182q-28 15 -72 15q-139 0 -154 -213l-21 -340h326v-102h-338q-12 -258 -207 -420l4 -4q102 20 162 19t167 -9q108 -8 175 -4l73 2q15 0 22 8t15 11q7 4 10 22t6 26t7 41q4 32 9 50h84z" />
    <glyph glyph-name="currency" unicode="&#xa4;" 
d="M862 687q0 118 -84 205t-204 87q-121 0 -208 -85t-87 -208t87 -207q88 -84 208 -84t204 87t84 205zM570 1194q158 0 282 -88l98 98l135 -139l-98 -96q90 -117 90 -282t-88 -279l98 -99l-135 -137l-98 98q-125 -90 -286 -90t-283 90l-99 -98l-135 137l99 99
q-86 132 -86 288t86 273l-99 96l135 139l101 -98q125 88 283 88z" />
    <glyph glyph-name="yen" unicode="&#xa5;" 
d="M938 707v-95h-233v-147h233v-94h-233v-160q0 -47 2 -67t17 -41q15 -23 52 -27t101 0v-80l-293 4l-293 -4v80q131 -7 158 35q14 23 14 63v197h-234v94h234v43q0 70 -12 104h-222v95h170l-141 260q-12 23 -36 67t-47 91q-23 46 -42 66q-20 19 -45 42t-88 39v76
q199 0 279 -5q118 5 278 5v-80q-129 -18 -131 -60q0 -10 6 -22l230 -457l182 391q51 115 4 135q-24 10 -55 13q-32 2 -41 4v76q34 0 194 -5l193 5v-76q-71 -20 -107 -52t-133 -212l-160 -301h199z" />
    <glyph glyph-name="brokenbar" unicode="&#xa6;" horiz-adv-x="1241" 
d="M530 1526h179v-611h-179v611zM530 0v610h179v-610h-179z" />
    <glyph glyph-name="section" unicode="&#xa7;" 
d="M584 1366q-193 0 -193 -160q1 -80 37 -122t104 -80l209 -117q141 -80 206 -146q65 -65 81 -161t-26 -167t-150 -159q100 -100 100 -250t-118 -234t-285 -83q-166 0 -285 79t-92 240q8 20 55 21h103q47 0 47 -23q0 -117 40 -178q40 -62 140 -62t146 54q45 54 47 104
q2 48 -8 76t-20 47q-11 20 -61 66q-49 46 -87 65q-361 185 -413 262q-52 76 -57 150q-10 180 199 301q-117 88 -117 213q0 170 108 256t282 86t282 -62q106 -62 92 -215q-2 -20 -4 -28q-6 -25 -53 -25h-86q-27 0 -40 9t-14 17t-3 27q-14 199 -166 199zM537 735l-175 105
q-52 -29 -78 -83t-8 -106q23 -49 95 -97q73 -48 205 -121t219 -130q166 153 -17 287q-87 64 -158 100q-71 37 -83 45z" />
    <glyph glyph-name="dieresis" unicode="&#xa8;" horiz-adv-x="681" 
d="M127 1114q-53 0 -91 41t-38 93t38 92t90 40t92 -39t40 -94t-39 -94t-92 -39zM556 1380q52 0 92 -41t40 -93t-39 -92t-93 -40t-93 40t-39 93t40 93t92 40z" />
    <glyph glyph-name="copyright" unicode="&#xa9;" horiz-adv-x="1529" 
d="M1065 844h-68q-12 88 -62 143t-134 55q-117 0 -179 -91t-62 -229t63 -233q71 -113 201 -113t196 103l16 29l54 -23q-36 -90 -130 -139t-198 -49q-170 0 -275 114q-104 113 -104 291t112 295t289 117q64 0 156 -22t125 -35v-213zM762 96q248 0 425 180t177 436t-176 437
q-176 180 -425 180t-424 -181t-175 -436q0 -256 175 -436t423 -180zM763 -20q-296 0 -504 214t-208 517t208 518t504 215t505 -215t209 -518t-209 -517t-505 -214z" />
    <glyph glyph-name="ordfeminine" unicode="&#xaa;" horiz-adv-x="684" 
d="M43 664h598v-103h-598v103zM389 1077h-47q-53 0 -81 -17t-40 -71q-18 -150 76 -149q45 0 65 28t27 86v123zM309 1358q-80 0 -84 -107q2 -41 -24 -41h-86q-11 -2 -19 8t-6 33q-6 84 60 123t159 39q141 -8 193 -44t51 -163v-293q0 -71 11 -81t77 -11v-53q-20 2 -61 2h-123
q-41 0 -62 -2v63q-119 -90 -243 -61q-109 25 -109 174q0 64 31 118q11 22 83 55q15 7 56 10t55 5t62 0t59 -2v84q0 74 -16 109t-64 35z" />
    <glyph glyph-name="guillemotleft" unicode="&#xab;" 
d="M602 49h-76l-362 357v98l366 360h72v-14l-246 -393l246 -394v-14zM967 49h-76l-363 357v98l369 360h70v-14l-246 -393l246 -394v-14z" />
    <glyph glyph-name="logicalnot" unicode="&#xac;" horiz-adv-x="1241" 
d="M961 233v402h-857v176h1033v-578h-176z" />
    <glyph glyph-name="uni00AD" unicode="&#xad;" horiz-adv-x="681" 
d="M596 356h-508v246h508v-246z" />
    <glyph glyph-name="registered" unicode="&#xae;" horiz-adv-x="1529" 
d="M700 1075q-34 0 -34 -48v-279h39q98 0 151 36t53 131q0 166 -166 160h-43zM434 1124h314q222 0 279 -86q28 -42 28 -116q1 -74 -57 -129t-144 -68v-4q39 -8 71 -39q32 -32 48 -62t40 -84t35 -78q10 -24 38 -50t59 -27v-41h-141q-37 0 -62 30t-77 152q-51 122 -73 148
q-22 25 -96 24h-30v-250q0 -39 15 -52t73 -11v-41h-322v41q55 -2 74 10q18 12 18 45v586q0 25 -2 36t-17 17t-23 6h-48v43zM764 96q248 0 425 180t177 436t-176 437q-176 180 -425 180t-424 -181t-175 -436q0 -256 175 -436t423 -180zM765 -20q-296 0 -504 214t-208 517
t208 518t504 215t505 -215t209 -518t-209 -517t-505 -214z" />
    <glyph glyph-name="macron" unicode="&#xaf;" horiz-adv-x="681" 
d="M604 1171h-526v148h526v-148z" />
    <glyph glyph-name="degree" unicode="&#xb0;" horiz-adv-x="819" 
d="M590 1095q0 75 -53 128t-128 53t-128 -53t-53 -128t54 -127q52 -52 127 -52t128 52t53 127zM717 1095q0 -126 -90 -216q-90 -91 -217 -91t-217 90q-89 90 -91 217q-2 126 89 217t219 91t217 -91q90 -91 90 -217z" />
    <glyph glyph-name="plusminus" unicode="&#xb1;" horiz-adv-x="1241" 
d="M104 0v176h1033v-176h-1033zM532 741v293h177v-293h428v-176h-428v-293h-177v293h-428v176h428z" />
    <glyph glyph-name="twosuperior" unicode="&#xb2;" horiz-adv-x="681" 
d="M72 1094v18q0 84 69 136q70 52 207 52q276 0 277 -176q0 -78 -30 -124t-106 -101l-290 -215h290q51 0 68 23q16 23 23 90h55v-279h-588v154q135 100 246 219t110 215q0 45 -2 68q-2 22 -20 46t-59 22t-64 -21q-22 -20 -22 -49v-64q0 -45 -48 -45h-77q-39 0 -39 31z" />
    <glyph glyph-name="threesuperior" unicode="&#xb3;" horiz-adv-x="681" 
d="M406 1110q0 78 -18 102t-79 25q-62 0 -76 -35t-11 -66q3 -32 -15 -44t-35 -11h-68q-45 0 -41 41q14 178 250 178q307 0 308 -194q0 -139 -156 -172v-4q94 -23 131 -66t37 -133q0 -223 -291 -223q-214 0 -267 87q-24 38 -24 91t45 53h66q29 0 37 -8t13 -50t10 -58
q5 -17 28 -33q24 -16 62 -16q79 -1 94 57q12 46 12 116t-26 108t-101 38l-82 -8l4 73l84 -4q63 0 86 39t23 117z" />
    <glyph glyph-name="acute" unicode="&#xb4;" horiz-adv-x="681" 
d="M582 1274l-291 -178h-113l262 303q84 100 168 67q57 -16 58 -82q0 -31 -10 -45t-15 -20q-4 -6 -19 -17q-16 -12 -18 -14t-22 -14z" />
    <glyph glyph-name="mu" unicode="&#xb5;" horiz-adv-x="1251" 
d="M1061 162q0 -34 5 -41t12 -17q8 -10 18 -13t28 -9t80 -6v-80l-205 4l-202 -4v131q-139 -164 -371 -147l25 -236q12 -76 -22 -125t-107 -49q-139 0 -140 174v1064q0 32 -8 40l-18 18q-21 21 -119 21v80l211 -4l209 4v-594q0 -191 63 -233q33 -22 84 -22q140 1 169 114
q13 58 13 153v420q0 33 -7 41q-24 27 -52 34t-76 7v80l205 -4l205 4v-805z" />
    <glyph glyph-name="paragraph" unicode="&#xb6;" horiz-adv-x="1312" 
d="M414 1116v-139q0 -115 35 -170t139 -55v587q-104 2 -139 -54t-35 -169zM897 1339h-164v-1425h164v1425zM1038 1339v-1425h131v-84h-743v84h162v772q-109 0 -189 14q-297 52 -297 348q0 193 110 279q84 68 266 82q65 4 161 4h530v-74h-131z" />
    <glyph glyph-name="periodcentered" unicode="&#xb7;" horiz-adv-x="569" 
d="M418 522q0 -57 -43 -100t-101 -43t-99 43q-42 43 -42 100q0 58 42 100t99 42t101 -42q43 -43 43 -100z" />
    <glyph glyph-name="cedilla" unicode="&#xb8;" horiz-adv-x="681" 
d="M230 -461q-58 0 -169 37l33 76q73 -31 131 -28q111 6 107 87q-2 51 -50 65t-100 -3l-20 16l88 199h84l-60 -135q86 33 172 -9t80 -131q0 -135 -193 -167q-45 -8 -103 -7z" />
    <glyph glyph-name="onesuperior" unicode="&#xb9;" horiz-adv-x="681" 
d="M479 1300v-622q0 -60 25 -78t125 -18v-52h-520v50q20 2 58 4q97 5 112 45q6 18 6 49v516q-125 -80 -232 -115v78q183 53 269 143h157z" />
    <glyph glyph-name="ordmasculine" unicode="&#xba;" horiz-adv-x="684" 
d="M51 664h582v-103h-582v103zM229 1166v-66q0 -6 -2 -82t16 -128q18 -51 44 -65t55 -14q56 0 82 44q24 44 28 88q3 43 4 63t0 54t-1 38v68q0 112 -29 147t-46 41q-18 6 -51 6t-47 -18t-24 -30q-10 -11 -15 -34t-9 -36q-6 -20 -5 -76zM342 1413q160 0 226 -81t65 -255
q0 -174 -71 -247q-70 -72 -220 -72t-220 72t-71 247q-1 174 65 255t226 81z" />
    <glyph glyph-name="guillemotright" unicode="&#xbb;" 
d="M530 864h76l363 -358v-96l-367 -361h-72v14l248 394l-248 393v14zM166 864h76l362 -358v-96l-366 -361h-72v14l246 394l-246 393v14z" />
    <glyph glyph-name="onequarter" unicode="&#xbc;" horiz-adv-x="1708" 
d="M465 1300v-622q0 -61 24 -79q25 -17 125 -17v-52h-520v50q20 2 58 4q99 5 112 45q6 18 6 49v516q-123 -80 -231 -115v78q182 53 268 143h158zM1362 1300l-746 -1300h-143l746 1300h143zM1370 311v344q-82 -123 -258 -344h258zM1370 111v79h-356v129q72 100 340 447h194
v-455h121v-121h-121v-42q0 -26 -1 -34t4 -32q5 -25 27 -30t42 -5h49v-51q-72 2 -216 2t-218 -2v51l50 2q71 0 81 31q4 12 4 31z" />
    <glyph glyph-name="onehalf" unicode="&#xbd;" horiz-adv-x="1708" 
d="M1106 573v19q0 84 70 136t206 52q276 0 277 -176q0 -78 -30 -124t-105 -101l-291 -215h291q51 0 67 22t23 90h55v-278h-588v154q135 100 246 219t111 215q0 46 -2 68t-20 46t-60 22q-41 -1 -64 -21q-22 -20 -22 -49v-64q0 -45 -47 -45h-78q-39 0 -39 30zM465 1300v-622
q0 -61 24 -79q25 -17 125 -17v-52h-520v50q20 2 58 4q99 5 112 45q6 18 6 49v516q-123 -80 -231 -115v78q182 53 268 143h158zM1358 1300l-746 -1300h-143l745 1300h144z" />
    <glyph glyph-name="threequarters" unicode="&#xbe;" horiz-adv-x="1708" 
d="M386 1212q-17 24 -79 25q-62 0 -76 -35t-11 -66q3 -32 -15 -44t-35 -11h-68q-45 0 -41 41q14 178 250 178q307 0 307 -194q0 -139 -155 -172v-4q94 -23 131 -66t37 -133q0 -223 -291 -223q-214 0 -267 87q-24 38 -24 91t45 53h66q29 0 37 -8t13 -50t10 -58q5 -17 28 -33
q24 -16 62 -16q80 -1 93 57q13 50 13 118t-26 106t-101 38l-82 -8v73l88 -4q63 0 86 39t23 117t-18 102zM1348 1300l-746 -1300h-143l745 1300h144zM1360 311v344q-82 -123 -258 -344h258zM1360 111v79h-356v129l339 447h195v-455h121v-121h-121v-42q0 -26 -1 -34t4 -33
q5 -26 28 -30q21 -4 41 -4h49v-51q-72 2 -216 2t-218 -2v51l50 2q49 0 59 7q19 14 22 25q4 11 4 30z" />
    <glyph glyph-name="questiondown" unicode="&#xbf;" horiz-adv-x="909" 
d="M479 696q-67 0 -105 43t-38 123q0 166 143 172q145 -6 145 -172t-145 -166zM394 66q-54 -59 -54 -210t58 -188q28 -18 69 -18q143 0 135 182v15q0 13 1 17t2 15q1 13 3 17t5 13t15 18q19 14 44 14h96q63 0 72 -62q16 -157 -89 -235t-276 -78q-408 0 -407 289
q0 133 87 211t222 79l33 357q2 35 69 73q74 -37 74 -67l39 -402q-143 18 -198 -40z" />
    <glyph glyph-name="Agrave" unicode="&#xc0;" horiz-adv-x="1593" 
d="M1075 1536h-112l-326 199q-47 29 -48 80t27 75q27 31 79 25t89 -49zM545 666h348l-176 495zM1211 0q-231 0 -337 -4v84l23 2q124 10 148 46q8 10 10 28t-25 106l-102 309h-416l-96 -317q-18 -66 -20 -94t39 -52q42 -23 138 -28v-84l-282 4l-256 -4v84q117 2 170 51
q51 49 153 330q37 100 164 434t191 522q73 -4 109 -4t110 4l383 -1081q6 -14 29 -85t40 -90q49 -56 67 -62q51 -19 101 -19v-84q-110 4 -341 4z" />
    <glyph glyph-name="Aacute" unicode="&#xc1;" horiz-adv-x="1593" 
d="M1122 1825q0 -32 -10 -45q-10 -14 -14 -20t-20 -18q-16 -11 -17 -13q-2 -2 -23 -15l-290 -178h-113l262 303q84 100 168 68q57 -16 57 -82zM545 666h348l-176 495zM1211 0q-231 0 -337 -4v84l23 2q124 10 148 46q8 10 10 28t-25 106l-102 309h-416l-96 -317
q-18 -66 -20 -94t39 -52q42 -23 138 -28v-84l-282 4l-256 -4v84q117 2 170 51q51 49 153 330q37 100 164 434t191 522q73 -4 109 -4t110 4l383 -1081q6 -14 29 -85t40 -90q49 -56 67 -62q51 -19 101 -19v-84q-110 4 -341 4z" />
    <glyph glyph-name="Acircumflex" unicode="&#xc2;" horiz-adv-x="1593" 
d="M702 1896h191l252 -360h-117l-229 201l-232 -201h-112zM545 666h348l-176 495zM1211 0q-231 0 -337 -4v84l23 2q124 10 148 46q8 10 10 28t-25 106l-102 309h-416l-96 -317q-18 -66 -20 -94t39 -52q42 -23 138 -28v-84l-282 4l-256 -4v84q117 2 170 51q51 49 153 330
q37 100 164 434t191 522q73 -4 109 -4t110 4l383 -1081q6 -14 29 -85t40 -90q49 -56 67 -62q51 -19 101 -19v-84q-110 4 -341 4z" />
    <glyph glyph-name="Atilde" unicode="&#xc3;" horiz-adv-x="1593" 
d="M926 1575q-68 1 -240 81q-42 20 -82 19q-63 0 -96 -96h-88q61 256 248 256q58 0 160 -47t144 -49q42 -3 72 23t41 73h89q-57 -260 -248 -260zM545 666h348l-176 495zM1211 0q-231 0 -337 -4v84l23 2q124 10 148 46q8 10 10 28t-25 106l-102 309h-416l-96 -317
q-18 -66 -20 -94t39 -52q42 -23 138 -28v-84l-282 4l-256 -4v84q117 2 170 51q51 49 153 330q37 100 164 434t191 522q73 -4 109 -4t110 4l383 -1081q6 -14 29 -85t40 -90q49 -56 67 -62q51 -19 101 -19v-84q-110 4 -341 4z" />
    <glyph glyph-name="Adieresis" unicode="&#xc4;" horiz-adv-x="1593" 
d="M715 1688q0 -54 -39 -94t-92 -40t-91 41t-38 93t38 93q38 40 90 40t92 -39t40 -94zM1013 1821q52 0 92 -41t40 -93q0 -53 -39 -93t-93 -40t-93 40t-39 94t40 93q40 40 92 40zM545 666h348l-176 495zM1211 0q-231 0 -337 -4v84l23 2q124 10 148 46q8 10 10 28t-25 106
l-102 309h-416l-96 -317q-18 -66 -20 -94t39 -52q42 -23 138 -28v-84l-282 4l-256 -4v84q117 2 170 51q51 49 153 330q37 100 164 434t191 522q73 -4 109 -4t110 4l383 -1081q6 -14 29 -85t40 -90q49 -56 67 -62q51 -19 101 -19v-84q-110 4 -341 4z" />
    <glyph glyph-name="Aring" unicode="&#xc5;" horiz-adv-x="1593" 
d="M828 1835q-50 0 -86 -36t-37 -86t37 -87t87 -37t86 37t37 87t-37 86t-87 36zM1049 1712q0 -90 -65 -154t-155 -65q-89 0 -155 65q-66 64 -66 154t67 156t155 66t153 -66q66 -66 66 -156zM545 666h348l-176 495zM1211 0q-231 0 -337 -4v84l23 2q124 10 148 46q8 10 10 28
t-25 106l-102 309h-416l-96 -317q-18 -66 -20 -94t39 -52q42 -23 138 -28v-84l-282 4l-256 -4v84q117 2 170 51q51 49 153 330q37 100 164 434t191 522q73 -4 109 -4t110 4l383 -1081q6 -14 29 -85t40 -90q49 -56 67 -62q51 -19 101 -19v-84q-110 4 -341 4z" />
    <glyph glyph-name="AE" unicode="&#xc6;" horiz-adv-x="2048" 
d="M969 604v696l-416 -696h416zM1653 995q-2 -41 -2 -241t2 -240h-113q-8 98 -38 146t-116 53h-124v-623h227q164 0 203 46q18 22 29 37q25 34 42 216h150v-393q-532 4 -740 4t-380 -4v84q123 0 149 28t27 138v264h-463l-80 -154q-4 -6 -31 -64q-51 -108 -51 -130
q0 -54 34 -68t128 -14v-84l-244 4l-246 -4v84q70 0 105 29t80 98l669 1104l-30 8q-49 8 -148 8v90q280 -4 484 -4t737 4v-336h-150q-10 116 -18 143q-17 56 -37 70q-38 25 -57 25q-21 0 -55 3t-60 2t-74 -1h-200v-524h124q86 0 117 49t37 147h113z" />
    <glyph glyph-name="Ccedilla" unicode="&#xc7;" horiz-adv-x="1366" 
d="M1300 418v-371q-287 -68 -544 -67q-55 0 -82 2l-58 -129q86 33 170 -9t81 -136q-3 -95 -103 -136q-82 -33 -166 -33t-195 37l33 76q73 -31 131 -28q111 6 107 87q-2 51 -50 65t-100 -3l-20 16l90 203q-526 82 -526 676q0 397 169 586t562 190q199 0 501 -62v-350h-145
q-16 109 -31 161q-14 52 -52 95t-100 55q-62 13 -162 13t-170 -31q-69 -31 -111 -87q-43 -56 -71 -120q-64 -141 -63 -450q0 -602 420 -602q184 0 254 82t78 270h153z" />
    <glyph glyph-name="Egrave" unicode="&#xc8;" horiz-adv-x="1251" 
d="M903 1536h-112l-326 199q-47 29 -48 80t27 75q27 31 79 25t89 -49zM903 995q-2 -41 -2 -241t2 -240h-112q-8 98 -38 146t-116 53h-125v-623h227q164 0 203 46q18 22 36 46t36 207h149v-393q-532 4 -740 4t-380 -4v84q95 0 129 15t38 44q3 29 3 53v1028q0 56 -10 72
t-37 28t-123 13v84q171 -4 379 -4t741 4v-336h-149q-21 183 -56 204q-55 35 -113 37q-59 1 -132 1h-201v-524h125q86 0 117 49t37 147h112z" />
    <glyph glyph-name="Eacute" unicode="&#xc9;" horiz-adv-x="1251" 
d="M950 1825q0 -32 -10 -45q-10 -14 -14 -20t-20 -18q-16 -11 -17 -13q-2 -2 -23 -15l-291 -178h-112l262 303q84 100 168 68q57 -16 57 -82zM903 995q-2 -41 -2 -241t2 -240h-112q-8 98 -38 146t-116 53h-125v-623h227q164 0 203 46q18 22 36 46t36 207h149v-393
q-532 4 -740 4t-380 -4v84q95 0 129 15t38 44q3 29 3 53v1028q0 56 -10 72t-37 28t-123 13v84q171 -4 379 -4t741 4v-336h-149q-21 183 -56 204q-55 35 -113 37q-59 1 -132 1h-201v-524h125q86 0 117 49t37 147h112z" />
    <glyph glyph-name="Ecircumflex" unicode="&#xca;" horiz-adv-x="1251" 
d="M530 1896h191l252 -360h-117l-229 201l-232 -201h-112zM903 995q-2 -41 -2 -241t2 -240h-112q-8 98 -38 146t-116 53h-125v-623h227q164 0 203 46q18 22 36 46t36 207h149v-393q-532 4 -740 4t-380 -4v84q95 0 129 15t38 44q3 29 3 53v1028q0 56 -10 72t-37 28t-123 13
v84q171 -4 379 -4t741 4v-336h-149q-21 183 -56 204q-55 35 -113 37q-59 1 -132 1h-201v-524h125q86 0 117 49t37 147h112z" />
    <glyph glyph-name="Edieresis" unicode="&#xcb;" horiz-adv-x="1251" 
d="M543 1688q0 -54 -39 -94t-92 -40t-91 41t-38 93t38 93q38 40 90 40t92 -39t40 -94zM841 1821q52 0 92 -41t40 -93q0 -53 -39 -93t-93 -40t-93 40t-39 94t40 93q40 40 92 40zM903 995q-2 -41 -2 -241t2 -240h-112q-8 98 -38 146t-116 53h-125v-623h227q164 0 203 46
q18 22 36 46t36 207h149v-393q-532 4 -740 4t-380 -4v84q95 0 129 15t38 44q3 29 3 53v1028q0 56 -10 72t-37 28t-123 13v84q171 -4 379 -4t741 4v-336h-149q-21 183 -56 204q-55 35 -113 37q-59 1 -132 1h-201v-524h125q86 0 117 49t37 147h112z" />
    <glyph glyph-name="Igrave" unicode="&#xcc;" horiz-adv-x="796" 
d="M676 1536h-113l-325 199q-47 29 -49 80q-1 51 28 75q27 31 79 25t89 -49zM47 80q146 0 173 21q26 21 26 54l2 91v921l-2 91q0 54 -59 66q-43 9 -140 9v84l350 -4l351 4v-84q-147 0 -173 -21t-26 -54l-2 -91v-921l2 -91q0 -54 58 -66q43 -9 141 -9v-84q-139 2 -701 0v84z
" />
    <glyph glyph-name="Iacute" unicode="&#xcd;" horiz-adv-x="796" 
d="M723 1825q0 -32 -10 -45q-11 -14 -15 -20t-19 -18q-15 -11 -17 -13t-23 -15l-291 -178h-112l262 303q84 100 168 68q57 -16 57 -82zM47 80q146 0 173 21q26 21 26 54l2 91v921l-2 91q0 54 -59 66q-43 9 -140 9v84l350 -4l351 4v-84q-147 0 -173 -21t-26 -54l-2 -91v-921
l2 -91q0 -54 58 -66q43 -9 141 -9v-84q-139 2 -701 0v84z" />
    <glyph glyph-name="Icircumflex" unicode="&#xce;" horiz-adv-x="796" 
d="M303 1896h191l251 -360h-116l-230 201l-231 -201h-113zM47 80q146 0 173 21q26 21 26 54l2 91v921l-2 91q0 54 -59 66q-43 9 -140 9v84l350 -4l351 4v-84q-147 0 -173 -21t-26 -54l-2 -91v-921l2 -91q0 -54 58 -66q43 -9 141 -9v-84q-139 2 -701 0v84z" />
    <glyph glyph-name="Idieresis" unicode="&#xcf;" horiz-adv-x="796" 
d="M315 1688q0 -54 -39 -94t-92 -40t-91 41t-38 93t38 93q38 40 90 40t92 -39t40 -94zM613 1821q53 0 93 -41t40 -93t-39 -93q-39 -40 -93 -40t-94 40q-39 40 -39 94t40 93q40 40 92 40zM47 80q146 0 173 21q26 21 26 54l2 91v921l-2 91q0 54 -59 66q-43 9 -140 9v84l350 -4
l351 4v-84q-147 0 -173 -21t-26 -54l-2 -91v-921l2 -91q0 -54 58 -66q43 -9 141 -9v-84q-139 2 -701 0v84z" />
    <glyph glyph-name="Eth" unicode="&#xd0;" horiz-adv-x="1478" 
d="M35 80q94 0 118 13q25 13 32 27q12 23 12 74v494h-189v100h189v432q1 54 -9 70t-34 30t-119 13v84q82 -4 311 -4l483 4q331 0 454 -185q62 -93 88 -212t26 -295t-28 -306q-62 -286 -290 -375q-123 -48 -307 -48l-426 4q-229 0 -311 -4v84zM496 788h249v-100h-249v-596
q53 -6 98 -6q290 0 389 179q86 156 86 421q0 125 -6 201t-30 161t-64 140q-41 55 -115 95q-132 72 -358 38v-533z" />
    <glyph glyph-name="Ntilde" unicode="&#xd1;" horiz-adv-x="1593" 
d="M926 1575q-68 1 -240 81q-42 20 -82 19q-63 0 -96 -96h-88q61 256 248 256q58 0 160 -47t144 -49q42 -3 72 23t41 73h89q-57 -260 -248 -260zM47 80q119 0 145 28t25 138v975q0 54 -10 71q-10 16 -37 28t-123 13v84l219 -4q63 0 195 4l811 -1073v823q0 113 -29 140
t-162 26v84q74 -4 240 -4l250 4v-84q-133 -1 -159 -27t-26 -139v-1171l-120 4l-113 -4l-821 1102v-852q0 -66 2 -90t22 -46t58 -26t114 -4v-84q-176 0 -262 4q-165 0 -219 -4v84z" />
    <glyph glyph-name="Ograve" unicode="&#xd2;" horiz-adv-x="1593" 
d="M1075 1536h-112l-326 199q-47 29 -48 80t27 75q27 31 79 25t89 -49zM410 775q0 -185 8 -275q19 -210 99 -316q94 -118 279 -118t276 118q83 104 99 316q8 90 9 213q0 392 -108 528q-93 117 -277 117q-273 0 -344 -256q-41 -142 -41 -327zM795 -20q-377 0 -546 177
t-169 555t169 555t546 177t545 -177t169 -555q-1 -378 -169 -555t-545 -177z" />
    <glyph glyph-name="Oacute" unicode="&#xd3;" horiz-adv-x="1593" 
d="M1122 1825q0 -32 -10 -45q-10 -14 -14 -20t-20 -18q-16 -11 -17 -13q-2 -2 -23 -15l-290 -178h-113l262 303q84 100 168 68q57 -16 57 -82zM410 775q0 -185 8 -275q19 -210 99 -316q94 -118 279 -118t276 118q83 104 99 316q8 90 9 213q0 392 -108 528q-93 117 -277 117
q-273 0 -344 -256q-41 -142 -41 -327zM795 -20q-377 0 -546 177t-169 555t169 555t546 177t545 -177t169 -555q-1 -378 -169 -555t-545 -177z" />
    <glyph glyph-name="Ocircumflex" unicode="&#xd4;" horiz-adv-x="1593" 
d="M702 1896h191l252 -360h-117l-229 201l-232 -201h-112zM410 775q0 -185 8 -275q19 -210 99 -316q94 -118 279 -118t276 118q83 104 99 316q8 90 9 213q0 392 -108 528q-93 117 -277 117q-273 0 -344 -256q-41 -142 -41 -327zM795 -20q-377 0 -546 177t-169 555t169 555
t546 177t545 -177t169 -555q-1 -378 -169 -555t-545 -177z" />
    <glyph glyph-name="Otilde" unicode="&#xd5;" horiz-adv-x="1593" 
d="M926 1575q-68 1 -240 81q-42 20 -82 19q-63 0 -96 -96h-88q61 256 248 256q58 0 160 -47t144 -49q42 -3 72 23t41 73h89q-57 -260 -248 -260zM410 775q0 -185 8 -275q19 -210 99 -316q94 -118 279 -118t276 118q83 104 99 316q8 90 9 213q0 392 -108 528
q-93 117 -277 117q-273 0 -344 -256q-41 -142 -41 -327zM795 -20q-377 0 -546 177t-169 555t169 555t546 177t545 -177t169 -555q-1 -378 -169 -555t-545 -177z" />
    <glyph glyph-name="Odieresis" unicode="&#xd6;" horiz-adv-x="1593" 
d="M715 1688q0 -54 -39 -94t-92 -40t-91 41t-38 93t38 93q38 40 90 40t92 -39t40 -94zM1013 1821q52 0 92 -41t40 -93q0 -53 -39 -93t-93 -40t-93 40t-39 94t40 93q40 40 92 40zM410 775q0 -185 8 -275q19 -210 99 -316q94 -118 279 -118t276 118q83 104 99 316q8 90 9 213
q0 392 -108 528q-93 117 -277 117q-273 0 -344 -256q-41 -142 -41 -327zM795 -20q-377 0 -546 177t-169 555t169 555t546 177t545 -177t169 -555q-1 -378 -169 -555t-545 -177z" />
    <glyph glyph-name="multiply" unicode="&#xd7;" horiz-adv-x="1241" 
d="M494 522l-344 344l124 123l347 -342l344 346l125 -125l-347 -346l351 -350l-125 -125l-348 350l-349 -346l-125 125z" />
    <glyph glyph-name="Oslash" unicode="&#xd8;" horiz-adv-x="1593" 
d="M795 -20q-328 0 -508 143l-172 -178l-72 73l172 179q-133 166 -137 514q2 379 171 556t546 177q317 0 497 -133l170 176l78 -68l-174 -180q141 -168 145 -528q-2 -377 -171 -554t-545 -177zM1155 1022l-696 -719q78 -236 336 -237q186 0 277 118q83 104 99 316
q9 90 9 246t-25 276zM795 1358q-273 0 -344 -256q-41 -141 -41 -357t20 -325l694 717q-78 221 -329 221z" />
    <glyph glyph-name="Ugrave" unicode="&#xd9;" horiz-adv-x="1593" 
d="M1075 1536h-112l-326 199q-47 29 -48 80t27 75q27 31 79 25t89 -49zM1565 1333q-72 0 -108 -4q-36 -3 -54 -27q-19 -24 -21 -48t-2 -85v-727q0 -463 -549 -462q-158 0 -260 16q-243 38 -314 212q-40 97 -40 249v712q-2 31 -1 56t-2 52t-31 37q-48 19 -146 19v84
q98 -4 331 -4q232 0 328 4v-84l-94 -4q-18 0 -32 -7t-23 -9q-9 -3 -15 -15t-11 -16t-5 -27v-815q-4 -190 75 -284t271 -94t297 100q106 102 107 293v714q0 115 -31 140t-176 24v84l256 -4l250 4v-84z" />
    <glyph glyph-name="Uacute" unicode="&#xda;" horiz-adv-x="1593" 
d="M1163 1825q0 -32 -10 -45q-10 -14 -14 -20q-3 -6 -19 -18q-16 -11 -18 -13t-23 -15l-291 -178h-112l262 303q84 100 168 68q57 -16 57 -82zM1565 1333q-72 0 -108 -4q-36 -3 -54 -27q-19 -24 -21 -48t-2 -85v-727q0 -463 -549 -462q-158 0 -260 16q-243 38 -314 212
q-40 97 -40 249v712q-2 31 -1 56t-2 52t-31 37q-48 19 -146 19v84q98 -4 331 -4q232 0 328 4v-84l-94 -4q-18 0 -32 -7t-23 -9q-9 -3 -15 -15t-11 -16t-5 -27v-815q-4 -190 75 -284t271 -94t297 100q106 102 107 293v714q0 115 -31 140t-176 24v84l256 -4l250 4v-84z" />
    <glyph glyph-name="Ucircumflex" unicode="&#xdb;" horiz-adv-x="1593" 
d="M733 1896h191l252 -360h-117l-230 201l-231 -201h-113zM1565 1333q-72 0 -108 -4q-36 -3 -54 -27q-19 -24 -21 -48t-2 -85v-727q0 -463 -549 -462q-158 0 -260 16q-243 38 -314 212q-40 97 -40 249v712q-2 31 -1 56t-2 52t-31 37q-48 19 -146 19v84q98 -4 331 -4
q232 0 328 4v-84l-94 -4q-18 0 -32 -7t-23 -9q-9 -3 -15 -15t-11 -16t-5 -27v-815q-4 -190 75 -284t271 -94t297 100q106 102 107 293v714q0 115 -31 140t-176 24v84l256 -4l250 4v-84z" />
    <glyph glyph-name="Udieresis" unicode="&#xdc;" horiz-adv-x="1593" 
d="M614 1554q-53 0 -91 41t-38 93t38 93q38 40 90 40q53 0 93 -39t40 -94t-39 -95q-40 -39 -93 -39zM1043 1821q53 0 93 -41t40 -93q0 -53 -39 -93t-93 -40t-94 40q-39 40 -39 94t40 93q40 40 92 40zM1565 1333q-72 0 -108 -4q-36 -3 -54 -27q-19 -24 -21 -48t-2 -85v-727
q0 -463 -549 -462q-158 0 -260 16q-243 38 -314 212q-40 97 -40 249v712q-2 31 -1 56t-2 52t-31 37q-48 19 -146 19v84q98 -4 331 -4q232 0 328 4v-84l-94 -4q-18 0 -32 -7t-23 -9q-9 -3 -15 -15t-11 -16t-5 -27v-815q-4 -190 75 -284t271 -94t297 100q106 102 107 293v714
q0 115 -31 140t-176 24v84l256 -4l250 4v-84z" />
    <glyph glyph-name="Yacute" unicode="&#xdd;" horiz-adv-x="1478" 
d="M1106 1825q0 -32 -10 -45q-10 -14 -17 -23t-57 -43l-291 -178h-113l263 303q84 100 168 68q57 -16 57 -82zM909 219q0 -55 2 -75t24 -38q21 -20 61 -23t124 -3v-84q-242 0 -360 4q-118 -4 -361 -4v84q145 0 165 12t32 20q14 8 14 62v358q0 78 -18 115l-234 369
q-124 206 -165 242q-65 53 -94 63q-28 10 -60 14v82l344 -4l342 4v-86q-20 0 -71 -9t-65 -31q-28 -39 -8 -74q7 -14 26 -42t32 -49l217 -360l180 324q74 125 74 170t-24 55t-33 12q-10 2 -42 4t-42 4v82l239 -4l238 4v-82q-76 -14 -105 -35q-29 -22 -41 -29
q-29 -17 -151 -212l-231 -369l-9 -43v-428z" />
    <glyph glyph-name="Thorn" unicode="&#xde;" horiz-adv-x="1251" 
d="M862 739q0 151 -57 221t-209 70l-94 -6v-643q360 -35 360 358zM35 80q95 0 121 12t36 30t11 56v989q-2 31 0 71q2 62 -40 79q-42 16 -140 16v84q98 -4 329 -4l350 4v-84q-146 0 -172 -21t-26 -54l-2 -91v-47h326q178 0 267 -82t89 -312t-118 -327q-148 -123 -488 -107
q-63 3 -76 3v-78q0 -88 20 -108q33 -29 180 -29v-84l-350 4q-229 0 -317 -4v84z" />
    <glyph glyph-name="germandbls" unicode="&#xdf;" horiz-adv-x="1251" 
d="M565 856v88q96 6 115 19q43 27 47 176q2 41 2 98v60q0 44 -8 61q-8 18 -19 39t-46 33q-34 12 -60 12q-150 0 -150 -160v-1092q0 -66 23 -88t82 -18q-12 74 -12 113q-18 55 22 61h115v-119q0 -63 65 -67q31 0 48 17q22 23 22 89v420q0 162 -46 210t-200 48zM27 76
q99 0 119 22q9 10 19 19t9 62q-2 53 -2 67v899q0 199 103 290t325 91t314 -84t92 -208t-50 -179t-176 -117v-4q131 -4 192 -44q34 -22 58 -42t39 -60q13 -40 23 -68q18 -49 18 -227v-63q0 -229 -75 -340t-287 -110q-96 0 -173 71v-55q-176 0 -266 4l-282 -4v80z" />
    <glyph glyph-name="agrave" unicode="&#xe0;" 
d="M848 1096h-113l-325 198q-47 29 -49 80q-1 51 28 76q27 31 79 25t89 -50zM680 283v188h-78q-88 0 -134 -28t-67 -107q-37 -231 125 -232q154 1 154 179zM104 258q0 129 65 201t189 84q72 8 154 8h168q0 20 3 67t4 79q5 202 -131 202q-76 0 -110 -35q-35 -35 -38 -127
q6 -61 -41 -61h-144q-20 -4 -32 11q-11 15 -9 50q-8 87 47 145q98 104 318 101q189 -11 257 -34t94 -57q56 -73 56 -224v-422q0 -75 -2 -95t4 -38q6 -17 12 -21q29 -16 67 -16h65v-80l-205 4l-205 -4v96q-92 -61 -158 -87t-155 -25q-135 0 -204 74t-69 204z" />
    <glyph glyph-name="aacute" unicode="&#xe1;" 
d="M895 1392q0 -58 -44 -90q-15 -12 -17 -14t-23 -14l-291 -178h-112l262 303q84 100 168 67q57 -16 57 -74zM680 283v188h-78q-88 0 -134 -28t-67 -107q-37 -231 125 -232q154 1 154 179zM104 258q0 129 65 201t189 84q72 8 154 8h168q0 20 3 67t4 79q5 202 -131 202
q-76 0 -110 -35q-35 -35 -38 -127q6 -61 -41 -61h-144q-20 -4 -32 11q-11 15 -9 50q-8 87 47 145q98 104 318 101q189 -11 257 -34t94 -57q56 -73 56 -224v-422q0 -75 -2 -95t4 -38q6 -17 12 -21q29 -16 67 -16h65v-80l-205 4l-205 -4v96q-92 -61 -158 -87t-155 -25
q-135 0 -204 74t-69 204z" />
    <glyph glyph-name="acircumflex" unicode="&#xe2;" 
d="M475 1456h191l252 -360h-117l-230 200l-231 -200h-113zM680 283v188h-78q-88 0 -134 -28t-67 -107q-37 -231 125 -232q154 1 154 179zM104 258q0 129 65 201t189 84q72 8 154 8h168q0 20 3 67t4 79q5 202 -131 202q-76 0 -110 -35q-35 -35 -38 -127q6 -61 -41 -61h-144
q-20 -4 -32 11q-11 15 -9 50q-8 87 47 145q98 104 318 101q189 -11 257 -34t94 -57q56 -73 56 -224v-422q0 -75 -2 -95t4 -38q6 -17 12 -21q29 -16 67 -16h65v-80l-205 4l-205 -4v96q-92 -61 -158 -87t-155 -25q-135 0 -204 74t-69 204z" />
    <glyph glyph-name="atilde" unicode="&#xe3;" 
d="M698 1135q-59 0 -157 45q-23 9 -76 32q-52 23 -88 23q-63 0 -96 -96h-88q61 256 247 256q59 1 161 -47t144 -50q41 -2 71 24t42 73h88q-57 -260 -248 -260zM680 283v188h-78q-88 0 -134 -28t-67 -107q-37 -231 125 -232q154 1 154 179zM104 258q0 129 65 201t189 84
q72 8 154 8h168q0 20 3 67t4 79q5 202 -131 202q-76 0 -110 -35q-35 -35 -38 -127q6 -61 -41 -61h-144q-20 -4 -32 11q-11 15 -9 50q-8 87 47 145q98 104 318 101q189 -11 257 -34t94 -57q56 -73 56 -224v-422q0 -75 -2 -95t4 -38q6 -17 12 -21q29 -16 67 -16h65v-80l-205 4
l-205 -4v96q-92 -61 -158 -87t-155 -25q-135 0 -204 74t-69 204z" />
    <glyph glyph-name="adieresis" unicode="&#xe4;" 
d="M487 1247q0 -55 -39 -94t-92 -39t-91 41t-38 93t38 92t90 40t92 -39t40 -94zM785 1380q53 0 93 -41t40 -93t-39 -92t-93 -40t-94 40q-39 40 -39 93t40 93t92 40zM680 283v188h-78q-88 0 -134 -28t-67 -107q-37 -231 125 -232q154 1 154 179zM104 258q0 129 65 201t189 84
q72 8 154 8h168q0 20 3 67t4 79q5 202 -131 202q-76 0 -110 -35q-35 -35 -38 -127q6 -61 -41 -61h-144q-20 -4 -32 11q-11 15 -9 50q-8 87 47 145q98 104 318 101q189 -11 257 -34t94 -57q56 -73 56 -224v-422q0 -75 -2 -95t4 -38q6 -17 12 -21q29 -16 67 -16h65v-80l-205 4
l-205 -4v96q-92 -61 -158 -87t-155 -25q-135 0 -204 74t-69 204z" />
    <glyph glyph-name="aring" unicode="&#xe5;" 
d="M446 1314q0 -50 38 -87t87 -37t86 37t37 87t-37 86t-87 36t-87 -36t-37 -86zM791 1313q0 -90 -65 -155q-65 -64 -155 -64q-89 0 -155 64t-66 154t67 156t155 66t153 -66q66 -66 66 -155zM680 283v188h-78q-88 0 -134 -28t-67 -107q-37 -231 125 -232q154 1 154 179z
M104 258q0 129 65 201t189 84q72 8 154 8h168q0 20 3 67t4 79q5 202 -131 202q-76 0 -110 -35q-35 -35 -38 -127q6 -61 -41 -61h-144q-20 -4 -32 11q-11 15 -9 50q-8 87 47 145q98 104 318 101q189 -11 257 -34t94 -57q56 -73 56 -224v-422q0 -75 -2 -95t4 -38q6 -17 12 -21
q29 -16 67 -16h65v-80l-205 4l-205 -4v96q-92 -61 -158 -87t-155 -25q-135 0 -204 74t-69 204z" />
    <glyph glyph-name="ae" unicode="&#xe6;" horiz-adv-x="1593" 
d="M645 463h-104q-97 -8 -137 -49t-39 -135q0 -176 127 -177q114 0 141 119q12 62 12 135v107zM1452 285q29 0 16 -56q-6 -92 -66 -150q-102 -99 -300 -99q-293 -10 -408 165q-74 -94 -146 -130q-72 -35 -197 -35t-201 72t-76 206q0 287 323 291h248q0 25 2 89
q6 197 -48 235q-37 26 -95 26t-92 -36t-39 -130q6 -61 -41 -61h-144q-20 -4 -31 11t-10 50q-12 129 98 189t267 61q193 -6 287 -78q104 78 272 78q111 1 187 -21q177 -50 220 -238q24 -105 9 -261h-572v-125q0 -83 18 -145t43 -84q52 -44 129 -45q158 -2 183 184q5 32 29 37
h135zM915 549h306q0 8 2 109t-13 137q-16 35 -32 61q-32 53 -113 49t-114 -58q-33 -55 -34 -118q-2 -62 -2 -112v-68z" />
    <glyph glyph-name="ccedilla" unicode="&#xe7;" horiz-adv-x="1024" 
d="M801 668q-16 235 -191 235q-90 0 -139 -37q-49 -36 -67 -112q-26 -108 -27 -228v-130q0 -98 11 -141q30 -116 64 -145q59 -51 138 -53q114 1 152 61t57 195h133v-272q-168 -61 -395 -61h-35l-56 -127q86 33 170 -9t81 -136q-3 -95 -103 -136q-82 -33 -166 -33t-195 37
l33 76q73 -31 131 -28q111 6 107 87q-2 51 -50 65t-100 -3l-20 16l88 199q-180 28 -264 144t-84 354t113 368q114 129 374 129q205 0 371 -74v-241h-131z" />
    <glyph glyph-name="egrave" unicode="&#xe8;" horiz-adv-x="1024" 
d="M791 1096h-113l-326 198q-47 29 -48 80t28 76q27 31 79 25t89 -50zM373 553h307v61q0 198 -38 239q-13 15 -35 33t-79 17q-107 0 -134 -91q-21 -71 -21 -157v-102zM373 459q0 -8 -1 -48q-1 -39 0 -57t3 -57t7 -59t14 -58t48 -77q38 -38 114 -39q77 -1 123 42t60 144
q5 32 29 37h129q27 0 23 -56q-6 -92 -66 -151q-60 -60 -136 -80q-75 -20 -165 -20q-276 0 -379 115q-102 116 -102 392t105 386t361 110q256 -1 340 -121q86 -120 74 -403h-581z" />
    <glyph glyph-name="eacute" unicode="&#xe9;" horiz-adv-x="1024" 
d="M754 1274l-291 -178h-113l262 303q84 100 168 67q57 -16 58 -82q0 -31 -10 -45t-15 -20q-4 -6 -19 -17q-16 -12 -18 -14t-22 -14zM373 553h307v61q0 198 -38 239q-13 15 -35 33t-79 17q-107 0 -134 -91q-21 -71 -21 -157v-102zM373 459q0 -8 -1 -48q-1 -39 0 -57t3 -57
t7 -59t14 -58t48 -77q38 -38 114 -39q77 -1 123 42t60 144q5 32 29 37h129q27 0 23 -56q-6 -92 -66 -151q-60 -60 -136 -80q-75 -20 -165 -20q-276 0 -379 115q-102 116 -102 392t105 386t361 110q256 -1 340 -121q86 -120 74 -403h-581z" />
    <glyph glyph-name="ecircumflex" unicode="&#xea;" horiz-adv-x="1024" 
d="M418 1456h190l252 -360h-117l-229 200l-231 -200h-113zM373 553h307v61q0 198 -38 239q-13 15 -35 33t-79 17q-107 0 -134 -91q-21 -71 -21 -157v-102zM373 459q0 -8 -1 -48q-1 -39 0 -57t3 -57t7 -59t14 -58t48 -77q38 -38 114 -39q77 -1 123 42t60 144q5 32 29 37h129
q27 0 23 -56q-6 -92 -66 -151q-60 -60 -136 -80q-75 -20 -165 -20q-276 0 -379 115q-102 116 -102 392t105 386t361 110q256 -1 340 -121q86 -120 74 -403h-581z" />
    <glyph glyph-name="edieresis" unicode="&#xeb;" horiz-adv-x="1024" 
d="M299 1114q-53 0 -91 41t-38 93t38 92t90 40t92 -39t40 -94t-39 -94t-92 -39zM728 1380q52 0 92 -41t40 -93t-39 -92t-93 -40t-93 40t-39 93t40 93t92 40zM373 553h307v61q0 198 -38 239q-13 15 -35 33t-79 17q-107 0 -134 -91q-21 -71 -21 -157v-102zM373 459
q0 -8 -1 -48q-1 -39 0 -57t3 -57t7 -59t14 -58t48 -77q38 -38 114 -39q77 -1 123 42t60 144q5 32 29 37h129q27 0 23 -56q-6 -92 -66 -151q-60 -60 -136 -80q-75 -20 -165 -20q-276 0 -379 115q-102 116 -102 392t105 386t361 110q256 -1 340 -121q86 -120 74 -403h-581z
" />
    <glyph glyph-name="igrave" unicode="&#xec;" horiz-adv-x="681" 
d="M618 1096h-112l-326 198q-47 29 -48 80t28 76q27 31 79 25t89 -50zM209 198v547q0 105 -16 123t-130 19v80h420v-829q0 -17 4 -22q3 -6 7 -16t13 -11t18 -6t26 -5l78 -2v-80l-283 4l-283 -4v80h49l62 8q11 0 26 20t12 41t-3 53z" />
    <glyph glyph-name="iacute" unicode="&#xed;" horiz-adv-x="681" 
d="M582 1274l-291 -178h-113l262 303q84 100 168 67q57 -16 58 -82q0 -31 -10 -45t-15 -20q-4 -6 -19 -17q-16 -12 -18 -14t-22 -14zM209 198v547q0 105 -16 123t-130 19v80h420v-829q0 -17 4 -22q3 -6 7 -16t13 -11t18 -6t26 -5l78 -2v-80l-283 4l-283 -4v80h49l62 8
q11 0 26 20t12 41t-3 53z" />
    <glyph glyph-name="icircumflex" unicode="&#xee;" horiz-adv-x="681" 
d="M246 1456h190l252 -360h-117l-229 200l-231 -200h-113zM209 198v547q0 105 -16 123t-130 19v80h420v-829q0 -17 4 -22q3 -6 7 -16t13 -11t18 -6t26 -5l78 -2v-80l-283 4l-283 -4v80h49l62 8q11 0 26 20t12 41t-3 53z" />
    <glyph glyph-name="idieresis" unicode="&#xef;" horiz-adv-x="681" 
d="M127 1114q-53 0 -91 41t-38 93t38 92t90 40t92 -39t40 -94t-39 -94t-92 -39zM556 1380q52 0 92 -41t40 -93t-39 -92t-93 -40t-93 40t-39 93t40 93t92 40zM209 198v547q0 105 -16 123t-130 19v80h420v-829q0 -17 4 -22q3 -6 7 -16t13 -11t18 -6t26 -5l78 -2v-80l-283 4
l-283 -4v80h49l62 8q11 0 26 20t12 41t-3 53z" />
    <glyph glyph-name="eth" unicode="&#xf0;" 
d="M1055 623q0 -287 -125 -465t-368 -178q-242 0 -360 112t-118 377q0 266 111 390t374 124q96 0 197 -61q-16 182 -145 321l-308 -164l-92 70l316 170q-141 109 -320 147l70 62q217 -12 393 -133l227 123l97 -68l-234 -125q285 -250 285 -702zM569 59q35 0 69 13t60 52
q27 40 35 76l15 60t7 67q1 41 2 63t0 62t-1 50t1 48t0 57t-2 60t-16 92q-14 52 -28 69q-15 16 -33 36q-35 36 -109 37q-75 0 -108 -36q-19 -19 -33 -37t-22 -49q-8 -33 -14 -55t-8 -60q-1 -38 -2 -56q-1 -20 0 -58t1 -48t-1 -50t0 -62t2 -65t16 -102q14 -59 28 -81
q36 -57 71 -70t70 -13z" />
    <glyph glyph-name="ntilde" unicode="&#xf1;" horiz-adv-x="1251" 
d="M754 1135q-57 0 -240 80q-46 20 -82 20q-63 0 -96 -96h-88q61 256 248 256q58 1 160 -47t144 -50t72 24t41 73h88q-57 -260 -247 -260zM1005 905q65 -78 64 -237v-422q0 -10 -1 -46t0 -42t5 -29t13 -27t29 -15t99 -11v-80l-282 4q-182 0 -256 -4v80q64 0 81 13t24 19
t11 26q4 22 4 30q1 8 0 39t-1 43v389q0 100 -33 151t-127 52q-176 0 -176 -232v-360q0 -12 -1 -43t3 -61t11 -34q7 -5 24 -18t82 -14v-80q-74 4 -258 4t-279 -4v80q77 0 96 11q20 11 30 15q21 9 19 71q-2 61 -2 73v471q0 12 1 47t-4 64t-14 32q-9 4 -30 16t-96 11v80l205 -4
l203 4v-125q12 8 82 59q114 82 261 82q148 0 213 -78z" />
    <glyph glyph-name="ograve" unicode="&#xf2;" 
d="M848 1096h-113l-325 198q-47 29 -49 80q-1 51 28 76q27 31 79 25t89 -50zM381 502q0 -10 -1 -50t0 -62t2 -64t7 -66q6 -25 16 -69t50 -87t112 -44t112 44t50 88q10 44 16 68t8 67q1 41 2 63t0 62t-1 50t1 48t0 57t-2 57t-7 62q-6 22 -15 54q-8 32 -22 48q-15 16 -33 36
q-35 36 -109 37q-75 0 -108 -36q-19 -19 -33 -37t-22 -49q-8 -33 -15 -55q-6 -22 -7 -60t-2 -56q-1 -20 0 -58t1 -48zM567 983q264 0 374 -124t110 -390t-117 -378q-117 -111 -367 -111q-249 0 -367 112t-118 377q0 266 110 390t375 124z" />
    <glyph glyph-name="oacute" unicode="&#xf3;" 
d="M895 1392q0 -58 -44 -90q-15 -12 -17 -14t-23 -14l-291 -178h-112l262 303q84 100 168 67q57 -16 57 -74zM381 502q0 -10 -1 -50t0 -62t2 -64t7 -66q6 -25 16 -69t50 -87t112 -44t112 44t50 88q10 44 16 68t8 67q1 41 2 63t0 62t-1 50t1 48t0 57t-2 57t-7 62
q-6 22 -15 54q-8 32 -22 48q-15 16 -33 36q-35 36 -109 37q-75 0 -108 -36q-19 -19 -33 -37t-22 -49q-8 -33 -15 -55q-6 -22 -7 -60t-2 -56q-1 -20 0 -58t1 -48zM567 983q264 0 374 -124t110 -390t-117 -378q-117 -111 -367 -111q-249 0 -367 112t-118 377q0 266 110 390
t375 124z" />
    <glyph glyph-name="ocircumflex" unicode="&#xf4;" 
d="M475 1456h191l252 -360h-117l-230 200l-231 -200h-113zM381 502q0 -10 -1 -50t0 -62t2 -64t7 -66q6 -25 16 -69t50 -87t112 -44t112 44t50 88q10 44 16 68t8 67q1 41 2 63t0 62t-1 50t1 48t0 57t-2 57t-7 62q-6 22 -15 54q-8 32 -22 48q-15 16 -33 36q-35 36 -109 37
q-75 0 -108 -36q-19 -19 -33 -37t-22 -49q-8 -33 -15 -55q-6 -22 -7 -60t-2 -56q-1 -20 0 -58t1 -48zM567 983q264 0 374 -124t110 -390t-117 -378q-117 -111 -367 -111q-249 0 -367 112t-118 377q0 266 110 390t375 124z" />
    <glyph glyph-name="otilde" unicode="&#xf5;" 
d="M698 1135q-59 0 -157 45q-23 9 -76 32q-52 23 -88 23q-63 0 -96 -96h-88q61 256 247 256q59 1 161 -47t144 -50q41 -2 71 24t42 73h88q-57 -260 -248 -260zM381 502q0 -10 -1 -50t0 -62t2 -64t7 -66q6 -25 16 -69t50 -87t112 -44t112 44t50 88q10 44 16 68t8 67
q1 41 2 63t0 62t-1 50t1 48t0 57t-2 57t-7 62q-6 22 -15 54q-8 32 -22 48q-15 16 -33 36q-35 36 -109 37q-75 0 -108 -36q-19 -19 -33 -37t-22 -49q-8 -33 -15 -55q-6 -22 -7 -60t-2 -56q-1 -20 0 -58t1 -48zM567 983q264 0 374 -124t110 -390t-117 -378
q-117 -111 -367 -111q-249 0 -367 112t-118 377q0 266 110 390t375 124z" />
    <glyph glyph-name="odieresis" unicode="&#xf6;" 
d="M487 1247q0 -55 -39 -94t-92 -39t-91 41t-38 93t38 92t90 40t92 -39t40 -94zM785 1380q53 0 93 -41t40 -93t-39 -92t-93 -40t-94 40q-39 40 -39 93t40 93t92 40zM381 502q0 -10 -1 -50t0 -62t2 -64t7 -66q6 -25 16 -69t50 -87t112 -44t112 44t50 88q10 44 16 68t8 67
q1 41 2 63t0 62t-1 50t1 48t0 57t-2 57t-7 62q-6 22 -15 54q-8 32 -22 48q-15 16 -33 36q-35 36 -109 37q-75 0 -108 -36q-19 -19 -33 -37t-22 -49q-8 -33 -15 -55q-6 -22 -7 -60t-2 -56q-1 -20 0 -58t1 -48zM567 983q264 0 374 -124t110 -390t-117 -378
q-117 -111 -367 -111q-249 0 -367 112t-118 377q0 266 110 390t375 124z" />
    <glyph glyph-name="divide" unicode="&#xf7;" horiz-adv-x="1241" 
d="M623 10q-53 0 -92 41q-37 41 -37 93t37 93q39 39 91 39t92 -38t40 -94t-39 -95t-92 -39zM623 768q-53 0 -92 41q-37 41 -37 93t37 92q39 40 91 40t92 -39t40 -94t-39 -94t-92 -39zM104 434v176h1033v-176h-1033z" />
    <glyph glyph-name="oslash" unicode="&#xf8;" 
d="M582 901q-88 0 -121 -36q-19 -19 -33 -35t-24 -52q-10 -35 -16 -60q-7 -25 -7 -75v-141q0 -68 4 -150l348 422q-18 55 -61 91q-42 36 -90 36zM1053 475q0 -272 -118 -384t-368 -111q-203 0 -313 69l-143 -174l-66 68l137 168q-100 113 -100 369t111 379q111 124 374 124
q185 0 289 -59l148 178l81 -53l-151 -183q119 -119 119 -391zM555 59q110 0 149 70t45 132q5 62 6 91t0 83q-1 55 -1 73t-4 137l-355 -426q11 -70 57 -115t103 -45z" />
    <glyph glyph-name="ugrave" unicode="&#xf9;" horiz-adv-x="1251" 
d="M903 1096h-112l-326 198q-47 29 -48 80t27 76q27 31 79 25t89 -50zM488 -20q-182 0 -243 70q-62 70 -63 243v515q0 32 -8 40l-18 18q-21 21 -119 21v80l211 -4l209 4v-594q0 -191 63 -233q33 -22 84 -22q140 1 169 114q13 58 13 153v420q0 33 -7 41q-24 27 -52 34t-76 7
v80l205 -4l205 4v-805q0 -34 5 -41t12 -17q8 -10 18 -13t28 -9t80 -6v-80l-205 4l-202 -4v131q-127 -147 -309 -147z" />
    <glyph glyph-name="uacute" unicode="&#xfa;" horiz-adv-x="1251" 
d="M950 1384q0 -30 -10 -44t-14 -21q-4 -6 -20 -17q-16 -12 -17 -14q-2 -2 -23 -14l-291 -178h-112l262 303q84 100 168 67q57 -16 57 -82zM488 -20q-182 0 -243 70q-62 70 -63 243v515q0 32 -8 40l-18 18q-21 21 -119 21v80l211 -4l209 4v-594q0 -191 63 -233
q33 -22 84 -22q140 1 169 114q13 58 13 153v420q0 33 -7 41q-24 27 -52 34t-76 7v80l205 -4l205 4v-805q0 -34 5 -41t12 -17q8 -10 18 -13t28 -9t80 -6v-80l-205 4l-202 -4v131q-127 -147 -309 -147z" />
    <glyph glyph-name="ucircumflex" unicode="&#xfb;" horiz-adv-x="1251" 
d="M530 1456h191l252 -360h-117l-229 200l-232 -200h-112zM488 -20q-182 0 -243 70q-62 70 -63 243v515q0 32 -8 40l-18 18q-21 21 -119 21v80l211 -4l209 4v-594q0 -191 63 -233q33 -22 84 -22q140 1 169 114q13 58 13 153v420q0 33 -7 41q-24 27 -52 34t-76 7v80l205 -4
l205 4v-805q0 -34 5 -41t12 -17q8 -10 18 -13t28 -9t80 -6v-80l-205 4l-202 -4v131q-127 -147 -309 -147z" />
    <glyph glyph-name="udieresis" unicode="&#xfc;" horiz-adv-x="1251" 
d="M412 1114q-53 0 -91 41t-38 93t38 92t90 40t92 -39t40 -94t-39 -94t-92 -39zM841 1380q52 0 92 -41t40 -93t-39 -92t-93 -40t-93 40t-39 93t40 93t92 40zM488 -20q-182 0 -243 70q-62 70 -63 243v515q0 32 -8 40l-18 18q-21 21 -119 21v80l211 -4l209 4v-594
q0 -191 63 -233q33 -22 84 -22q140 1 169 114q13 58 13 153v420q0 33 -7 41q-24 27 -52 34t-76 7v80l205 -4l205 4v-805q0 -34 5 -41t12 -17q8 -10 18 -13t28 -9t80 -6v-80l-205 4l-202 -4v131q-127 -147 -309 -147z" />
    <glyph glyph-name="yacute" unicode="&#xfd;" 
d="M895 1392q0 -58 -44 -90q-15 -12 -17 -14t-23 -14l-291 -178h-112l262 303q84 100 168 67q57 -16 57 -74zM218 -512q-66 0 -112 40q-45 40 -45 92t28 82t67 35q40 5 68 -20t55 -51t59 -22q94 8 166 202l59 154h-100l-283 758q-39 92 -56 107t-104 28v74l283 -4l281 4v-74
l-37 -6q-78 -12 -84 -40t12 -89l187 -516l151 518q29 86 16 104q-20 29 -120 29v74l202 -4l201 4v-74q-12 -4 -42 -6t-45 -9q-15 -6 -42 -46t-53 -113l-350 -914q-33 -94 -120 -199q-44 -52 -110 -85t-132 -33z" />
    <glyph glyph-name="thorn" unicode="&#xfe;" horiz-adv-x="1251" 
d="M39 -516v80q35 0 59 3t41 4q19 1 29 12t17 15t10 25q2 21 3 29t0 39t-1 45v1544q0 10 1 46t-4 65t-14 32q-10 3 -29 15t-100 12v76h420v-670h4q90 127 291 127q377 1 377 -501t-393 -502q-90 0 -148 18t-131 74v-408q0 -70 27 -80q10 -4 29 -12t114 -8v-80q-209 0 -307 4
q-98 -4 -295 -4zM844 391v168q0 230 -86 291q-40 29 -94 29q-99 0 -140 -74q-40 -74 -45 -142q-6 -67 -7 -99t-1 -89t3 -138t17 -120q15 -39 34 -75q37 -70 130 -70q125 0 161 109q28 86 28 210z" />
    <glyph glyph-name="ydieresis" unicode="&#xff;" 
d="M487 1247q0 -55 -39 -94t-92 -39t-91 41t-38 93t38 92t90 40t92 -39t40 -94zM785 1380q53 0 93 -41t40 -93t-39 -92t-93 -40t-94 40q-39 40 -39 93t40 93t92 40zM218 -512q-66 0 -112 40q-45 40 -45 92t28 82t67 35q40 5 68 -20t55 -51t59 -22q94 8 166 202l59 154h-100
l-283 758q-39 92 -56 107t-104 28v74l283 -4l281 4v-74l-37 -6q-78 -12 -84 -40t12 -89l187 -516l151 518q29 86 16 104q-20 29 -120 29v74l202 -4l201 4v-74q-12 -4 -42 -6t-45 -9q-15 -6 -42 -46t-53 -113l-350 -914q-33 -94 -120 -199q-44 -52 -110 -85t-132 -33z" />
    <glyph glyph-name="dotlessi" unicode="&#x131;" horiz-adv-x="681" 
d="M209 198v547q0 105 -16 123t-130 19v80h420v-829q0 -17 4 -22q3 -6 7 -16t13 -11t18 -6t26 -5l78 -2v-80l-283 4l-283 -4v80h49l62 8q11 0 26 20t12 41t-3 53z" />
    <glyph glyph-name="Lslash" unicode="&#x141;" horiz-adv-x="1251" 
d="M528 1253v-397l260 201v-127l-260 -203v-637h228q61 0 117 5t103 59q25 27 36 101q10 75 18 153h150v-412q-532 4 -739 4t-384 -4v84q97 0 131 15t38 44q3 29 3 53v289l-172 -143v129l172 143v557q0 14 1 41t0 36q-1 10 -3 28t-9 24t-18 16q-10 10 -30 13q-20 2 -48 5
t-65 3v84q94 -4 324 -4t328 4v-84l-95 -4q-18 0 -31 -7t-23 -9q-10 -3 -16 -15q-4 -12 -10 -16q-6 -5 -6 -29z" />
    <glyph glyph-name="lslash" unicode="&#x142;" horiz-adv-x="681" 
d="M63 76q100 0 120 22q9 10 19 19t9 62q-2 53 -2 67v424l-146 -121v129l146 123v479q0 10 1 46t-4 65t-14 32q-10 3 -29 15t-100 12v76h420v-482l146 107v-129l-146 -107v-669q0 -10 -1 -46t4 -65t14 -33q10 -4 30 -15t99 -11v-80l-283 4l-283 -4v80z" />
    <glyph glyph-name="OE" unicode="&#x152;" horiz-adv-x="2048" 
d="M1094 420v584q0 162 -90 254t-252 94q-220 0 -292 -155q-61 -127 -63 -337v-334q0 -185 67 -312q77 -148 269 -146q153 0 257 99t104 253zM1743 995q-2 -41 -2 -241t2 -240h-113q-6 63 -15 99t-42 67t-90 33h-90v-623h186q164 0 203 46q18 22 29 37q25 34 42 216h150
v-393q-339 4 -493 4t-392 -4v133q-166 -150 -418 -149q-363 0 -502 223q-128 202 -127 535t162 519q162 186 480 187q268 0 405 -168v141q164 -4 314 -4t571 4v-336h-150q-8 70 -11 96q-3 27 -16 63q-14 36 -28 45t-50 23t-79 14q-43 1 -117 1h-159v-524h90q81 0 111 50
t36 146h113z" />
    <glyph glyph-name="oe" unicode="&#x153;" horiz-adv-x="1705" 
d="M1182 903q-44 0 -76 -18q-31 -18 -46 -43q-16 -25 -26 -78t-10 -213h315l-2 147q0 78 -24 125q-23 46 -55 63t-76 17zM573 901q-176 0 -176 -269v-93q0 -238 15 -310q35 -160 161 -163q94 4 125 70q18 38 32 75q20 51 20 261v97q0 197 -36 258q-18 29 -54 51t-87 23z
M1562 287q23 0 23 -32v-24q-6 -92 -66 -151q-102 -100 -300 -100q-117 4 -196 23t-134 73q-102 -96 -345 -96t-348 130q-106 130 -106 370t113 372t340 131q123 0 206 -19t148 -87q96 106 297 106t305 -85q84 -71 99 -248q8 -70 8 -183h-582q0 -267 47 -334q47 -70 161 -70
q67 0 113 43t60 144q5 33 29 37h128z" />
    <glyph glyph-name="Scaron" unicode="&#x160;" horiz-adv-x="1251" 
d="M721 1536h-191l-247 360h112l232 -202l229 202h117zM1085 1057h-147q-8 145 -68 222t-194 77q-133 0 -208 -60t-75 -182q0 -175 231 -230q58 -14 175 -46q190 -58 275 -140t85 -262q0 -345 -379 -433q-102 -24 -221 -23q-205 0 -457 71v359h156q14 -186 78 -266t239 -81
q125 0 206 73t81 194q0 162 -149 223q-105 34 -219 67q-214 61 -294 143q-98 99 -98 277q0 100 50 182q88 148 308 199q95 23 199 23q211 0 426 -68v-319z" />
    <glyph glyph-name="scaron" unicode="&#x161;" horiz-adv-x="909" 
d="M551 1096h-191l-247 360h112l232 -203l229 203h117zM799 684h-125q-2 106 -41 162t-141 57q-164 0 -164 -137q0 -68 53 -104t129 -56q76 -18 152 -44t129 -94t53 -192t-98 -210t-310 -86q-210 0 -366 38v281h137l6 -86q6 -74 57 -116t125 -42q190 0 191 164q0 74 -78 112
q-60 29 -136 48q-75 18 -98 27q-205 66 -204 256q0 322 432 321q162 0 297 -43v-256z" />
    <glyph glyph-name="Ydieresis" unicode="&#x178;" horiz-adv-x="1478" 
d="M688 1688q0 -54 -39 -94t-92 -40t-91 41t-38 93t38 93q38 40 90 40t92 -39t40 -94zM986 1821q52 0 92 -41t40 -93q0 -53 -39 -93t-93 -40t-93 40t-39 94t40 93q40 40 92 40zM909 219q0 -55 2 -75t24 -38q21 -20 61 -23t124 -3v-84q-242 0 -360 4q-118 -4 -361 -4v84
q145 0 165 12t32 20q14 8 14 62v358q0 78 -18 115l-234 369q-124 206 -165 242q-65 53 -94 63q-28 10 -60 14v82l344 -4l342 4v-86q-20 0 -71 -9t-65 -31q-28 -39 -8 -74q7 -14 26 -42t32 -49l217 -360l180 324q74 125 74 170t-24 55t-33 12q-10 2 -42 4t-42 4v82l239 -4
l238 4v-82q-76 -14 -105 -35q-29 -22 -41 -29q-29 -17 -151 -212l-231 -369l-9 -43v-428z" />
    <glyph glyph-name="Zcaron" unicode="&#x17d;" horiz-adv-x="1366" 
d="M778 1536h-190l-248 360h113l231 -202l229 202h117zM557 1323q-112 0 -151 -31q-25 -18 -43 -38q-26 -28 -37 -214h-144v377q365 -4 549 -4t549 4v-92l-852 -1229h381q111 -4 170 7t94 53t44 100q9 57 13 172h150v-432l-610 4l-613 -4v125l850 1202h-350z" />
    <glyph glyph-name="zcaron" unicode="&#x17e;" horiz-adv-x="1024" 
d="M608 1096h-190l-248 360h113l231 -203l229 203h117zM958 313v-317q-300 4 -450 4t-449 -4v78l553 798h-247q-141 -4 -160 -204h-99v299q291 -4 430 -4t422 4v-74l-555 -803h256q102 4 135 53q32 49 46 170h118z" />
    <glyph glyph-name="florin" unicode="&#x192;" 
d="M143 723h224q49 363 142 503t314 140q113 0 192 -49t79 -154q0 -55 -19 -94q-20 -31 -104 -31t-84 76q0 14 2 52t1 56q-2 18 -18 35q-16 18 -49 21q-88 8 -127 -248l-49 -307h230v-100h-242l-53 -363l-23 -170q-33 -250 -134 -386t-329 -136q-116 0 -180 57t-61 162
q0 111 145 90q39 -11 45 -29t11 -78q4 -60 18 -88t45 -28q109 2 151 342l82 627h-209v100z" />
    <glyph glyph-name="circumflex" unicode="&#x2c6;" horiz-adv-x="681" 
d="M246 1456h190l252 -360h-117l-229 200l-231 -200h-113z" />
    <glyph glyph-name="caron" unicode="&#x2c7;" horiz-adv-x="681" 
d="M436 1096h-190l-248 360h113l231 -203l229 203h117z" />
    <glyph glyph-name="uni02C9" unicode="&#x2c9;" horiz-adv-x="681" 
d="M604 1171h-526v148h526v-148z" />
    <glyph glyph-name="breve" unicode="&#x2d8;" horiz-adv-x="681" 
d="M341 1096q-146 0 -229 92t-81 242h90q27 -178 218 -178t222 178h90q-4 -150 -84 -242t-226 -92z" />
    <glyph glyph-name="dotaccent" unicode="&#x2d9;" horiz-adv-x="681" 
d="M340 1114q-53 0 -91 41t-38 93t38 92t90 40t92 -39t40 -94t-39 -94t-92 -39z" />
    <glyph glyph-name="ring" unicode="&#x2da;" horiz-adv-x="681" 
d="M217 1314q0 -50 38 -87t87 -37t86 37t37 87t-37 86t-87 36t-87 -36t-37 -86zM561 1313q-1 -90 -65 -155q-64 -64 -154 -64t-156 64t-66 154t68 156q66 66 154 66t154 -66t65 -155z" />
    <glyph glyph-name="ogonek" unicode="&#x2db;" horiz-adv-x="681" 
d="M598 -352l12 -54q-234 -124 -382 -8q-73 57 -56 189q23 168 193 225h77q-51 -51 -84 -122t-30 -107q-4 -70 34 -116t84 -41q48 5 152 34z" />
    <glyph glyph-name="tilde" unicode="&#x2dc;" horiz-adv-x="681" 
d="M469 1135q-57 0 -240 80q-46 20 -82 20q-63 0 -96 -96h-88q61 256 248 256q59 1 161 -47t143 -50q42 -2 72 24t42 73h88q-57 -260 -248 -260z" />
    <glyph glyph-name="hungarumlaut" unicode="&#x2dd;" horiz-adv-x="681" 
d="M946 1384q0 -30 -10 -44t-14 -21q-4 -6 -20 -17q-16 -12 -17 -14q-2 -2 -23 -14l-291 -178h-112l262 303q84 100 168 67q57 -16 57 -82zM516 1384q0 -30 -10 -44t-14 -21q-4 -6 -20 -17q-16 -12 -17 -14q-2 -2 -23 -14l-291 -178h-112l262 303q84 100 168 67
q57 -16 57 -82z" />
    <glyph glyph-name="uni03A9" unicode="&#x3a9;" horiz-adv-x="1488" 
d="M440 702q0 -112 40 -246t76 -208t101 -201l-16 -47h-524l-49 328h67q33 -82 64 -108t96 -25h184q-194 136 -269 253t-75 269q0 260 171 417q171 156 440 156t437 -151q167 -152 167 -410q0 -177 -120 -315q-60 -70 -110 -114t-127 -105h207q61 1 90 25t62 108h69
l-57 -328h-520l-19 45q151 301 185 425q35 124 37 239q-2 262 -85 384t-223 121q-299 0 -299 -512z" />
    <glyph glyph-name="uni03BC" unicode="&#x3bc;" horiz-adv-x="1251" 
d="M1061 162q0 -34 5 -41t12 -17q8 -10 18 -13t28 -9t80 -6v-80l-205 4l-202 -4v131q-139 -164 -371 -147l25 -236q12 -76 -22 -125t-107 -49q-139 0 -140 174v1064q0 32 -8 40l-18 18q-21 21 -119 21v80l211 -4l209 4v-594q0 -191 63 -233q33 -22 84 -22q140 1 169 114
q13 58 13 153v420q0 33 -7 41q-24 27 -52 34t-76 7v80l205 -4l205 4v-805z" />
    <glyph glyph-name="pi" unicode="&#x3c0;" horiz-adv-x="1179" 
d="M997 129q33 0 84 37l27 -55q-39 -57 -108 -97t-136 -39q-211 0 -211 256q0 129 19 416q-221 4 -246 4v-18q0 -370 -95 -566q-17 -36 -34 -57q-80 -29 -139 -35l-17 45q93 126 139 304t46 331q-82 2 -133 -14t-119 -57l-35 61q2 4 20 28q19 25 23 29t22 26t28 29t30 23
q87 68 239 68q311 -4 551 -4q47 0 73 13q25 13 48 50l57 -16q-6 -59 -30 -134t-47 -102q-39 -12 -127 -12q-12 -135 -8 -354q0 -160 79 -160z" />
    <glyph glyph-name="endash" unicode="&#x2013;" horiz-adv-x="1024" 
d="M1024 371h-1024v170h1024v-170z" />
    <glyph glyph-name="emdash" unicode="&#x2014;" horiz-adv-x="2048" 
d="M2048 371h-2048v170h2048v-170z" />
    <glyph glyph-name="quoteleft" unicode="&#x2018;" horiz-adv-x="569" 
d="M268 821q-80 -1 -118 61t-39 146q0 135 70 245q71 110 194 171l43 -64q-166 -98 -187 -239q76 35 131 -19t56 -123q0 -178 -150 -178z" />
    <glyph glyph-name="quoteright" unicode="&#x2019;" horiz-adv-x="569" 
d="M291 1444q80 0 119 -62t39 -145q0 -135 -71 -245t-194 -171l-43 64q166 98 187 239q-76 -36 -131 18t-56 124q0 178 150 178z" />
    <glyph glyph-name="quotesinglbase" unicode="&#x201a;" horiz-adv-x="569" 
d="M131 141q0 178 150 178q81 0 119 -61t38 -145q0 -135 -70 -245t-194 -171l-43 63q166 98 186 240q-76 -35 -131 18t-55 123z" />
    <glyph glyph-name="quotedblleft" unicode="&#x201c;" horiz-adv-x="1024" 
d="M874 999q0 -178 -149 -178q-80 -1 -119 61t-39 146q1 135 71 245t193 171l43 -64q-166 -98 -186 -239q76 35 131 -19t55 -123zM264 821q-80 -1 -119 61t-39 146q0 135 71 245t194 171l43 -64q-166 -98 -187 -239q76 35 131 -19t56 -123q0 -178 -150 -178z" />
    <glyph glyph-name="quotedblright" unicode="&#x201d;" horiz-adv-x="1024" 
d="M289 1444q80 0 119 -62t38 -145q0 -135 -70 -245t-194 -171l-43 64q166 98 187 239q-76 -36 -131 18t-56 124q0 178 150 178zM602 1266q0 178 150 178q80 0 118 -62t39 -145q-1 -135 -71 -245t-193 -171l-43 64q166 98 186 239q-76 -36 -131 18t-55 124z" />
    <glyph glyph-name="quotedblbase" unicode="&#x201e;" horiz-adv-x="1024" 
d="M127 141q0 178 149 178q80 0 119 -61t39 -145q0 -135 -70 -245t-194 -171l-43 63q166 98 186 240q-76 -35 -131 18t-55 123zM590 141q0 178 149 178q80 0 119 -61t39 -145q-1 -135 -71 -245t-193 -171l-43 63q166 98 186 240q-76 -35 -131 18t-55 123z" />
    <glyph glyph-name="dagger" unicode="&#x2020;" 
d="M698 788v-493q8 -233 27 -297l-29 -18l-125 75l-125 -75l-28 18q18 63 26 297v493h-176q-100 -4 -176 -14l-14 23l61 92l-59 88l22 27q27 -6 185 -21h157v180q4 170 -24 258l26 23l125 -68l125 68l27 -23q-29 -88 -25 -258v-180h158q158 14 184 21l23 -27l-59 -88l61 -92
l-14 -23q-76 10 -177 14h-176z" />
    <glyph glyph-name="daggerdbl" unicode="&#x2021;" 
d="M692 901v-377h213q84 6 135 25l25 -33l-66 -86l66 -82l-25 -31q-51 18 -135 25h-213v-106q-4 -137 31 -238l-31 -18l-121 86l-120 -86l-31 18q35 100 31 238v106h-213q-84 -6 -136 -25l-24 31l65 82l-65 86l24 33q51 -18 136 -25h213v377h-213q-88 -10 -136 -27l-24 33
l65 86l-65 82l24 31q51 -18 136 -25h213v107q4 137 -31 237l31 19l120 -86l121 86l31 -19q-35 -100 -31 -237v-107h213q84 6 135 25l25 -31l-66 -82l66 -86l-25 -33q-47 16 -135 27h-213z" />
    <glyph glyph-name="bullet" unicode="&#x2022;" horiz-adv-x="1241" 
d="M913 707q0 -121 -86 -207q-87 -86 -207 -86t-206 86t-86 207t86 207t207 85q121 1 207 -85t85 -207z" />
    <glyph glyph-name="ellipsis" unicode="&#x2026;" horiz-adv-x="2048" 
d="M1706 -20q-68 0 -106 43t-37 122q0 166 143 172q145 -5 145 -171t-145 -166zM1024 -20q-68 0 -106 43t-37 122q0 166 143 172q145 -5 145 -171t-145 -166zM199 146q0 165 143 171q145 -6 145 -171t-145 -169q-143 4 -143 169z" />
    <glyph glyph-name="perthousand" unicode="&#x2030;" horiz-adv-x="2048" 
d="M133 -133l924 1708h119l-924 -1708h-119zM980 586q-54 0 -87 -79t-35 -195t31 -194t91 -81q58 -2 87 85t28 204q-1 116 -31 188t-84 72zM977 657q147 0 233 -93t86 -247q0 -153 -86 -245t-233 -92t-234 92q-86 92 -86 246t86 246q87 93 234 93zM1821 325q0 117 -30 189
t-84 72t-87 -79t-36 -195t27 -194t88 -81q58 -2 90 85t32 203zM1702 657q147 0 233 -93t86 -247q0 -153 -86 -245t-233 -92t-234 92q-86 92 -86 246t86 246q87 93 234 93zM309 1444q147 0 233 -93t87 -247q0 -154 -86 -246q-85 -92 -233 -92t-234 92t-86 246t86 247t233 93z
M310 1380q-52 0 -85 -81t-35 -197t31 -194q33 -79 91 -81t87 85t28 202q-1 114 -33 190t-84 76z" />
    <glyph glyph-name="guilsinglleft" unicode="&#x2039;" horiz-adv-x="569" 
d="M502 49h-76l-363 357v98l369 360h70v-14l-246 -393l246 -394v-14z" />
    <glyph glyph-name="guilsinglright" unicode="&#x203a;" horiz-adv-x="569" 
d="M66 864h75l365 -358v-96l-369 -361h-71v14l247 394l-247 393v14z" />
    <glyph glyph-name="fraction" unicode="&#x2044;" horiz-adv-x="342" 
d="M618 1300l-745 -1300h-143l745 1300h143z" />
    <glyph glyph-name="Euro" unicode="&#x20ac;" 
d="M716 63q98 1 150 57t52 120t34 63h127q27 0 27 -35q0 -104 -75 -173q-128 -117 -363 -115q-267 0 -372 155t-120 385h-151l26 94h119v60q0 59 2 88h-147l26 94h127q19 221 125 369q106 147 373 147q182 0 387 -65v-316h-141q-3 143 -43 221t-197 78q-70 0 -113 -41
q-82 -78 -94 -393h445l-29 -94h-418v-148h377l-29 -94h-346q8 -322 100 -416q43 -41 141 -41z" />
    <glyph glyph-name="afii61289" unicode="&#x2113;" horiz-adv-x="901" 
d="M428 895v-195q158 176 158 414q0 197 -80 197q-50 0 -64 -84t-14 -332zM483 -18q-154 0 -229 75q-41 47 -59 107t-19 182v103l-117 -70l-26 63l141 97v252q0 195 23 293t86 176q100 125 235 124q106 0 162 -76q55 -78 55 -210q1 -132 -73 -252t-234 -256v-139
q0 -172 39 -245t129 -73q112 0 221 150l49 -45q-145 -256 -383 -256z" />
    <glyph glyph-name="trademark" unicode="&#x2122;" horiz-adv-x="2043" 
d="M1968 1413v-49h-39q-46 0 -54 -17q-7 -17 -7 -57v-551q0 -63 15 -79t85 -21v-53h-354v53q70 2 87 17t17 81v570h-4l-293 -721h-20l-305 721h-4v-602q0 -31 14 -45t30 -17q16 -2 58 -4v-53h-268v53q45 2 62 5q40 7 40 65v616q0 33 -19 36t-36 3h-31v49h270l242 -571
l242 571h272zM651 586h-403v53q131 0 131 92v617h-90q-84 0 -116 -31t-34 -113h-61v209h751v-209h-61q-2 82 -34 113t-116 31h-90v-635q0 -74 123 -74v-53z" />
    <glyph glyph-name="Omega" unicode="&#x2126;" horiz-adv-x="1488" 
d="M440 702q0 -112 40 -246t76 -208t101 -201l-16 -47h-524l-49 328h67q33 -82 64 -108t96 -25h184q-194 136 -269 253t-75 269q0 260 171 417q171 156 440 156t437 -151q167 -152 167 -410q0 -177 -120 -315q-60 -70 -110 -114t-127 -105h207q61 1 90 25t62 108h69
l-57 -328h-520l-19 45q151 301 185 425q35 124 37 239q-2 262 -85 384t-223 121q-299 0 -299 -512z" />
    <glyph glyph-name="estimated" unicode="&#x212e;" horiz-adv-x="1589" 
d="M1257 668v360q0 25 -18 43q-190 186 -446 186t-445 -192q-18 -18 -18 -45v-352q0 -12 10 -13h909q8 1 8 13zM1526 621h-1186q-10 0 -10 -9v-358q0 -20 16 -41q188 -195 462 -195t460 218h104q-100 -117 -253 -186t-326 -68q-303 0 -518 192q-214 193 -214 465t214 466
q213 193 517 193t519 -192t215 -467v-18z" />
    <glyph glyph-name="partialdiff" unicode="&#x2202;" horiz-adv-x="1112" 
d="M602 715h-2q-111 0 -176 -103q-84 -141 -84 -368q0 -88 35 -138t100 -49q102 0 184 187q63 143 97 364q-20 41 -62 74t-92 33zM532 813h3q71 0 137 -30t104 -83q18 131 21 205q8 172 -47 281q-68 121 -203 121t-299 -138q-31 0 -68 69t-18 110q143 76 297 75
q291 0 448 -270q109 -180 109 -443t-103 -446q-150 -283 -446 -282q-176 0 -281 103q-104 103 -104 283t121 310q130 135 329 135z" />
    <glyph glyph-name="Delta" unicode="&#x2206;" horiz-adv-x="1314" 
d="M915 123l-356 838l-348 -838h704zM1245 0h-1177v72l518 1190l123 28l536 -1218v-72z" />
    <glyph glyph-name="product" unicode="&#x220f;" horiz-adv-x="1443" 
d="M1389 1294v-67q-125 -8 -153 -37t-28 -141v-945q0 -120 29 -150t152 -40v-68h-605v68q106 8 129 37t23 153v1037q0 45 -13 56t-61 11h-289q-45 0 -56 -10t-11 -53v-1041q0 -122 19 -152t118 -38v-68h-588v68q121 10 150 41t28 149v945q-1 113 -29 141t-157 37v67h1342z
" />
    <glyph glyph-name="summation" unicode="&#x2211;" horiz-adv-x="1140" 
d="M49 -168v68l426 581l-414 744v69h936q4 -80 25 -346l-70 -16q-33 133 -75 207q-27 45 -66 60t-143 15h-283l315 -561l-432 -604h467q133 0 177 34t114 196l70 -19l-97 -428h-950z" />
    <glyph glyph-name="minus" unicode="&#x2212;" horiz-adv-x="1241" 
d="M104 434v176h1033v-176h-1033z" />
    <glyph glyph-name="uni2215" unicode="&#x2215;" horiz-adv-x="342" 
d="M618 1300l-745 -1300h-143l745 1300h143z" />
    <glyph glyph-name="uni2219" unicode="&#x2219;" horiz-adv-x="569" 
d="M418 522q0 -57 -43 -100t-101 -43t-99 43q-42 43 -42 100q0 58 42 100t99 42t101 -42q43 -43 43 -100z" />
    <glyph glyph-name="radical" unicode="&#x221a;" horiz-adv-x="1110" 
d="M1094 1610l-346 -1907l-62 -27l-420 998l-170 -78l-28 82l374 168l283 -715h4l264 1499z" />
    <glyph glyph-name="infinity" unicode="&#x221e;" horiz-adv-x="1462" 
d="M1059 700h-2q-47 0 -77 -19t-44 -29t-37 -34t-29 -30t-30 -37l-25 -31q82 -106 135 -144t121 -38t110 55t42 128t-45 126t-119 53zM406 338h2q68 0 122 45t119 125q-49 70 -73 100t-71 61q-48 31 -113 31q-64 0 -110 -52t-46 -130t49 -129t121 -51zM1374 526v-2
q0 -152 -92 -242t-217 -92q-182 0 -334 207q-82 -102 -160 -154q-77 -53 -191 -53t-204 92t-90 234q0 144 91 236t229 92q182 0 333 -201q94 109 165 155q70 46 184 46t200 -88t86 -230z" />
    <glyph glyph-name="integral" unicode="&#x222b;" horiz-adv-x="802" 
d="M622 1540q62 0 109 -31t48 -84t-35 -85t-76 -32t-59 32t-31 65t-29 33q-61 0 -47 -277l37 -682q23 -449 -83 -663t-282 -215q-61 1 -105 35t-45 84t43 87t84 37t57 -34q18 -34 30 -71q12 -36 28 -36q65 0 49 268l-39 731q-14 250 16 426t89 261q106 151 241 151z" />
    <glyph glyph-name="approxequal" unicode="&#x2248;" horiz-adv-x="1058" 
d="M353 487q120 0 263 -102q58 -29 103 -29t83 32t87 101l102 -98q-115 -193 -274 -192q-89 0 -199 66q-110 67 -162 67q-87 1 -142 -67q-19 -24 -52 -66l-103 96q47 84 127 138t167 54zM719 557q-91 1 -201 67t-170 66t-99 -34q-40 -34 -87 -97l-103 96q47 85 127 139
t167 54t200 -64q104 -67 162 -67q88 0 174 133l102 -98q-117 -195 -272 -195z" />
    <glyph glyph-name="notequal" unicode="&#x2260;" horiz-adv-x="1058" 
d="M969 793v-158h-312l-106 -240h418v-157h-482l-94 -211l-125 53l70 158h-248v157h311l105 240h-416v158h479l93 208l126 -53l-67 -155h248z" />
    <glyph glyph-name="lessequal" unicode="&#x2264;" horiz-adv-x="1058" 
d="M971 -25h-879v160h879v-160zM965 201l-869 409v170l869 410v-180l-707 -312v-4l707 -313v-180z" />
    <glyph glyph-name="greaterequal" unicode="&#x2265;" horiz-adv-x="1058" 
d="M965 -25h-873v160h873v-160zM100 1190l869 -410v-170l-869 -409v180l705 313v4l-705 312v180z" />
    <glyph glyph-name="lozenge" unicode="&#x25ca;" horiz-adv-x="1140" 
d="M874 614l-299 598h-8l-299 -596l301 -604h6zM1055 614l-389 -751h-193l-387 751l391 758h191z" />
    </font>
</defs>
</svg>
